/* XPM */
static char *result[] = {
/* columns rows colors chars-per-pixel */
"80 80 240 2 ",
"   c #9B011D",
".  c #930119",
"X  c #B5031E",
"o  c #9A1027",
"O  c #AA0323",
"+  c #A30621",
"@  c #BD0629",
"#  c #B70527",
"$  c #AB172A",
"%  c #B31A2D",
"&  c #BC1B29",
"*  c #BA1726",
"=  c #B91C32",
"-  c #B91832",
";  c #93353B",
":  c #932F36",
">  c #A62A38",
",  c #B8343D",
"<  c #B72934",
"1  c #C40B2A",
"2  c #C50829",
"3  c #D60D2D",
"4  c #C3122D",
"5  c #C41D2B",
"6  c #CB1D2B",
"7  c #C7152A",
"8  c #D8152F",
"9  c #CD1B32",
"0  c #C81731",
"q  c #D31B32",
"w  c #DC1B32",
"e  c #E21D32",
"r  c #C4212E",
"t  c #CE222D",
"y  c #D3222D",
"u  c #DA242E",
"i  c #C42431",
"p  c #CD2432",
"a  c #C52A33",
"s  c #CD2B34",
"d  c #C7293C",
"f  c #D32334",
"g  c #DB2534",
"h  c #D32A36",
"j  c #DC2B35",
"k  c #D42B3A",
"l  c #DB2B3B",
"z  c #D72539",
"x  c #CD393E",
"c  c #C9343B",
"v  c #D4333C",
"b  c #D9343C",
"n  c #E1292F",
"m  c #E42434",
"M  c #E92636",
"N  c #E42B34",
"B  c #EA2C35",
"V  c #E42C3C",
"C  c #EA2C3A",
"Z  c #E6253A",
"A  c #F22C3C",
"S  c #F92F3F",
"D  c #EC3236",
"F  c #E2313E",
"G  c #EC323A",
"H  c #EC3D3D",
"J  c #F1333B",
"K  c #B53341",
"L  c #DB2D40",
"P  c #C73846",
"I  c #D13C42",
"U  c #DB3E45",
"Y  c #D83542",
"T  c #CC2D40",
"R  c #E23541",
"E  c #EB3541",
"W  c #E33945",
"Q  c #E53D4A",
"!  c #EE3B46",
"~  c #F53541",
"^  c #F33B44",
"/  c #FC3C45",
"(  c #FA3643",
")  c #975054",
"_  c #B14E52",
"`  c #BD5C60",
"'  c #A87879",
"]  c #BA7577",
"[  c #B0696D",
"{  c #926161",
"}  c #C9464A",
"|  c #D34A4E",
" . c #D7444A",
".. c #C74D54",
"X. c #DB4D52",
"o. c #D34C53",
"O. c #DE5053",
"+. c #D4545B",
"@. c #D7585B",
"#. c #CB595D",
"$. c #E64547",
"%. c #F5414B",
"&. c #FD444B",
"*. c #FC4B4E",
"=. c #F34E4B",
"-. c #F6514F",
";. c #E64C55",
":. c #E64454",
">. c #F74C52",
",. c #E35157",
"<. c #E95658",
"1. c #F55D59",
"2. c #FD5C5C",
"3. c #F65456",
"4. c #EF504E",
"5. c #FE605E",
"6. c #CD5D62",
"7. c #D25D63",
"8. c #DE5D63",
"9. c #FA5B62",
"0. c #E85E61",
"q. c #C86769",
"w. c #D5676A",
"e. c #D87779",
"r. c #CE7175",
"t. c #E76469",
"y. c #F86669",
"u. c #EE7679",
"i. c #E87778",
"p. c #FA787A",
"a. c #FD6A71",
"s. c #8C897D",
"d. c #FE827F",
"f. c #D6807E",
"g. c #FD7F80",
"h. c #D07B80",
"j. c #9D9A8E",
"k. c #989589",
"l. c #928F83",
"z. c #B68B8B",
"x. c #A19E92",
"c. c #B79797",
"v. c #A09C8E",
"b. c #A7A59A",
"n. c #B6A19F",
"m. c #AEAEA4",
"M. c #B9A6A3",
"N. c #B5B5AB",
"B. c #BCBCB4",
"V. c #C98889",
"C. c #DB8384",
"Z. c #DC8B8D",
"A. c #D88587",
"S. c #CB9999",
"D. c #DC9394",
"F. c #DC9D9E",
"G. c #D59797",
"H. c #D98E91",
"J. c #E68989",
"K. c #FC8482",
"L. c #F68A8A",
"P. c #EB9B9C",
"I. c #E69796",
"U. c #F79899",
"Y. c #E6918E",
"T. c #DBA29F",
"R. c #E39DA1",
"E. c #C6A7A6",
"W. c #DCA3A3",
"Q. c #DCACAB",
"!. c #D8A4A6",
"~. c #DAB1AE",
"^. c #DFAFB1",
"/. c #CBB6B5",
"(. c #D3B3B3",
"). c #DCB4B3",
"_. c #D9BCBC",
"`. c #CFAFB1",
"'. c #E6A5A4",
"]. c #E2AAAC",
"[. c #E8A7A8",
"{. c #F5A9A9",
"}. c #F2B2AF",
"|. c #E5ADB3",
" X c #E2B4B4",
".X c #E4BCBC",
"XX c #EBBDBC",
"oX c #E8B5B5",
"OX c #F4B3B2",
"+X c #F5BBBA",
"@X c #F7B7B9",
"#X c #E1B2AE",
"$X c #C5C3BC",
"%X c #DAC2BF",
"&X c #E0C2BF",
"*X c #E5BEC1",
"=X c #F9BEC3",
"-X c #CBCBC3",
";X c #CDC2C2",
":X c #D8C7C6",
">X c #D2D2CC",
",X c #DAD1CD",
"<X c #D6D6D2",
"1X c #DBDCD5",
"2X c #DDDED9",
"3X c #DAD6D3",
"4X c #CFD1C9",
"5X c #E5C6C5",
"6X c #EBC4C4",
"7X c #E3C9C7",
"8X c #E5CCCB",
"9X c #EACBCB",
"0X c #EAC8C7",
"qX c #F7C4C5",
"wX c #EBD1CE",
"eX c #F7D1CE",
"rX c #E5D6D4",
"tX c #ECD4D3",
"yX c #E5DCDB",
"uX c #EBDDDB",
"iX c #EBD9D7",
"pX c #F8D8D8",
"aX c #FBCED2",
"sX c #DFE0DB",
"dX c #E3E2DE",
"fX c #EAE2DF",
"gX c #E6DFE0",
"hX c #E6E5E1",
"jX c #EAE4E3",
"kX c #EBEAE6",
"lX c #EDECEA",
"zX c #E7E9E3",
"xX c #F2EDEA",
"cX c #F4E7E4",
"vX c #EEF0EC",
"bX c #F2F1EE",
"nX c #F5F5F3",
"mX c #FBFBF9",
"MX c #F9F9F6",
"NX c None",
/* pixels */
"NXNXNXNXNXNXNXNXNXNXNXNXNXNXNXNXNXNXNXNXNXNXNXNXNXNXNXNXNXNXNXNXNXNXNXNXNXNXNXNXNXNXNXNXNXNXNXNXNXNXNXNXNXNXNXNXNXNXNXNXNXNXNXNXNXNXNXNXNXNXNXNXNXNXNXNXNXNXNXNX",
"NXNXNXNXNXNXNXNXNXNXNXNXNXNXNXNXNXNXNXNXNXNXNXNXNXNXNXNXNXNXNXNXNXNXNXNXNXNXNXNXNXNXNXNXNXNXNXNXNXNXNXNXNXNXNXNXNXNXNXNXNXNXNXNXNXNXNXNXNXNXNXNXNXNXNXNXNXNXNXNX",
"NXNXNXNXNXNXNXNXNXNXNXNXNXNXNXNXNXNXNXNXNXNXNXNXNXNXNXNXNXNXNXNXNXNXNXNXNXNXNXNXNXNXNXNXNXNXNXNXNXNXNXNXNXNXNXNXNXNXNXNXNXNXNXNXNXNXNXNXNXNXNXNXNXNXNXNXNXNXNXNX",
"NXNXNXNXNXNXNXNXNXNXNXNXNXNXNXNXNXNXNXNXNXNXNXNXNXNXNXNXNXNXNXNXNXNXNXNXNXNXNXNXNXNXNXNXNXNXNXNXNXNXNXNXNXNXNXNXNXNXNXNXNXNXNXNXNXNXNXNXNXNXNXNXNXNXNXNXNXNXNXNX",
"NXNXNXNXNXNXNXNXNXNXNXNXNXNXNXNXNXNXNXNXNXNXNXNXNXNXNXNXNXNXNXNXNXNXNXNXNXNXNXNXNXNXNXNXNXNXNXNXNXNXNXNXNXNXNXNXNXNXNXNXNXNXNXNXNXNXNXNXNXNXNXNXNXNXNXNXNXNXNXNX",
"NXNXNXNXNXNXNXNXNXNXNXNXNXNXNXNXNXNXNXNXNXNXNXNXNXNXNXNXNXNXNXNXNXNXNXNXNXNXNXNXNXNXNXNXNXNXNXNXNXNXNXNXNXNXNXNXNXNXNXNXNXNXNXNXNXNXNXNXNXNXNXNXNXNXNXNXNXNXNXNX",
"NXNXNXNXNXNXNXNXNXNXNXNXNXNXNXNXNXNXNXNXNXNXNXNXNXNXNXNXNXNXNXNXNXNXNXNXNXNXNXNXNXNXNXNXNXNXNXNXNXNXNXNXNXNXNXNXNXNXNXNXNXNXNXNXNXNXNXNXNXNXNXNXNXNXNXNXNXNXNXNX",
"NXNXNXNXNXNXNXNXNXNXNXNXNXNXNXNXNXNXNXNXNXNXNXNXNXNXNXNXNXNXNXNXNXNXNXNXNXNXNXNXNXNXNXNXNXNXNXNXNXNXNXNXNXNXNXNXNXNXNXNXNXNXNXNXNXNXNXNXNXNXNXNXNXNXNXNXNXNXNXNX",
"NXNXNXNXNXNXNXNXNXNXNXNXNXNXNXNXNXNXNXNXNXNXNXNXNXNXNXNXNXNXNXNXNXNXNXNXNXNXNXNXNXNXNXNXNXNXNXNXNXNXNXNXNXNXNXNXNXNXNXNXNXNXNXNXNXNXNXNXNXNXNXNXNXNXNXNXNXNXNXNX",
"NXNXNXNXNXNXNXNXNXNXNXNXNXNXNXNXNXNXNXNXNXNXNXNXNXNXNXNXNXNXNXNXNXNXNXNXNXNXNXNXNXNXNXNXNXNXNXNXNXNXNXNXNXNXNXNXNXNXNXNXNXNXNXNXNXNXNXNXNXNXNXNXNXNXNXNXNXNXNXNX",
"NXNXNXNXNXNXNXNXNXNXNXNXNXNXNXNXNXNXNXNXNXNXNXNXNXNXNXNXNXkXyX1X<X2XyXhXhXhXhXhXsXdXhXdXhXsX1X<X<X2X2XzXNXNXNXNXNXNXNXNXNXNXNXNXNXNXNXNXNXNXNXNXNXNXNXNXNXNXNXNX",
"NXNXNXNXNXNXNXNXNXNXNXNXNXNXNXNXNXNXNXNXNXNXNXNXNXNXNXzXdXlXnXnXmXmXmXmXnXnXmXMXmXnXlXNXNXNXNXNXNXkX2X-XB.NXNXNXNXNXNXNXNXNXNXNXNXNXNXNXNXNXNXNXNXNXNXNXNXNXNXNX",
"NXNXNXNXNXNXNXNXNXNXNXNXNXNXNXNXNXNXNXNXNXNXNXNXNXNXNX3X<XhXlXnXMXMXMXMXkXB.2XlXvXhX>X3XlXNXNXNXNXNXlXxXxXNXNXNXNXNXNXNXNXNXNXNXNXNXNXNXNXNXNXNXNXNXNXNXNXNXNXNX",
"NXNXNXNXNXNXNXNXNXNXNXNXNXNXNXNXNXNXNXNXNXNXNXNXNXNXNX(.z.M.;X3XsXdXdXhXzXdX4X<X1XsXdXdXhXhXhXdXhXzXyX:X_.NXNXNXNXNXNXNXNXNXNXNXNXNXNXNXNXNXNXNXNXNXNXNXNXNXNXNX",
"NXNXNXNXNXNXNXNXNXNXNXNXNXNXNXNXNXNXNXNXNXNXNXNXNXNXNXr.> > o o ; ' ' z.c.c.n.M.M.M.M.M.c.E.dX,X' , , P 8.pXNXNXNXNXNXNXNXNXNXNXNXNXNXNXNXNXNXNXNXNXNXNXNXNXNXNX",
"NXNXNXNXNXNXNXNXNXNXNXNXNXNXNXNXNXNXNXNXNXNXNXNXNXNX0XK P = - - - - % % $ $ $ $ $ % & < d 7.lXfXp f Y U ,.U.NXNXNXNXNXNXNXNXNXNXNXNXNXNXNXNXNXNXNXNXNXNXNXNXNXNX",
"NXNXNXNXNXNXNXNXNXNXNXNXNXNXNXNXNXNXNXNXNXNXNXNXNXbXw.T d z Z z z z z z Y E F E G E ^ ^ ^ / xXMX=.! ! Q <.a.pXNXNXNXNXNXNXNXNXNXNXNXNXNXNXNXNXNXNXNXNXNXNXNXNXNX",
"NXNXNXNXNXNXNXNXNXNXNXNXNXNXNXNXNXNXNXNXNXNXNXNXNXR.P T L L L L E E C C G ~ ( / ^ &.&.&.&.&.qXmXU./ ^ ! >.9.P.NXNXNXNXNXNXNXNXNXNXNXNXNXNXNXNXNXNXNXNXNXNXNXNXNX",
"NXNXNXNXNXNXNXNXNXNXNXNXNXNXNXNXNXNXNXNXNXNXNXNXaX+.T T z e E e 0.u.A S ( ~ ( / &./ &.&.*.&.p.mXqX/ &.%.! 9.a.=XNXNXNXNXNXNXNXNXNXNXNXNXNXNXNXNXNXNXNXNXNXNXNXNX",
"NXNXNXNXNXNXNXNXNXNXNXNXNXNXNXNXNXNXNXNXNXNXNXNX|.K T z L E Z ~ ~ qXS S ( ( ( / / / &.&.&.&.*.pXxX>.&.>.! >.9.U.NXNXNXNXNXNXNXNXNXNXNXNXNXNXNXNXNXNXNXNXNXNXNXNX",
"NXNXNXNXNXNXNXNXNXNXNXNXNXNXNXNXNXNXNXNXNXNXNXNXR.K 0 4 9 w Z L A =XU.~ S ( ( / / / &.&.*.&.*.U.mXg./ ~ ^ H ! U.NXNXNXNXNXNXNXNXNXNXNXNXNXNXNXNXNXNXNXNXNXNXNXNX",
"NXNXNXNXNXNXNXNXNXNXNXNXNXNXNXNXNXNXNXNXNXNXNXNXR.K - - O     V.*X X*X2 0 p P.P.j N L.V E 0.F V uXR.7 2 q l Q {.NXNXNXNXNXNXNXNXNXNXNXNXNXNXNXNXNXNXNXNXNXNXNXNX",
"NXNXNXNXNXNXNXNXNXNXNXNXNXNXNXNXNXNXNXNXNXNXNXNX|.K - - O + . [ `.z.yXO     c.zX;X{ ' E._ r.O # _.!.X 2 0 L :.@XNXNXNXNXNXNXNXNXNXNXNXNXNXNXNXNXNXNXNXNXNXNXNXNX",
"NXNXNXNXNXNXNXNXNXNXNXNXNXNXNXNXNXNXNXNXNXNXNXNX|.P T T - # O # _.S.gXS.K   `.c.:XyX`.[ (.* # 2 F. X8 8 L &.9.OXNXNXNXNXNXNXNXNXNXNXNXNXNXNXNXNXNXNXNXNXNXNXNXNX",
"NXNXNXNXNXNXNXNXNXNXNXNXNXNXNXNXNXNXNXNXNXNXNXNX|.P d d 0 4 @ @ ..yX(.K E.) c.:X; c.yX2XyXQ.3 8 i.XXe Z E >.9.=XNXNXNXNXNXNXNXNXNXNXNXNXNXNXNXNXNXNXNXNXNXNXNXNX",
"NXNXNXNXNXNXNXNXNXNXNXNXNXNXNXNXNXNXNXNXNXNXNXNX|.P d L 9 4 @ @ 0 ~.hXV.$ M.) ;X,X[ K :XjX5X3 8 u 6Xm Z E >.9.=XNXNXNXNXNXNXNXNXNXNXNXNXNXNXNXNXNXNXNXNXNXNXNXNX",
"NXNXNXNXNXNXNXNXNXNXNXNXNXNXNXNXNXNXNXNXNXNXNXNX|.P T T 9 - @ @ !.lXS.gX`.> M.) /.gX(.[ 7X6.3 3 w +Xe C ^ 9.9.=XNXNXNXNXNXNXNXNXNXNXNXNXNXNXNXNXNXNXNXNXNXNXNXNX",
"NXNXNXNXNXNXNXNXNXNXNXNXNXNXNXNXNXNXNXNXNXNXNXNXoXP T L z 0 4 P hX8X@ ] yX3X' E.: c.uXzXlXXX3 e m }.e E / 9.a.=XNXNXNXNXNXNXNXNXNXNXNXNXNXNXNXNXNXNXNXNXNXNXNXNX",
"NXNXNXNXNXNXNXNXNXNXNXNXNXNXNXNXNXNXNXNXNXNXNXNX*XQ T L T 0 @ G.jX6.@ # _ :XgX;X/.  _ 8XrXD.8 e m }.A B / 9.a.qXNXNXNXNXNXNXNXNXNXNXNXNXNXNXNXNXNXNXNXNXNXNXNXNX",
"NXNXNXNXNXNXNXNXNXNXNXNXNXNXNXNXNXNXNXNXNXNXNXNX*X7.U L z 0 1 ^.).2 2 @ +   z.3XsX_.z.< 5X8.8 e M Y.3.J &.9.a.qXNXNXNXNXNXNXNXNXNXNXNXNXNXNXNXNXNXNXNXNXNXNXNXNX",
"NXNXNXNXNXNXNXNXNXNXNXNXNXNXNXNXNXNXNXNXNXNXNXNX*X8.Q L z 9 0 R.h.1 2 @ O   . ; n.gXjXjXlXoX8 M M u.u.J &.9.g.aXNXNXNXNXNXNXNXNXNXNXNXNXNXNXNXNXNXNXNXNXNXNXNXNX",
"NXNXNXNXNXNXNXNXNXNXNXNXNXNXNXNXNXNXNXNXNXNXNXNX|.t.Q Q z 9 0 H.8XR.P 2 @ O (.E.S./.V..XeXh.e m M 4.L.~ / 9.g.aXNXNXNXNXNXNXNXNXNXNXNXNXNXNXNXNXNXNXNXNXNXNXNXNX",
"NXNXNXNXNXNXNXNXNXNXNXNXNXNXNXNXNXNXNXNXNXNXNXNX*Xt.;.W l q 9 Q.^.6.^.h.2 # _.] _ _.~.w.3 q e e M G L.( *.2.d.pXNXNXNXNXNXNXNXNXNXNXNXNXNXNXNXNXNXNXNXNXNXNXNXNX",
"NXNXNXNXNXNXNXNXNXNXNXNXNXNXNXNXNXNXNXNXNXNXNXNX*Xu.;.W l f q W.!.R.1 R.h.@ ` gXyX, 4 #XJ.w e Z M A U.&.*.5.p.aXNXNXNXNXNXNXNXNXNXNXNXNXNXNXNXNXNXNXNXNXNXNXNXNX",
"NXNXNXNXNXNXNXNXNXNXNXNXNXNXNXNXNXNXNXNXNXNXNXNX*Xg.;.W l z q 7.iXh.|.T |.1 # r.gX3XA.I uX8.e Z B A {.%.*.y.d.pXNXNXNXNXNXNXNXNXNXNXNXNXNXNXNXNXNXNXNXNXNXNXNXNX",
"NXNXNXNXNXNXNXNXNXNXNXNXNXNXNXNXNXNXNXNXNXNXNXNX9Xu.;.W R g q 9 5X|.7.].).1 - ` q.rXlXlXlXoXe C B J OXH *.5.d.pXNXNXNXNXNXNXNXNXNXNXNXNXNXNXNXNXNXNXNXNXNXNXNXNX",
"NXNXNXNXNXNXNXNXNXNXNXNXNXNXNXNXNXNXNXNXNXNXNXNXtXg.Q Y F z q q r.lXD.9 9 0 5XT.).Q.W.0XwXi.m M B A OX/ *.5.d.cXNXNXNXNXNXNXNXNXNXNXNXNXNXNXNXNXNXNXNXNXNXNXNXNX",
"NXNXNXNXNXNXNXNXNXNXNXNXNXNXNXNXNXNXNXNXNXNXNXNXuXg.,.Q F g q w 3 |.lXD.q 8 :XF.1 P oXI.e e M M B J &X3.*.5.d.pXNXNXNXNXNXNXNXNXNXNXNXNXNXNXNXNXNXNXNXNXNXNXNXNX",
"NXNXNXNXNXNXNXNXNXNXNXNXNXNXNXNXNXNXNXNXNXNXNXNXgXi.,.Q F z z w 8 q 5XlX].q w.jXiXA.8 ].P.m M C B B @Xy.*.5.d.cXNXNXNXNXNXNXNXNXNXNXNXNXNXNXNXNXNXNXNXNXNXNXNXNX",
"NXNXNXNXNXNXNXNXNXNXNXNXNXNXNXNXNXNXNXNXNXNXNXNXcXg.,.Q R l q q q w Y 5XlX9X7.r.8XuX@.w tX<.M A B B OXd.*.5.d.pXNXNXNXNXNXNXNXNXNXNXNXNXNXNXNXNXNXNXNXNXNXNXNXNX",
"NXNXNXNXNXNXNXNXNXNXNXNXNXNXNXNXNXNXNXNXNXNXNXNXNXi.,.Q R l f q q w r.Z..XlXkX).7.7.w.e tXP.Z C D J OXU.*.5.d.eXNXNXNXNXNXNXNXNXNXNXNXNXNXNXNXNXNXNXNXNXNXNXNXNX",
"NXNXNXNXNXNXNXNXNXNXNXNXNXNXNXNXNXNXNXNXNXNXNXNXNXg.,.Q R l g f q z r.cX .G.jXlXlXgX6XtXxXP.C B D J OX@X*.5.K.eXNXNXNXNXNXNXNXNXNXNXNXNXNXNXNXNXNXNXNXNXNXNXNXNX",
"NXNXNXNXNXNXNXNXNXNXNXNXNXNXNXNXNXNXNXNXNXNXNXNXNXJ.,.Q E l z f q z ;.h.L q o. XjXkXlXlXiX4.V D D J OX&X*.5.K.tXNXNXNXNXNXNXNXNXNXNXNXNXNXNXNXNXNXNXNXNXNXNXNXNX",
"NXNXNXNXNXNXNXNXNXNXNXNXNXNXNXNXNXNXNXNXNXNXNXNXNXY.<.$.W l h f w Z h.uXC.f D.| p A.P.Y.F V N C D D &XeX3.5.L.NXNXNXNXNXNXNXNXNXNXNXNXNXNXNXNXNXNXNXNXNXNXNXNXNX",
"NXNXNXNXNXNXNXNXNXNXNXNXNXNXNXNXNXNXNXNXNXNXNXNXNXY.,.$.R b k z z q Y.rXlX*X7.oXw.q g g N <.C G D D +XeX*.5.{.NXNXNXNXNXNXNXNXNXNXNXNXNXNXNXNXNXNXNXNXNXNXNXNXNX",
"NXNXNXNXNXNXNXNXNXNXNXNXNXNXNXNXNXNXNXNXNXNXNXNXNXI.,.$.W l h f q L Z.5Xh.iXuXF.8X7.u m P.0.N G B D &XcX=.5.}.kXNXNXNXNXNXNXNXNXNXNXNXNXNXNXNXNXNXNXNXNXNXNXNXNX",
"NXNXNXNXNXNXNXNXNXNXNXNXNXNXNXNXNXNXNXNXNXNXNXNXNXP.,. .Y b h f f z k 8X9Xo. XlXlX8Xj w.iXN N N D D eXcX=.5.{.NXNXNXNXNXNXNXNXNXNXNXNXNXNXNXNXNXNXNXNXNXNXNXNXNX",
"NXNXNXNXNXNXNXNXNXNXNXNXNXNXNXNXNXNXNXNXNXNXNXNXNXP.,.$.Y j h p d q f X.iXuXe.e.uXQ.z XX6XV F D D D pXcX=.1.U.NXNXNXNXNXNXNXNXNXNXNXNXNXNXNXNXNXNXNXNXNXNXNXNXNX",
"NXNXNXNXNXNXNXNXNXNXNXNXNXNXNXNXNXNXNXNXNXNXNXNXNX'.O. .b v h f p f w.oXZ.7XkX5XrX].u fXiXN N B D D cXcX=.5.+XNXNXNXNXNXNXNXNXNXNXNXNXNXNXNXNXNXNXNXNXNXNXNXNXNX",
"NXNXNXNXNXNXNXNXNXNXNXNXNXNXNXNXNXNXNXNXNXNXNXNXNX[.O.W b v h p p f ].].fX| Q.lXlXwXX.vXvXi.N N n H cXxX=.1.#XNXNXNXNXNXNXNXNXNXNXNXNXNXNXNXNXNXNXNXNXNXNXNXNXNX",
"NXNXNXNXNXNXNXNXNXNXNXNXNXNXNXNXNXNXNXNXNXNXNXNXNX[.O.U b h p p p p +.fXe.y t G.#X@.X.vX6XN N N n <.nXbX4.1.}.NXNXNXNXNXNXNXNXNXNXNXNXNXNXNXNXNXNXNXNXNXNXNXNXNX",
"NXNXNXNXNXNXNXNXNXNXNXNXNXNXNXNXNXNXNXNXNXNXNXNXNX[.;. .v h h p 9 f y H.kXF.h t ~.e.v vXi.g n N D d.bXbX4.5.}.NXNXNXNXNXNXNXNXNXNXNXNXNXNXNXNXNXNXNXNXNXNXNXNXNX",
"NXNXNXNXNXNXNXNXNXNXNXNXNXNXNXNXNXNXNXNXNXNXNXNXNX[.O.U v h h p I p p 9 Q.dXiXT.&X9Xy fXj u n N n }.bXxX=.5.qXNXNXNXNXNXNXNXNXNXNXNXNXNXNXNXNXNXNXNXNXNXNXNXNXNX",
"NXNXNXNXNXNXNXNXNXNXNXNXNXNXNXNXNXNXNXNXNXNXNXNXNX[.O. .v h p  X7XF.H.oXQ.wXrXkXjX&Xu 9Xj u u N n &XvXxX=.1.&XNXNXNXNXNXNXNXNXNXNXNXNXNXNXNXNXNXNXNXNXNXNXNXNXNX",
"NXNXNXNXNXNXNXNXNXNXNXNXNXNXNXNXNXNXNXNXNXNXNXNXNX'.O.b v s h &Xr..XW.D.x wXW.e.D.x y ].8.u j n n iXbXcX=.1.}.NXNXNXNXNXNXNXNXNXNXNXNXNXNXNXNXNXNXNXNXNXNXNXNXNX",
"NXNXNXNXNXNXNXNXNXNXNXNXNXNXNXNXNXNXNXNXNXNXNXNXNX'.O. .v s t G.oXp  .yXrXw.6..X+.y y e.Y.u u n $.vXvXcX$.1.&XNXNXNXNXNXNXNXNXNXNXNXNXNXNXNXNXNXNXNXNXNXNXNXNXNX",
"NXNXNXNXNXNXNXNXNXNXNXNXNXNXNXNXNXNXNXNXNXNXNXNXNXI.X. .b s p o.fXe.y e.hX5X7.x &XX.y y '.u u n I.xXbXfX$.1.9XNXNXNXNXNXNXNXNXNXNXNXNXNXNXNXNXNXNXNXNXNXNXNXNXNX",
"NXNXNXNXNXNXNXNXNXNXNXNXNXNXNXNXNXNXNXNXNXNXNXNXNXY.X.x v s t r Q.uXw.y r.yXzX8XfX&Xy y #Xu u n &XxXvXeXH 1.0XNXNXNXNXNXNXNXNXNXNXNXNXNXNXNXNXNXNXNXNXNXNXNXNXNX",
"NXNXNXNXNXNXNXNXNXNXNXNXNXNXNXNXNXNXNXNXNXNXNXNXNXC.X.v v a r p x rXyXw.p } ~.hXzX#Xy y &Xn n j fXcXkX&X=.5.&XNXNXNXNXNXNXNXNXNXNXNXNXNXNXNXNXNXNXNXNXNXNXNXNXNX",
"NXNXNXNXNXNXNXNXNXNXNXNXNXNXNXNXNXNXNXNXNXNXNXNXNXe.| x c a i r i w.dXjXH.r 5 5 x t y u eX@.u f.kXxXfX&XH <.wXNXNXNXNXNXNXNXNXNXNXNXNXNXNXNXNXNXNXNXNXNXNXNXNXNX",
"NXNXNXNXNXNXNXNXNXNXNXNXNXNXNXNXNXNXNXNXNXNXNXNXNXw.X.x s a a r r t e.yXhX%Xq.* & r t @.zXO.n &XkXkXxXI.$.<.%XNXNXNXNXNXNXNXNXNXNXNXNXNXNXNXNXNXNXNXNXNXNXNXNXNX",
"NXNXNXNXNXNXNXNXNXNXNXNXNXNXNXNXNXNXNXNXNXNXNXNXbXw.| x s a < r r r r r.rXhXfX:XT.f.T.1XwXt } cXkXkXzXi.H <.7XNXNXNXNXNXNXNXNXNXNXNXNXNXNXNXNXNXNXNXNXNXNXNXNXNX",
"NXNXNXNXNXNXNXNXNXNXNXNXNXNXNXNXNXNXNXNXNXNXNXNXbXw. .c a a r 5 r r 5 r x ~.yXdXdXdXzXzXf.y T.kXkXkXzX$.H <.Y.NXNXNXNXNXNXNXNXNXNXNXNXNXNXNXNXNXNXNXNXNXNXNXNXNX",
"NXNXNXNXNXNXNXNXNXNXNXNXNXNXNXNXNXNXNXNXNXNXNXNXNX,X#.c a r < 5 5 5 5 r 5 5 c G.Q.%X'.7.t x iXzXkXzXrXx $.0.pXNXNXNXNXNXNXNXNXNXNXNXNXNXNXNXNXNXNXNXNXNXNXNXNXNX",
"NXNXNXNXNXNXNXNXNXNXNXNXNXNXNXNXNXNXNXNXNXNXNXNXNXNXzX(.` % = & * & r 5 5 5 * * 5 7 6 6 r G.dXdXfXzX~. .'.xXNXNXNXNXNXNXNXNXNXNXNXNXNXNXNXNXNXNXNXNXNXNXNXNXNXNX",
"NXNXNXNXNXNXNXNXNXNXNXNXNXNXNXNXNXNXNXNXNXNXNXNXNXNXvXdXhX3XQ.] , * * * * * * * * * * * c iXdXdXdXzXwXcXNXNXNXNXNXNXNXNXNXNXNXNXNXNXNXNXNXNXNXNXNXNXNXNXNXNXNXNX",
"NXNXNXNXNXNXNXNXNXNXNXNXNXNXNXNXNXNXNXNXNXNXNXNXNXNXvX2XN.N.4XsXkXdX:X(.T.S.G.V.f.V.Z.G.&XkXvXbXvXdX1X1XNXNXNXNXNXNXNXNXNXNXNXNXNXNXNXNXNXNXNXNXNXNXNXNXNXNXNXNX",
"NXNXNXNXNXNXNXNXNXNXNXNXNXNXNXNXNXNXNXNXNXNXNXNXNXNXvXhX>Xm.k.l.b.b.$X4X>X1XsXdXzXdXdX1X1X$X$XB.N.N.$XkXNXNXNXNXNXNXNXNXNXNXNXNXNXNXNXNXNXNXNXNXNXNXNXNXNXNXNXNX",
"NXNXNXNXNXNXNXNXNXNXNXNXNXNXNXNXNXNXNXNXNXNXNXNXNXNXNXvXzXsX-Xm.k.s.s.s.s.l.k.k.v.v.v.v.v.k.x.m.$XsXvXNXNXNXNXNXNXNXNXNXNXNXNXNXNXNXNXNXNXNXNXNXNXNXNXNXNXNXNXNX",
"NXNXNXNXNXNXNXNXNXNXNXNXNXNXNXNXNXNXNXNXNXNXNXNXNXNXNXNXNXNXvXdX1X>X$Xm.b.x.j.j.j.v.b.m.B.$X1XdXkXNXNXNXNXNXNXNXNXNXNXNXNXNXNXNXNXNXNXNXNXNXNXNXNXNXNXNXNXNXNXNX",
"NXNXNXNXNXNXNXNXNXNXNXNXNXNXNXNXNXNXNXNXNXNXNXNXNXNXNXNXNXNXNXNXNXNXvXvXvXzXzXzXdXzXkXvXvXNXNXNXNXNXNXNXNXNXNXNXNXNXNXNXNXNXNXNXNXNXNXNXNXNXNXNXNXNXNXNXNXNXNXNX",
"NXNXNXNXNXNXNXNXNXNXNXNXNXNXNXNXNXNXNXNXNXNXNXNXNXNXNXNXNXNXNXNXNXNXNXNXNXNXNXNXNXNXNXNXNXNXNXNXNXNXNXNXNXNXNXNXNXNXNXNXNXNXNXNXNXNXNXNXNXNXNXNXNXNXNXNXNXNXNXNX",
"NXNXNXNXNXNXNXNXNXNXNXNXNXNXNXNXNXNXNXNXNXNXNXNXNXNXNXNXNXNXNXNXNXNXNXNXNXNXNXNXNXNXNXNXNXNXNXNXNXNXNXNXNXNXNXNXNXNXNXNXNXNXNXNXNXNXNXNXNXNXNXNXNXNXNXNXNXNXNXNX",
"NXNXNXNXNXNXNXNXNXNXNXNXNXNXNXNXNXNXNXNXNXNXNXNXNXNXNXNXNXNXNXNXNXNXNXNXNXNXNXNXNXNXNXNXNXNXNXNXNXNXNXNXNXNXNXNXNXNXNXNXNXNXNXNXNXNXNXNXNXNXNXNXNXNXNXNXNXNXNXNX",
"NXNXNXNXNXNXNXNXNXNXNXNXNXNXNXNXNXNXNXNXNXNXNXNXNXNXNXNXNXNXNXNXNXNXNXNXNXNXNXNXNXNXNXNXNXNXNXNXNXNXNXNXNXNXNXNXNXNXNXNXNXNXNXNXNXNXNXNXNXNXNXNXNXNXNXNXNXNXNXNX",
"NXNXNXNXNXNXNXNXNXNXNXNXNXNXNXNXNXNXNXNXNXNXNXNXNXNXNXNXNXNXNXNXNXNXNXNXNXNXNXNXNXNXNXNXNXNXNXNXNXNXNXNXNXNXNXNXNXNXNXNXNXNXNXNXNXNXNXNXNXNXNXNXNXNXNXNXNXNXNXNX",
"NXNXNXNXNXNXNXNXNXNXNXNXNXNXNXNXNXNXNXNXNXNXNXNXNXNXNXNXNXNXNXNXNXNXNXNXNXNXNXNXNXNXNXNXNXNXNXNXNXNXNXNXNXNXNXNXNXNXNXNXNXNXNXNXNXNXNXNXNXNXNXNXNXNXNXNXNXNXNXNX",
"NXNXNXNXNXNXNXNXNXNXNXNXNXNXNXNXNXNXNXNXNXNXNXNXNXNXNXNXNXNXNXNXNXNXNXNXNXNXNXNXNXNXNXNXNXNXNXNXNXNXNXNXNXNXNXNXNXNXNXNXNXNXNXNXNXNXNXNXNXNXNXNXNXNXNXNXNXNXNXNX",
"NXNXNXNXNXNXNXNXNXNXNXNXNXNXNXNXNXNXNXNXNXNXNXNXNXNXNXNXNXNXNXNXNXNXNXNXNXNXNXNXNXNXNXNXNXNXNXNXNXNXNXNXNXNXNXNXNXNXNXNXNXNXNXNXNXNXNXNXNXNXNXNXNXNXNXNXNXNXNXNX",
"NXNXNXNXNXNXNXNXNXNXNXNXNXNXNXNXNXNXNXNXNXNXNXNXNXNXNXNXNXNXNXNXNXNXNXNXNXNXNXNXNXNXNXNXNXNXNXNXNXNXNXNXNXNXNXNXNXNXNXNXNXNXNXNXNXNXNXNXNXNXNXNXNXNXNXNXNXNXNXNX"
};
