/* XPM */
static char *result[] = {
/* columns rows colors chars-per-pixel */
"80 80 2 1 ",
"  c black",
". c None",
/* pixels */
"................................................................................",
"................................................................................",
"................................................................................",
"................................................................................",
"................................................................................",
"................................................................................",
"................................................................................",
"................................................................................",
"................................................................................",
"................................................................................",
"................................................................................",
"................................................................................",
"..............................             .......             .             ...",
".............................              .......            ..             ...",
"............................              ........           ...             ...",
"...........................              .........          ....             ...",
"..........................              ..........         .....             ...",
".........................              ...........        ......             ...",
"........................              ............       .......             ...",
".......................              .............      ........             ...",
"......................              ..............     .........             ...",
".....................              ...............    ..........             ...",
"....................              ................   ...........             ...",
"...................              .................  ............             ...",
"..................              ..................  ............             ...",
".................              ................... .............             ...",
"................              .................................              ...",
"...............              .................................              ....",
"..............              .................................              .....",
".............              .................................              ......",
"............              .................................              .......",
"...........              .................................              ........",
"..........              .................................              .........",
".........              .................................              ..........",
"........              .................................              ...........",
".......              .................................              ............",
"......              .................................              .............",
".....              .................................              ..............",
"....              .................................              ...............",
"...              .................................              ................",
"...                                         ......              ................",
"...                                         ......              ............ ...",
"...                                         ......              ...........  ...",
"...                                         ......              ..........   ...",
"...                                         ......              .........    ...",
"...                                         ......              ........     ...",
"...                                         ......              .......      ...",
"...                                         ......              ......       ...",
"...                                         ......              .....        ...",
"...                                         ......              ....         ...",
"...                                         ......              ...          ...",
"..............................              ......              ..           ...",
"..............................              ......              .            ...",
"..............................              ......             .             ...",
"..............................              ....................................",
"..............................              ....................................",
"..............................              ....................................",
"..............................              ....................................",
"..............................              ....................................",
"..............................              ....................................",
"..............................              ....................................",
"..............................              ....................................",
"..............................              ....................................",
"..............................              ....................................",
"..............................              ....................................",
"................................................................................",
"................................................................................",
"................................................................................",
"................................................................................",
"................................................................................",
"................................................................................",
"................................................................................",
"................................................................................",
"................................................................................",
"................................................................................",
"................................................................................",
"................................................................................",
"................................................................................",
"................................................................................",
"................................................................................"
};
