/* XPM */
static char *a5de3b850d574e1bf5fa42e652e2333cBwuuIRoEZxHGTE3E[] = {
/* columns rows colors chars-per-pixel */
"80 80 81 1 ",
"  c #0263A8",
". c #006FB9",
"X c #017CC2",
"o c #017DC7",
"O c #0385B6",
"+ c #0080CE",
"@ c #0081D4",
"# c #0088D0",
"$ c #008BD3",
"% c #0488D3",
"& c #0286DB",
"* c #028BD9",
"= c #028BDB",
"- c #008ED8",
"; c #028DDE",
": c #098CDC",
"> c #0390D7",
", c #0092DB",
"< c #0295DB",
"1 c #0193DE",
"2 c #0396DC",
"3 c #0097DE",
"4 c #0D9CDE",
"5 c #1193DE",
"6 c #0193E0",
"7 c #0096E3",
"8 c #0199E4",
"9 c #029AE6",
"0 c #0E98E3",
"q c #089CE2",
"w c #019FE8",
"e c #059DE8",
"r c #0098EE",
"t c #1F9AE0",
"y c #0080FF",
"u c #059BF2",
"i c #0DA0E6",
"p c #00A1E8",
"a c #03A1EB",
"s c #08A4EE",
"d c #12A2E9",
"f c #13A1EB",
"g c #16A6EC",
"h c #1BA4EC",
"j c #10A8EB",
"k c #0FA5F2",
"l c #01ADF7",
"z c #1EAAF5",
"x c #08B5F7",
"c c #00B0FB",
"v c #28A8E5",
"b c #28A2ED",
"n c #2AAAEB",
"m c #3BA0E6",
"M c #30A7E9",
"N c #32A9ED",
"B c #37A8EC",
"V c #23B1EF",
"C c #3EB2EF",
"Z c #53B1EE",
"A c #40B2F0",
"S c #43B3F2",
"D c #4CB4F1",
"F c #53BBFF",
"G c #53BCFD",
"H c #42C3FD",
"J c #4AC2FE",
"K c #43C8FF",
"L c #5CCEFF",
"P c #59D8FF",
"I c #64C2F8",
"U c #67C4FD",
"Y c #68C6FC",
"T c #6CE2FF",
"R c #76E1FF",
"E c #95EAFE",
"W c #97EEFF",
"Q c #97F3FF",
"! c #A5FCFF",
"~ c #D8FAFF",
"^ c #F2FFFF",
/* pixels */
"yyyyyyyyyyyyyyyy........        !!!!!!!!FFFFFFFFaaaaaaaayyyyyyyyggggggggyyyyyyyy",
"yyyyyyyyyyyyyyyy........        !!!!!!!!FFFFFFFFaaaaaaaayyyyyyyyggggggggyyyyyyyy",
"yyyyyyyyyyyyyyyy........        !!!!!!!!FFFFFFFFaaaaaaaayyyyyyyyggggggggyyyyyyyy",
"yyyyyyyyyyyyyyyy........        !!!!!!!!FFFFFFFFaaaaaaaayyyyyyyyggggggggyyyyyyyy",
"yyyyyyyyyyyyyyyy........        !!!!!!!!FFFFFFFFaaaaaaaayyyyyyyyggggggggyyyyyyyy",
"yyyyyyyyyyyyyyyy........        !!!!!!!!FFFFFFFFaaaaaaaayyyyyyyyggggggggyyyyyyyy",
"yyyyyyyyyyyyyyyy........        !!!!!!!!FFFFFFFFaaaaaaaayyyyyyyyggggggggyyyyyyyy",
"yyyyyyyyyyyyyyyy........        !!!!!!!!FFFFFFFFaaaaaaaayyyyyyyyggggggggyyyyyyyy",
"yyyyyyyy%%%%%%%%77777777yyyyyyyyOOOOOOOOmmmmmmmmPPPPPPPPyyyyyyyy::::::::XXXXXXXX",
"yyyyyyyy%%%%%%%%77777777yyyyyyyyOOOOOOOOmmmmmmmmPPPPPPPPyyyyyyyy::::::::XXXXXXXX",
"yyyyyyyy%%%%%%%%77777777yyyyyyyyOOOOOOOOmmmmmmmmPPPPPPPPyyyyyyyy::::::::XXXXXXXX",
"yyyyyyyy%%%%%%%%77777777yyyyyyyyOOOOOOOOmmmmmmmmPPPPPPPPyyyyyyyy::::::::XXXXXXXX",
"yyyyyyyy%%%%%%%%77777777yyyyyyyyOOOOOOOOmmmmmmmmPPPPPPPPyyyyyyyy::::::::XXXXXXXX",
"yyyyyyyy%%%%%%%%77777777yyyyyyyyOOOOOOOOmmmmmmmmPPPPPPPPyyyyyyyy::::::::XXXXXXXX",
"yyyyyyyy%%%%%%%%77777777yyyyyyyyOOOOOOOOmmmmmmmmPPPPPPPPyyyyyyyy::::::::XXXXXXXX",
"yyyyyyyy%%%%%%%%77777777yyyyyyyyOOOOOOOOmmmmmmmmPPPPPPPPyyyyyyyy::::::::XXXXXXXX",
"&&&&&&&&uuuuuuuu66666666sssssssswwwwwwwwHHHHHHHHapppppppooooooooyyyyyyyy$#######",
"&&&&&&&&uuuuuuuu66666666sssssssswwwwwwwwHHHHHHHHapppppppooooooooyyyyyyyy+$######",
"&&&&&&&&uuuuuuuu66666666sssssssswwwwwwwwHHHHHHHHppppppppooooooooyyyyyyyy########",
"&&&&&&&&uuuuuuuu66666666sssssssswwwwwwwwHHHHHHHHppppppppooooooooyyyyyyyy########",
"&&&&&&&&uuuuuuuu66666666sssssssswwwwwwwwHHHHHHHHppppppppooooooooyyyyyyyy########",
"&&&&&&&&uuuuuuuu66666666sssssssswwwwwwwwHHHHHHHHppppppppooooooooyyyyyyyy########",
"&&&&&&&&uuuuuuuu66666666sssssssswwwwwwwwHHHHHHHHppppppppooooooooyyyyyyyy########",
"&&&&&&&&uuuuuuuu66666666sssssssswwwwwwwwHHHHHHHHppppppppooooooooyyyyyyoo########",
"yyyyyyyyGGGGGGGGrrrrrrrrVVVVVVVVTTTTTTTT>>>>>>>>vvvvvvvvzzzzzzzz2,,,2,,2yyyyyyyy",
"yyyyyyyyGGGGGGGGrrrrrrrrVVVVVVVVTTTTTTTT>>>>>>>>vvvvvvvvzzzzzzzz,>2,2,,,yyyyyyyy",
"yyyyyyyyGGGGGGGGrrrrrrrrVVVVVVVVTTTTTTTT>>>>>>>>vvvvvvvvzzzzzzzz,2,2>,,,yyyyyyyy",
"yyyyyyyyGGGGGGGGrrrrrrrrVVVVVVVVTTTTTTTT>>>>>>>>vvvvvvvvzzzzzzzz,,,,,22,yyyyyyyy",
"yyyyyyyyGGGGGGGGrrrrrrrrVVVVVVVVTTTTTTTT>>>>>>>>vvvvvvvvzzzzzzzz,2,,>222yyyyyyyy",
"yyyyyyyyGGGGGGGGrrrrrrrrVVVVVVVVTTTTTTTT>>>>>>>>vvvvvvvvzzzzzzzz>2,2,,,<yyyyyyyy",
"yyyyyyyyGGGGGGGGrrrrrrrrVVVVVVVVTTTTTTTT>>>>>>>>vvvvvvvvzzzzzzzz,,,,2,>2yyyyyyyy",
"yyyyyyyyGGGGGGGGrrrrrrrrVVVVVVVVTTTTTTTT>>>>>>>>vvvvvvvvzzzzzzzz2,,,2,>2yyyyyyyy",
"********yyyyyyyykkkkkkkk;6161616KKKKKKKKMMMMMMMMdfffffff;;;;;;;;BBBBBBBByyyyyyyy",
"********yyyyyyyykkkkkkkk616;6;61KKKKKKKKMMMMMMMMdfffffff;;;;;;;;BBBBBBBByyyyyyyy",
"********yyyyyyyykkkkkkkk161616;6KKKKKKKKMMMMMMMMffffffff;;;;;;;;BBBBBBBByyyyyyyy",
"********yyyyyyyykkkkkkkk61616;61KKKKKKKKMMMMMMMMffffffff;;;;;;;;BBBBBBBByyyyyyyy",
"********yyyyyyyykkkkkkkk;61616;6KKKKKKKKMMMMMMMMffffffff;;;;;;;;BBBBBBBByyyyyyyy",
"********yyyyyyyykkkkkkkk616;6161KKKKKKKKMMMMMMMMffffffff;;;;;;;;BBBBBBBByyyyyyyy",
"********yyyyyyyokkkkkkkk1616;617KKKKKKKKMMMMMMMMffffffff;;;;;;;;BBBBBBBByyyyyyyy",
"********yyyyyyyokkkkkkkk6;611111KKKKKKKKMMMMMMMMffffffff;;;;;;;;BBBBBBBByyyyyyyy",
"yyyyyyyy55555555bbbbbbbb222222221111111144444444EEEEEEEEqdiiiiiiyyyyyyyyQQQQQQQQ",
"yyyyyyyy55555555bbbbbbbb222222221111111144444444EEEEEEEEdqiiiiiiyyyyyyyyQQQQQQQQ",
"yyyyyyyy55555555bbbbbbbb222222221111111144444444EEEEEEEEiiiiiiiiyyyyyyyyQQQQQQQQ",
"yyyyyyyy55555555bbbbbbbb222222221111111144444444EEEEEEEEiiiiiiiiyyyyyyyyQQQQQQQQ",
"yyyyyyyy55555555bbbbbbbb222222221111111144444444EEEEEEEEiiiiiiiiyyyyyyyyQQQQQQQQ",
"yyyyyyyy55555555bbbbbbbb222222221111111144444444EEEEEEEEiiiiiiiiyyyyyyyyQQQQQQQQ",
"yyyyyyyy55555555bbbbbbbb222222221111111144444444EEEEEEEEiiiiiiiiyyyyyyyyQQQQQQQQ",
"yyyyyyyy55555555bbbbbbbb222222221111111144444444EEEEEEEEiiiiiiiiyyyyyyyyQQQQQQQQ",
"IIIIIIIIZZZZZZZZNNNNNNNNCCCCCCCCxxxxxxxx8888888833333333AAAAAAAAJJJJJJJJ+yyyyyyy",
"IIIIIIIIZZZZZZZZNNNNNNNNCCCCCCCCxxxxxxxx8888888833333333AAAAAAAAJJJJJJJJyyyyyyyy",
"IIIIIIIIZZZZZZZZNNNNNNNNCCCCCCCCxxxxxxxx8888888833333333AAAAAAAAJJJJJJJJyyyyyyyy",
"IIIIIIIIZZZZZZZZNNNNNNNNCCCCCCCCxxxxxxxx8888888833333333AAAAAAAAJJJJJJJJyyyyyyyy",
"IIIIIIIIZZZZZZZZNNNNNNNNCCCCCCCCxxxxxxxx8888888833333333AAAAAAAAJJJJJJJJyyyyyyyy",
"IIIIIIIIZZZZZZZZNNNNNNNNCCCCCCCCxxxxxxxx8888888833333333AAAAAAAAJJJJJJJJyyyyyyyy",
"IIIIIIIIZZZZZZZZNNNNNNNNCCCCCCCCxxxxxxxx8888888833333333AAAAAAAAJJJJJJJJyyyyyyyy",
"IIIIIIIIZZZZZZZZNNNNNNNNCCCCCCCCxxxxxxxx8888888833333333AAAAAAAAJJJJJJJJyyyyyyyy",
"++++++++YYYYYYYYWWWWWWWWhhhhhhhhDDDDDDDDeeeeeeeeRRRRRRRRlllllllltttttttt$$$$$$$$",
"++++++++YYYYYYYYWWWWWWWWhhhhhhhhDDDDDDDDeeeeeeeeRRRRRRRRlllllllltttttttt$$$$$$$$",
"++++++++YYYYYYYYWWWWWWWWhhhhhhhhDDDDDDDDeeeeeeeeRRRRRRRRlllllllltttttttt$$$$$$$$",
"++++++++YYYYYYYYWWWWWWWWhhhhhhhhDDDDDDDDeeeeeeeeRRRRRRRRlllllllltttttttt$$$$$$$$",
"++++++++YYYYYYYYWWWWWWWWhhhhhhhhDDDDDDDDeeeeeeeeRRRRRRRRlllllllltttttttt$$$$$$$$",
"++++++++YYYYYYYYWWWWWWWWhhhhhhhhDDDDDDDDeeeeeeeeRRRRRRRRlllllllltttttttt$$$$$$$$",
"++++++++YYYYYYYYWWWWWWWWhhhhhhhhDDDDDDDDeeeeeeeeRRRRRRRRlllllllltttttttt$$$$$$$$",
"++++++++YYYYYYYYWWWWWWWWhhhhhhhhDDDDDDDDeeeeeeeeRRRRRRRRllllllllttttttt5$$$$$$$*",
"ASSSSSSS<<<<<<<<>,,,,,,,yyyyyyyyccccccccqqqqqqqqYUUUUUUULLLLLLLLdddddddd========",
"SSSSSSSS<<<<<<<<,,,,,,,,yyyyyyyyccccccccqqqqqqqqUUUUUUUULLLLLLLLdddddddd========",
"SSSSSSSS<<<<<<<<,,,,,,,,yyyyyyyyccccccccqqqqqqqqUUUUUUUULLLLLLLLdddddddd========",
"SSSSSSSS<<<<<<<<,,,,,,,,yyyyyyyyccccccccqqqqqqqqUUUUUUUULLLLLLLLdddddddd========",
"SSSSSSSS<<<<<<22,,,,,,,,yyyyyyyyccccccccqqqqqqqqUUUUUUUULLLLLLLLdddddddd========",
"SSSSSSSS<<<<<<22,,,,,,,,yyyyyyyyccccccccqqqqqqqqUUUUUUUULLLLLLLLdddddddd========",
"SSSSSSSS<<<<<<12,,,,,,,,yyyyyyyyccccccccqqqqqqqqUUUUUUUULLLLLLLLdddddddd======*=",
"SSSSSSSS<<<<<<12,,,,,,,,yyyyyyyyccccccccqqqqqqqqUUUUUUUULLLLLLLLdddddddd======**",
"yyyyyyyy88999999yyyyyyyy^^^^^^^^jjjjjjjjnnnnnnnn00000000~~~~~~~~--------@@@@@@@@",
"yyyyyyyy8e999999yyyyyyyy^^^^^^^^jjjjjjjjnnnnnnnn00000000~~~~~~~~--------@@@@@@@@",
"yyyyyyyy99999999yyyyyyyy^^^^^^^^jjjjjjjjnnnnnnnn00000000~~~~~~~~--------@@@@@@@@",
"yyyyyyyy99999999yyyyyyyy^^^^^^^^jjjjjjjjnnnnnnnn00000000~~~~~~~~--------@@@@@@@@",
"yyyyyyyy99999999yyyyyyyy^^^^^^^^jjjjjjjjnnnnnnnn00000000~~~~~~~~--------@@@@@@@@",
"yyyyyyyy99999999yyyyyyyy^^^^^^^^jjjjjjjjnnnnnnnn00000000~~~~~~~~--------@@@@@@@@",
"yyyyyyyy99999999yyyyyyyy^^^^^^^^jjjjjjjjnnnnnnnn00000000~~~~~~~~--------@@@@@@@@",
"yyyyyyyy99999999yyyyyyyy^^^^^^^^jjjjjjjjnnnnnnnn00000000~~~~~~~~--------@@@@@@@@"
};
