/* XPM */
static char *result[] = {
/* columns rows colors chars-per-pixel */
"80 80 22 1 ",
"  c black",
". c gray19",
"X c #384048",
"o c gray25",
"O c #49494D",
"+ c #784040",
"@ c #6D4B50",
"# c #605850",
"$ c #606060",
"% c #89756B",
"& c #887868",
"* c #4D962F",
"= c #508830",
"- c #DC9A19",
"; c #88B070",
": c #CF966F",
"> c #D8A078",
", c #B1B1B1",
"< c #F8D0B8",
"1 c #C0B4C3",
"2 c #D7D7D7",
"3 c None",
/* pixels */
"33333333333333333333333333333333333333333333333333333333333333333333333333333333",
"33333333333333333333333333333333333333333333333333333333333333333333333333333333",
"33333333333333333333333333333333333333333333333333333333333333333333333333333333",
"33333333333333333333333333333333333333333333333333333333333333333333333333333333",
"33333333333333333333333333333333333333333333333333333333333333333333333333333333",
"33333333333333333333333333333333333333333333333333333333333333333333333333333333",
"33333333333333333333333333333333333333333333333333333333333333333333333333333333",
"33333333333333333333333333333333333333333333333333333333333333333333333333333333",
"33333333333333333333333333333333333333333333333333333333333333333333333333333333",
"33333333333333333333333333333333333333333333333333333333333333333333333333333333",
"333333333333333333333333333333333333..........3333333333333333333333333333333333",
"333333333333333333333333333333333333..........3333333333333333333333333333333333",
"33333333333333333333333333333333....##&&&&&&##....333333333333333333333333333333",
"33333333333333333333333333333333....##&&&&&&##....333333333333333333333333333333",
"333333333333333333333333333333  ##&&&&&&OO&&&&&&##  3333333333333333333333333333",
"333333333333333333333333333333  ##&&&&&&OO&&&&&&##  3333333333333333333333333333",
"3333333333333333333333333333  oo&&&&&&&&##&&&&&&&&oo  33333333333333333333333333",
"3333333333333333333333333333  oo&&&&&&&&##&&&&&&&&oo  33333333333333333333333333",
"3333333333333333333333333333  oo&&&&&&&&&&&&&&&&&&oo  33333333333333333333333333",
"3333333333333333333333333333  oo&&&&&&&&&&&&&&&&&&oo  33333333333333333333333333",
"33333333333333333333333333  oooo##&&&&&&&&&&&&&&##oooo  333333333333333333333333",
"33333333333333333333333333  oooo##&&&&&&&&&&&&&&##oooo  333333333333333333333333",
"33333333333333333333333333  oooooo##,,222222,,##oooooo  333333333333333333333333",
"33333333333333333333333333  oooooo##,,222222,,##oooooo  333333333333333333333333",
"333333333333333333333333XX  oooo##,,2222222222,,##oooo  XX3333333333333333333333",
"333333333333333333333333XX  oooo##,,2222222222,,##oooo  XX3333333333333333333333",
"3333333333333333333333XX;;....oo##,,2222222222,,##oo....;;XX33333333333333333333",
"3333333333333333333333XX;;....oo##,,2222222222,,##oo....;;XX33333333333333333333",
"33333333333333333333  ;;;;==......&&2222222222&&......==;;;;  333333333333333333",
"33333333333333333333  ;;;;==......&&2222222222&&......==;;;;  333333333333333333",
"3333333333333333333333  ==;;  oooo..............oooo  ;;==  33333333333333333333",
"3333333333333333333333  ==;;  oooo..............oooo  ;;==  33333333333333333333",
"333333333333333333333333XX;;==  oo##&&&&&&&&&&##oo  ==;;XX3333333333333333333333",
"333333333333333333333333XX;;==  oo##&&&&&&&&&&##oo  ==;;XX3333333333333333333333",
"333333333333333333333333XX  >>==    &&&&&&&&&&    ==>>  XX3333333333333333333333",
"333333333333333333333333XX  >>==    &&&&&&&&&&    ==>>  XX3333333333333333333333",
"33333333333333333333333333  %%==>>11..........11>>==%%  333333333333333333333333",
"33333333333333333333333333  %%==>>11..........11>>==%%  333333333333333333333333",
"3333333333333333333333333333XX==>>11$$>>**>>$$11>>==XX33333333333333333333333333",
"3333333333333333333333333333XX==>>11$$>>**>>$$11>>==XX33333333333333333333333333",
"3333333333333333333333333333XX;;==>><<<<<<<<<<>>==;;XX33333333333333333333333333",
"3333333333333333333333333333XX;;==>><<<<<<<<<<>>==;;XX33333333333333333333333333",
"333333333333333333333333333333  ++>><<<<>><<<<>>++  3333333333333333333333333333",
"333333333333333333333333333333  ++>><<<<>><<<<>>++  3333333333333333333333333333",
"3333333333333333333333333333  ,,,,  ++>>>>>>++  ,,,,  33333333333333333333333333",
"3333333333333333333333333333  ,,,,  ++>>>>>>++  ,,,,  33333333333333333333333333",
"33333333333333333333333333  22,,,,,,$$++++++$$,,,,,,22  333333333333333333333333",
"33333333333333333333333333  22,,,,,,$$++++++$$,,,,,,22  333333333333333333333333",
"333333333333333333333333++<<$$22  2222$$11$$2222  22$$<<++3333333333333333333333",
"333333333333333333333333++<<$$22  2222$$11$$2222  22$$<<++3333333333333333333333",
"333333333333333333333333++>>>>  ,,222222--222222--  >>>>++3333333333333333333333",
"333333333333333333333333++>>>>  ,,222222--222222--  >>>>++3333333333333333333333",
"33333333333333333333333333++++  @@@@2222222222@@@@  ++++333333333333333333333333",
"33333333333333333333333333++++  @@@@2222222222@@@@  ++++333333333333333333333333",
"333333333333333333333333333333  ::::@@@@@@@@@@::::  3333333333333333333333333333",
"333333333333333333333333333333  ::::@@@@@@@@@@::::  3333333333333333333333333333",
"333333333333333333333333333333    @@::::@@::::@@    3333333333333333333333333333",
"333333333333333333333333333333    @@::::@@::::@@    3333333333333333333333333333",
"333333333333333333333333333333  ====          ====  3333333333333333333333333333",
"333333333333333333333333333333  ====          ====  3333333333333333333333333333",
"33333333333333333333333333333333    3333333333    333333333333333333333333333333",
"33333333333333333333333333333333    3333333333    333333333333333333333333333333",
"33333333333333333333333333333333333333333333333333333333333333333333333333333333",
"33333333333333333333333333333333333333333333333333333333333333333333333333333333",
"33333333333333333333333333333333333333333333333333333333333333333333333333333333",
"33333333333333333333333333333333333333333333333333333333333333333333333333333333",
"33333333333333333333333333333333333333333333333333333333333333333333333333333333",
"33333333333333333333333333333333333333333333333333333333333333333333333333333333",
"33333333333333333333333333333333333333333333333333333333333333333333333333333333",
"33333333333333333333333333333333333333333333333333333333333333333333333333333333",
"33333333333333333333333333333333333333333333333333333333333333333333333333333333",
"33333333333333333333333333333333333333333333333333333333333333333333333333333333",
"33333333333333333333333333333333333333333333333333333333333333333333333333333333",
"33333333333333333333333333333333333333333333333333333333333333333333333333333333",
"33333333333333333333333333333333333333333333333333333333333333333333333333333333",
"33333333333333333333333333333333333333333333333333333333333333333333333333333333",
"33333333333333333333333333333333333333333333333333333333333333333333333333333333",
"33333333333333333333333333333333333333333333333333333333333333333333333333333333",
"33333333333333333333333333333333333333333333333333333333333333333333333333333333",
"33333333333333333333333333333333333333333333333333333333333333333333333333333333"
};
