/* XPM */
static char *result[] = {
/* columns rows colors chars-per-pixel */
"80 80 191 2 ",
"   c #130E0E",
".  c #14130F",
"X  c #0F0E12",
"o  c #150F10",
"O  c #141314",
"+  c #1B1514",
"@  c #161917",
"#  c #1B1815",
"$  c #161619",
"%  c #19171A",
"&  c #16181A",
"*  c #19191B",
"=  c #201613",
"-  c #241A16",
";  c #2A1D17",
":  c #251C1A",
">  c #2A1E1B",
",  c #301F1A",
"<  c #27221D",
"1  c #2D221D",
"2  c #31241C",
"3  c #1D1D21",
"4  c #271E21",
"5  c #2A1F24",
"6  c #262122",
"7  c #2D2422",
"8  c #2D2825",
"9  c #2E2728",
"0  c #2D2A2B",
"q  c #312321",
"w  c #332926",
"e  c #31272A",
"r  c #342B2D",
"t  c #3A2E2A",
"y  c #3C2B25",
"u  c #33312E",
"i  c #3B312E",
"p  c #342D31",
"a  c #392F31",
"s  c #363133",
"d  c #3B3234",
"f  c #3A3538",
"g  c #44332D",
"h  c #4B3C34",
"j  c #473C3B",
"k  c #493D3B",
"l  c #463734",
"z  c #55443C",
"x  c #59423D",
"c  c #564437",
"v  c #4D3E41",
"b  c #1E424C",
"n  c #1B556A",
"m  c #1C6072",
"M  c #4F4144",
"N  c #514543",
"B  c #5B4B43",
"V  c #53474B",
"C  c #57595B",
"Z  c #62524A",
"A  c #6E584F",
"S  c #6B5952",
"D  c #735E55",
"F  c #745F59",
"G  c #75615A",
"H  c #7C665F",
"J  c #756255",
"K  c #776862",
"L  c #6D7372",
"P  c #7C7676",
"I  c #836A5E",
"U  c #846D64",
"Y  c #8A6E63",
"T  c #8B7265",
"R  c #8D746A",
"E  c #8B7567",
"W  c #917565",
"Q  c #957A6C",
"!  c #97776E",
"~  c #8C7974",
"^  c #807772",
"/  c #957D71",
"(  c #997D71",
")  c #9D8172",
"_  c #9C857B",
"`  c #95807D",
"'  c #A58675",
"]  c #A1877C",
"[  c #A58B7C",
"{  c #AA8B7C",
"}  c #A88874",
"|  c #B28E7B",
" . c #B4907E",
".. c #B8957E",
"X. c #2B6C83",
"o. c #1991B7",
"O. c #268DB3",
"+. c #3B96BB",
"@. c #668A9C",
"#. c #758694",
"$. c #5A8CA4",
"%. c #5891AA",
"&. c #5995B3",
"*. c #4993B8",
"=. c #6A8FAB",
"-. c #758EA0",
";. c #6993AA",
":. c #239DCA",
">. c #369DC9",
",. c #1EA0CD",
"<. c #1EA9DB",
"1. c #2AA3CC",
"2. c #36A1CB",
"3. c #21A9DB",
"4. c #2DADDD",
"5. c #1FAFE4",
"6. c #1FBAFD",
"7. c #26ACE1",
"8. c #22B6ED",
"9. c #25B3E8",
"0. c #23BAF6",
"q. c #20BBFD",
"w. c #24B9F5",
"e. c #878686",
"r. c #998A86",
"t. c #95918B",
"y. c #8C8E92",
"u. c #9E9497",
"i. c #A58C82",
"p. c #AD8C82",
"a. c #A38B8A",
"s. c #B38F80",
"d. c #AC9283",
"f. c #A5928B",
"g. c #AA948C",
"h. c #B39483",
"j. c #BA9583",
"k. c #BB9A86",
"l. c #B4968B",
"z. c #BD9B8A",
"x. c #B3988C",
"c. c #A38D90",
"v. c #B39C93",
"b. c #BC9F94",
"n. c #AB9795",
"m. c #B7A296",
"M. c #C29B85",
"N. c #C49E8B",
"B. c #CE9F8B",
"V. c #C39E90",
"C. c #C5A38D",
"Z. c #CCA48C",
"A. c #CFA88E",
"S. c #D2A98D",
"D. c #C3A191",
"F. c #CBA493",
"G. c #CBAB94",
"H. c #CDA69B",
"J. c #CDAB9A",
"K. c #C6AB9B",
"L. c #D3A695",
"P. c #D4AB94",
"I. c #D4AD9C",
"U. c #D9AF9A",
"Y. c #DAAD93",
"T. c #D7B19D",
"R. c #DCB29B",
"E. c #DBB49A",
"W. c #E0AE91",
"Q. c #E2B296",
"!. c #E3B59C",
"~. c #E8B69D",
"^. c #EDBC9E",
"/. c #E7BA9D",
"(. c #F2BD9D",
"). c #F7BC97",
"_. c #D9AFA1",
"`. c #DDB4A3",
"'. c #D7B1A0",
"]. c #E5B5A1",
"[. c #E5BAA3",
"{. c #EDBDA2",
"}. c #EDBEA9",
"|. c #F2BEA1",
" X c #F0BEAB",
".X c #EEC09F",
"XX c #F3C09F",
"oX c #ECC0A4",
"OX c #EAC1AB",
"+X c #F2C0A0",
"@X c None",
/* pixels */
"@X@X@X@X@X@X@X@X@X@X@X@X@X@X@X@X@X@X@X@X@X@X@X@X@X@X@X@X@X@X@X@X@X@X@X@X@X@X@X@X@X@X@X@X@X@X@X@X@X@X@X@X@X@X@X@X@X@X@X@X@X@X@X@X@X@X@X@X@X@X@X@X@X@X@X@X@X@X@X@X",
"@X@X@X@X@X@X@X@X@X@X@X@X@X@X@X@X@X@X@X@X@X@X@X@X@X@X@X@X@X@X@X@X@X@X@X@X@X@X@X@X@X@X@X@X@X@X@X@X@X@X@X@X@X@X@X@X@X@X@X@X@X@X@X@X@X@X@X@X@X@X@X@X@X@X@X@X@X@X@X@X",
"@X@X@X@X@X@X@X@X@X@X@X@X@X@X@X@X@X@X@X@X@X@X@X@X@X@X@X@X@X@X@X@X@X@X@X@X@X@X@X@X@X@X@X@X@X@X@X@X@X@X@X@X@X@X@X@X@X@X@X@X@X@X@X@X@X@X@X@X@X@X@X@X@X@X@X@X@X@X@X@X",
"@X@X@X@X@X@X@X@X@X@X@X@X@X@X@X@X@X@X@X@X@X@X@X@X@X@X@X@X@X@X@X@X@X@X@X@X@X@X@X@X@X@X@X@X@X@X@X@X@X@X@X@X@X@X@X@X@X@X@X@X@X@X@X@X@X@X@X@X@X@X@X@X@X@X@X@X@X@X@X@X",
"@X@X@X@X@X@X@X@X@X@X@X@X@X@X@X@X@X@X@X@X@X@X@X@X@X@X@X@X@X@X@X@X@X@X@X@X@X@X@X@X@X@X@X@X@X@X@X@X@X@X@X@X@X@X@X@X@X@X@X@X@X@X@X@X@X@X@X@X@X@X@X@X@X@X@X@X@X@X@X@X",
"@X@X@X@X@X@X@X@X@X@X@X@X@X@X@X@X@X@X@X@X@X@X@X@X@X@X@X@X@X@X@X@X@X@X@X@X@X@X@X@X@X@X@X@X@X@X@X@X@X@X@X@X@X@X@X@X@X@X@X@X@X@X@X@X@X@X@X@X@X@X@X@X@X@X@X@X@X@X@X@X",
"@X@X@X@X@X@X@X@X@X@X@X@X@X@X@X@X@X@X@X@X@X@X@X@X@X@X@X@X@X@X@X@X@X@X@X@X@X@X@Xd r r 7 < < < < < < 7 w r d @X@X@X@X@X@X@X@X@X@X@X@X@X@X@X@X@X@X@X@X@X@X@X@X@X@X@X",
"@X@X@X@X@X@X@X@X@X@X@X@X@X@X@X@X@X@X@X@X@X@X@X@X@X@X@X@X@X@X@X@X@X@X@X@Xe : > 1 1 2 2 2 1 2 2 2 2 2 1 2 1 < < r @X@X@X@X@X@X@X@X@X@X@X@X@X@X@X@X@X@X@X@X@X@X@X@X",
"@X@X@X@X@X@X@X@X@X@X@X@X@X@X@X@X@X@X@X@X@X@X@X@X@X@X@X@X@X@X@X@X@Xa > 1 1 2 2 1 2 2 2 2 2 2 2 2 2 2 2 2 2 2 2 1 : s @X@X@X@X@X@X@X@X@X@X@X@X@X@X@X@X@X@X@X@X@X@X",
"@X@X@X@X@X@X@X@X@X@X@X@X@X@X@X@X@X@X@X@X@X@X@X@X@X@X@X@X@X@X@X@X> 1 1 2 2 2 2 2 2 2 2 2 2 2 2 2 2 2 2 2 2 2 2 2 2 2 w @X@X@X@X@X@X@X@X@X@X@X@X@X@X@X@X@X@X@X@X@X",
"@X@X@X@X@X@X@X@X@X@X@X@X@X@X@X@X@X@X@X@X@X@X@X@X@X@X@X@X@X@Xq 1 2 2 2 2 2 2 2 2 2 2 2 2 2 2 2 2 2 2 2 2 2 2 2 2 2 2 1 w @X@X@X@X@X@X@X@X@X@X@X@X@X@X@X@X@X@X@X@X",
"@X@X@X@X@X@X@X@X@X@X@X@X@X@X@X@X@X@X@X@X@X@X@X@X@X@X@X@X@X5 2 2 2 2 2 2 2 2 2 2 2 2 2 2 2 2 2 2 2 2 2 2 2 2 2 2 2 2 2 1 @X@X@X@X@X@X@X@X@X@X@X@X@X@X@X@X@X@X@X@X",
"@X@X@X@X@X@X@X@X@X@X@X@X@X@X@X@X@X@X@X@X@X@X@X@X@X@X@X@X6 q 2 2 2 2 2 2 2 2 2 2 2 2 2 2 2 2 2 2 2 2 2 2 2 2 2 2 2 2 2 2 < @X@X@X@X@X@X@X@X@X@X@X@X@X@X@X@X@X@X@X",
"@X@X@X@X@X@X@X@X@X@X@X@X@X@X@X@X@X@X@X@X@X@X@X@X@X@X@Xq 2 2 2 2 2 2 2 2 2 2 2 2 2 2 2 2 2 2 2 2 2 2 2 2 2 2 2 2 2 2 2 2 1 w @X@X@X@X@X@X@X@X@X@X@X@X@X@X@X@X@X@X",
"@X@X@X@X@X@X@X@X@X@X@X@X@X@X@X@X@X@X@X@X@X@X@X@X@X@Xa < 2 2 2 2 2 2 2 2 2 2 2 2 2 2 2 2 2 2 2 2 2 2 2 2 2 2 2 2 2 2 2 2 2 ; @X@X@X@X@X@X@X@X@X@X@X@X@X@X@X@X@X@X",
"@X@X@X@X@X@X@X@X@X@X@X@X@X@X@X@X@X@X@X@X@X@X@X@X@X@X< q 2 2 2 2 2 2 2 2 2 2 2 2 2 2 2 2 2 2 q < q c J I Y I J c 1 - 1 2 2 1 f @X@X@X@X@X@X@X@X@X@X@X@X@X@X@X@X@X",
"@X@X@X@X@X@X@X@X@X@X@X@X@X@X@X@X@X@X@X@X@X@X@X@X@X> q 2 2 2 2 2 2 2 2 2 2 2 2 2 2 2 2 2 2 w W B.].+X|.|.XXXXXX+X{.A.} B 1 2 r @X@X@X@X@X@X@X@X@X@X@X@X@X@X@X@X@X",
"@X@X@X@X@X@X@X@X@X@X@X@X@X@X@X@X@X@X@X@X@X@X@X@X@X> 2 2 2 2 2 2 2 2 2 2 2 2 2 2 2 2 1 1 Q !.|.XXXX+X|.+X|.+X|.|.|.(.|.|.M.h e N @X@X@X@X@X@X@X@X@X@X@X@X@X@X@X@X",
"@X@X@X@X@X@X@X@X@X@X@X@X@X@X@X@X@X@X@X@X@X@X@X@X< 2 2 2 2 2 2 2 2 2 2 2 2 2 2 2 2 1 x Z.|.(.+X|.+X+X+X|.+X+X+X|.|.+X|.XX|.L.d v M @X@X@X@X@X@X@X@X@X@X@X@X@X@X@X",
"@X@X@X@X@X@X@X@X@X@X@X@X@X@X@X@X@X@X@X@X@X@X@Xk : 1 2 2 2 2 2 2 2 2 2 2 2 2 2 2 > U /.(.|.XX+X(.|.+X(.+X(.+X|.+X|.(.+X|.|.(.' j v @X@X@X@X@X@X@X@X@X@X@X@X@X@X@X",
"@X@X@X@X@X@X@X@X@X@X@X@X@X@X@X@X@X@X@X@X@X@XV d 1 2 2 2 2 2 2 2 2 2 2 2 2 2 2 2 { ^.(.+XXXXXXXXXXX(.+X+X|.+X+X|.+X+X+X+X|.+X!.l @X@X@X@X@X@X@X@X@X@X@X@X@X@X@X@X",
"@X@X@X@X@X@X@X@X@X@X@X@X@X@X@X@X@X@X@X@X@X@X7 = 2 2 2 2 2 2 2 2 2 2 2 2 2 q 6 | (.(.(.|.+X{.(.XX(.XX(.+X+X|.+X|.|.+X(.(.(.(.|.Y @X@X@X@X@X@X@X@X@X@X@X@X@X@X@X@X",
"@X@X@X@X@X@X@X@X@X@X@X@X@X@X@Xt 7 6 : < : < s - 1 2 2 2 2 2 2 2 2 2 2 2 2 > ' (.(.(.).|.(.P.' Q Q } R.|.+X|.+X+X+X+XZ. .| Z./...@X@X@X@X@X@X@X@X@X@X@X@X@X@X@X@X",
"@X@X@X@X@X@X@X@X@X@X@X@Xs : < 2 2 2 2 2 < 8 d - 2 2 1 : q 5 q q 2 2 2 2 , U {.(.|.|.(.|.} l.!.^.+XE.G.(.|.+X+X|.+X+X^..X/.D.( C.@X@X@X@X@X@X@X@X@X@X@X@X@X@X@X@X",
"@X@X@X@X@X@X@X@X@X@X@X: 2 2 2 2 2 2 2 2 < 8 d - 2 > T U.[.K.Q y 2 2 2 q h ].(.|.|.(.(.W.J.(.XX^..XoXoXXX.X.X^.|.|.|.{. X|.).F.d.@X@X@X@X@X@X@X@X@X@X@X@X@X@X@X@X",
"@X@X@X@X@X@X@X@X@Xr < 2 2 2 2 2 2 2 2 2 1 7 t - 1 @X}.~.p.p.D.'.A 1 2 q ( |.(.(.(.(.^.|.(.(..X].g.-.=.y.G.oX(.(.[.v.;.*.&.u.[.D.@X@X@X@X@X@X@X@X@X@X@X@X@X@X@X@X",
"@X@X@X@X@X@X@X@Xa < 2 2 2 2 2 2 2 2 2 2 > # i - q F |.~.|.|.N.F.[.D 2 q N ].(.(.|.(.(.|.(.|.T.$.8.6.6.q.1.f..X/.#.8.6.6.q.w.%.U @X@X@X@X@X@X@X@X@X@X@X@X@X@X@X@X",
"@X@X@X@X@X@X@X@X> 2 2 2 2 2 2 2 2 2 1 > @X@X7 - 7 @X{.|.(.(.{.] oXT.j q , Y }.|.(.(.(.(.(.{.@.q.6.6.6.6.6.4.v.t.w.6.6.6.6.q.q.X.@X@X@X@X@X@X@X@X@X@X@X@X@X@X@X@X",
"@X@X@X@X@X@X@X> q 2 2 2 2 2 2 2 2 2 > @X@X@X@X9 1 ; Z.|.|.(.|.H.F. XQ 2 2 2 N.|.(.(.(.^.XXC.3.q.q.q.q.q.q.0.@.+.6.q.q.q.q.q.q.:.@X@X@X@X@X@X@X@X@X@X@X@X@X@X@X@X",
"@X@X@X@X@X@X@X< 2 2 2 2 2 2 2 2 2 < @X@X@X@X@X@X> 2 D {.(.(.|.I.[ |.k.1 2 2 Z |.+X(.(.(.|.x.q.q.q.6.q.q.q.q.O.,.6.q.6.q.q.q.q.9.@X@X@X@X@X@X@X@X@X@X@X@X@X@X@X@X",
"@X@X@X@X@X@X7 7 2 2 2 2 2 2 2 2 2 6 @X@X@X@X@X@X5 7 > C.(.(.j.K._ |.U.: 2 q , N.(.(.(.(.|.g.0.q.q.q.6.q.q.o.b :.6.q.q.q.6.6.3.m @X@X@X@X@X@X@X@X@X@X@X@X@X@X@X@X",
"@X@X@X@X@X@X: 1 2 2 2 2 2 2 2 2 1 @X@X@X@X@X@X@X@X: 1 ( (.|.| z.U [.{.t 2 q q W (.(.(.^.{.F.<.q.q.q.q.q.q.<.L @.6.q.6.6.6.6.7.n @X@X@X@X@X@X@X@X@X@X@X@X@X@X@X@X",
"@X@X@X@X@X@X; 2 2 2 2 2 2 2 7 2 - @X@X@X@X@X@X@X@Xr 1 Q }.F.` / H.].{.B 2 2 q h {.|.|.(.(.].#.0.q.q.q.q.6.1.J.K.>.q.q.q.q.q.7.@X@X@X@X@X@X@X@X@X@X@X@X@X@X@X@X@X",
"@X@X@X@X@X@X, 2 2 2 2 2 2 2 2 2 : @X@X@X@X@X@X@X@X@Xp f.U % % C S ].|.G 2 2 2 > L.(.|.(.(.{.U.#.7.q.q.w.+.z. X|.J.&.7.q.8.>.n.i.0 @X@X@X@X@X@X@X@X@X@X@X@X@X@X@X",
"@X@X@X@X@X@X1 2 7 2 2 2 2 2 2 2 9 @X@X@X@X@X@X@X@X@X@Xf.$ % & P e.! }.K 2 2 2 , s.|.|.(.(.|.].}.D.r.t.r.z.(./.(.^.C.P c.g.v.L.h.e.@X@X@X@X@X@X@X@X@X@X@X@X@X@X@X",
"@X@X@X@X@X@X> 2 2 2 2 2 2 2 2 2 p @X@X@X@X@X@X@X@X@X@Xr.@ @ & 3 C y ].! q 2 2 2 R |.(.(.(.(.(.N.I.L.N./ N.(.(.^.(.{.R x.k.U.|.h.@X@X@X@X@X@X@X@X@X@X@X@X@X@X@X@X",
"@X@X@X@X@X@X< 2 2 2 2 2 2 2 2 1 r @X@X@X@X@X@X@X@X@X@Xr.@ @ * * % g ^._ q , 2 2 h |.(.(.(.(.^./.F.Z.R.`.N.(.(.{.R.[.[ }.(.(.(.Q % O @X@X@X@X@X@X@X@X@X@X@X@X@X@X",
"@X@X@X@X@X@X> 2 2 2 2 2 2 2 1 2 r @X@X@X@X@X@X@X@X@X@X~ i % % @ % R }.U q 2 2 2 2 E.(.(.(.(.(.(.|.|.(.[.{ (.L. X( `.N.R.{.(.{.@X$ # @X@X@X@X@X@X@X@X@X@X@X@X@X@X",
"@X@X@X@X@X@X< 2 2 2 2 2 2 2 2 2 9 @X@X@X@X@X@X@X@X@X@X@XP @XO 5 Y !.j.c.2 2 2 2 1 C.|.(.|.(.(.(.(.{.I.h.U OXF {.{ r.b.U.(.(.H.+ % @X@X@X@X@X@X@X@X@X@X@X@X@X@X@X",
"@X@X@X@X@X@X9 7 2 2 2 2 2 2 2 2 6 @X@X@X@X@X@X@X@X@X@X@X@XK r.b.D.' _.B.> 2 2 2 1 [ (.(.(.(.(.(.(.p.b.{.U.i.l.p.] ].M.[.).{.R @X@X@X@X@X@X@X@X@X@X@X@X@X@X@X@X@X",
"@X@X@X@X@X@X@Xq 2 2 2 2 2 2 2 2 > @X@X@X@X@X@X@X@X@X@X@X@X@X4 - j.(.|.L.> 2 2 2 1 Y (.(.(.(.|.(.| _.|.^.(.|. XQ.~.(.^.(.(.P.@X@X@X@X@X@X@X@X@X@X@X@X@X@X@X@X@X@X",
"@X@X@X@X@X@X@X< 2 2 2 2 2 2 2 2 - @X@X@X@X@X@X@X@X@X@X@X@X@X7 > z.(.(.Y.: 2 2 2 2 g [.(.(.(.(.P.z.(.).{.(.(.(.(.(.(.(.(.(.Z.q @X@X@X@X@X@X@X@X@X@X@X@X@X@X@X@X@X",
"@X@X@X@X@X@X@X> 2 2 2 2 2 2 2 2 > @X@X@X@X@X@X@X@X@X@X@X@X@Xr > N.(.(.!.> 2 2 2 2 > Y.(.(.|.|.[ ].|.|.(.(.(.(.(.(.(.(.(.(.Z.# @X@X@X@X@X@X@X@X@X@X@X@X@X@X@X@X@X",
"@X@X@X@X@X@X@Xr 1 2 2 2 2 2 2 2 1 @X@X@X@X@X@X@X@X@X@X@X@X@X@X= Z.).(.[.i 2 2 2 2 7 { (.(.(.|.Z.|.|.(.|.|.(.(.(.|.^.(.|.(.M.q d @X@X@X@X@X@X@X@X@X@X@X@X@X@X@X@X",
"@X@X@X@X@X@X@X@X7 2 2 2 2 2 2 2 2 @X@X@X@X@X@X@X@X@X@X@X@X@X@X@XZ.(.(.|.Z 2 2 2 2 2 K |.(.(.(.(.(.(.(.|.(.|.F.!.).^.~.(.(.| q q @X@X@X@X@X@X@X@X@X@X@X@X@X@X@X@X",
"@X@X@X@X@X@X@X@X: 2 2 2 2 2 2 2 2 w @X@X@X@X@X@X@X@X@X@X@X@X@X@XL.).(.(.J 2 2 2 2 2 w !.).|.(.(.(.(.(.} [.|.W T {.N.R ).^.Y 7 < @X@X@X@X@X@X@X@X@X@X@X@X@X@X@X@X",
"@X@X@X@X@X@X@X@X5 2 2 2 2 2 2 2 2 < @X@X@X@X@X@X@X@X@X@X@X@X@X@XQ.{.(.(.Q 1 2 2 2 2 2 ( (.(.|.(.|.).|.Z Y ' ; 2 N u g !.[.h 2 > @X@X@X@X@X@X@X@X@X@X@X@X@X@X@X@X",
"@X@X@X@X@X@X@X@Xr 2 2 1 2 2 2 2 2 > @X@X@X@X@X@X@X@X@X@X@X@X@X@X/.|.(.(.{ 1 2 2 2 2 2 g I.(.(.(.(.|.H., 2 2 2 2 2 2 2 Q ] 1 q , @X@X@X@X@X@X@X@X@X@X@X@X@X@X@X@X",
"@X@X@X@X@X@X@X@X@X1 2 2 2 2 2 2 2 > @X@X@X@X@X@X@X@X@X@X@X@X@X@X{.|.(.(.k.1 2 2 2 2 2 2 z A..XoX(.].F q 2 2 1 2 2 2 2 2 1 2 2 2 @X@X@X@X@X@X@X@X@X@X@X@X@X@X@X@X",
"@X@X@X@X@X@X@X@X@X< 2 2 2 2 2 2 2 1 @X@X@X@X@X@X@X@X@X@X@X@X@X@X{.(.(.(.S.; 2 2 2 2 2 2 2 < D ) W h , 2 2 2 2 2 2 2 2 2 2 2 2 2 @X@X@X@X@X@X@X@X@X@X@X@X@X@X@X@X",
"@X@X@X@X@X@X@X@X@X: 2 2 2 2 2 2 2 2 @X@X@X@X@X@X@X@X@X@X@X@X@X@X|.|.(.).(.h 2 2 2 2 1 2 2 2 q 2 2 2 2 2 2 2 2 2 2 2 2 2 2 2 2 q f @X@X@X@X@X@X@X@X@X@X@X@X@X@X@X",
"@X@X@X@X@X@X@X@X@X- 2 2 2 2 1 2 2 2 r @X@X@X@X@X@X@X@X@Xf a r G (.|.(.(.(.Q 2 2 2 2 2 2 2 2 2 2 2 2 2 2 2 2 2 2 2 2 2 2 2 2 2 , f @X@X@X@X@X@X@X@X@X@X@X@X@X@X@X",
"@X@X@X@X@X@X@X@X@X: 2 2 2 2 2 2 2 2 9 @Xs 0 4 $ O O $ * * * * K |.|.(.(.(.P.< 2 2 2 2 2 2 2 2 2 2 2 2 2 2 2 2 2 2 2 2 2 2 2 2 , 6 p @X@X@X@X@X@X@X@X@X@X@X@X@X@X",
"@X@X@X@X@X@X@X@X@X- 2 2 2 2 2 2 7 #   $ * * @ * * * * * * * & G |.|.(.(.(.^.Q 2 2 2 2 2 2 2 2 2 2 2 2 2 2 2 2 2 2 2 2 2 2 2 2 - $ 3 $ @X@X@X@X@X@X@X@X@X@X@X@X@X",
"@X@X@X@X@X@X@X@X@X: 1 2 2 2 1 1 O % * * * * * * * % * * * * * q U.(.(.(.(.(.~.B 2 2 2 2 2 2 2 2 2 2 2 2 2 2 2 2 2 2 2 2 2 2 q # * * @ # @X@X@X@X@X@X@X@X@X@X@X@X",
"@X@X@X@X@X@X@X@X@X: 2 2 2 2 1 . * * * * * * * * * * * * * * * $ Q |.(.(.(.(.(.P.l q 2 2 2 2 2 2 2 2 2 2 2 2 2 2 2 2 2 2 2 2 6 O * * * * 3 @X@X@X@X@X@X@X@X@X@X@X",
"@X@X@X@X@X@X@X@Xe 1 1 2 2 2 + $ * * * * * * * * * * * * * * * * % j.|.(.(.(.(.(.P.z < 2 2 2 2 2 2 2 2 2 2 2 2 2 2 2 2 2 2 2 ; $ * * * * % s @X@X@X@X@X@X@X@X@X@X",
"@X@X@X@X@X@X@X@X> 1 2 2 2 - $ % * * * * * * * * * * * * * * * * % : [ {.(.).(.(.(.~.U > q 2 2 1 2 2 2 2 2 2 2 2 2 2 2 2 2 , o % * * * * % $ @X@X@X@X@X@X@X@X@X@X",
"@X@X@X@X@X@X@X- 2 2 2 2 1 O % % * * * * * * * * * * * * * * * * * * $ B h.E.{.(.(.(.OXD.D 5 2 2 2 2 2 2 2 2 2 2 2 2 2 2 2 > $ * * * * * & % u @X@X@X@X@X@X@X@X@X",
"@X@X@X@X@X@X: > < 2 2 2 : @ * * * * * * * * * * * * * * * * * * * * % & $ = A ) j.Z.S.P.G.] k - 2 2 2 2 2 2 2 2 ; 2 2 ; q > O * * * * * * * @ @X@X@X@X@X@X@X@X@X",
"@X@X@X@X@X@X@X: < 2 2 2 O % % * * * * * * * * * * * * * * * * * * * * * * * * % $ O X X X O O O q 2 ; 1 2 = 1 2 = 1 1   q : $ % * * * * * * @ @X@X@X@X@X@X@X@X@X",
"@X@X@X@X@X@X9 > < + > > O % * * * * * * * * * * * * * * * * * * * * * * * * * * % % * * * * $ # - 1 + < 2 = - 2 - # 1 . - : % % * * * * * * % 0 @X@X@X@X@X@X@X@X",
"@X@X@X@X@X@Xf @X@X- 7 - O 3 * * * * * * * * * * * * * * * * * * * * * * * * * * * * * * * * % # . 7 # O 1 + O < - $ @ O $ $ % % * * * * * * % $ @X@X@X@X@X@X@X@X",
"@X@X@X@X@X@X@X@X< 2 > O % * * * * * * * * * * * * * * * * * * * * * * * * * * * * * * * * * * % % O O # O $ @ O $ % % % @ * * * * * * * * * % $ @X@X@X@X@X@X@X@X",
"@X@X@X@X@X@X@X5 r @X@X* * * * * * * * * * * * * * * * * * * * * * * * * * * * * * * * * * * * * * * * & * * * * * * * * * * * * * * * * * * * * f @X@X@X@X@X@X@X",
"@X@X@X@X@X@X@X@X@X@X@X$ * * * * * * * * * * * * * O & * * * * * * * * * * * * * * * * * * * 3 * * * * * * * * * * * * * * * * & * * * * * * * % 4 @X@X@X@X@X@X@X",
"@X@X@X@X@X@X@X@X@X@X@X@ * * * * * * * * * * * * * O & * * * * * * * * * * * * * * * * * * * * * * * * * * * * * * * * * * * * @ @ % % * * * * & % @X@X@X@X@X@X@X",
"@X@X@X@X@X@X@X@X@X@X@X* * * * * * * * * * * * * * O * * * * * * * * * * * * * * * * * * * * * * * * * * * * * * * * * * * * * * O @ * * * * * * $ @X@X@X@X@X@X@X",
"@X@X@X@X@X@X@X@X@X@Xf % * * * * * * * * * * * * & O * * * * * * * * * * * * * * * * * * * * * * * * * * * * * * * * * * * * * * O * * * * * * * * d @X@X@X@X@X@X",
"@X@X@X@X@X@X@X@X@X@Xp % * * * * * * * * * * * * * O * * * * * * * * * * * * * * * * * * * * * * * * * * * * * * * * * * * * * * O * * * * * * * # 6 @X@X@X@X@X@X",
"@X@X@X@X@X@X@X@X@X@X8 * * * * * * * * * * * * * $ O * * * * * * * * * * * * * * * * * * * * * * * * * * * * * * * * * * * * * * X @ * * * * * * % # @X@X@X@X@X@X",
"@X@X@X@X@X@X@X@X@X@X* * * * * * * * * * * * * * $ $ * * * * * * * * * * * * * * * * * * * * * * * * * * * * * * * * * * * * * * $ @ * * * * * * % $ @X@X@X@X@X@X",
"@X@X@X@X@X@X@X@X@X@X* * * * * * * * * * * * * * $ O * * * * * * * * * * * * * * * * * * * * * * * * * * * * * * * * * * * * * * $ O & * * * * * * * f @X@X@X@X@X",
"@X@X@X@X@X@X@X@X@X@X% * * * * * * * * * * * * * O $ * * * * * * * * * * * * * * * * * * * * * * * * * * * * * * * * * * * * * * @ $ * * * * * * * * 9 @X@X@X@X@X",
"@X@X@X@X@X@X@X@X@X@X% $ * * * * * * * * * * * * O @ * * * * * * * * * * * * * * * * * * * * * * * * * * & & * * * * * * * * * * & O * * * * * * * * % @X@X@X@X@X",
"@X@X@X@X@X@X@X@X@X@X$ % * * * * * * * * * * * * O & * * * * * * * * * * * * * * * * * * * * * * * * * * 3 * * * * * * * * * * * * O * * * * * * * * O @X@X@X@X@X",
"@X@X@X@X@X@X@X@X@X@XO * * * * * * * * * * * * * O * * * * * * * * * * * * * * * * * * * * * * * * * * * * * * * * * * * * * * * * X * * * * * * * * $ @X@X@X@X@X",
"@X@X@X@X@X@X@X@X@X@XO % * * * * * * * * * * * * O & * * * * * * * * * * * * * * * * * * * * * * * * * * * * * * * * * * * * * * & O * * * * * * * * % f @X@X@X@X",
"@X@X@X@X@X@X@X@X@X@XO % * * * * * * * * * * * * X & * * * * * * * * * * * * * * * * * * * * * * * * * * * * * * * * * * * * * * * O @ * * * * * * * * 0 @X@X@X@X",
"@X@X@X@X@X@X@X@X@X@X+ % * * * * * * * * * * * & O * * * * * * * * * * * * * * * * * * * * * * * * * * * * * * * * * * * * * * * * X $ * * * * * * * * 6 @X@X@X@X"
};
