/* XPM */
static char *result[] = {
/* columns rows colors chars-per-pixel */
"80 80 136 2 ",
"   c #000000",
".  c #0A0503",
"X  c #0C0D0E",
"o  c #100602",
"O  c #100B06",
"+  c #1E0E05",
"@  c #160F08",
"#  c #1F160C",
"$  c #121415",
"%  c #1F1810",
"&  c #1A1C1E",
"*  c #361E0C",
"=  c #2D2216",
"-  c #2E2518",
";  c #322517",
":  c #302619",
">  c #0C1F25",
",  c #1E1F21",
"<  c #13242B",
"1  c #163039",
"2  c #212425",
"3  c #292B2C",
"4  c #313335",
"5  c #333739",
"6  c #393C3D",
"7  c #463523",
"8  c #4A3927",
"9  c #473929",
"0  c #4D3C28",
"q  c #503E2A",
"w  c #634D35",
"e  c #67543D",
"r  c #735A3D",
"t  c #1F3740",
"y  c #1C3A44",
"u  c #3A3D40",
"i  c #27424D",
"p  c #3C4043",
"a  c #295362",
"s  c #3F6372",
"d  c #44494C",
"f  c #505356",
"g  c #515659",
"h  c #565B5F",
"j  c #7B5F41",
"k  c #7A6043",
"l  c #5E6265",
"z  c #666A6D",
"x  c #6D6E6E",
"c  c #6E7377",
"v  c #707578",
"b  c #767C7E",
"n  c #89522B",
"m  c #91582E",
"M  c #9E6032",
"N  c #866949",
"B  c #8B6C4B",
"V  c #8F704E",
"C  c #897052",
"Z  c #987A57",
"A  c #9C7E5B",
"S  c #927757",
"D  c #9F825F",
"F  c #A0825E",
"G  c #A38563",
"H  c #A2886E",
"J  c #AA9077",
"K  c #3E788B",
"L  c #797E82",
"P  c #4C8196",
"I  c #7F8588",
"U  c #7C8185",
"Y  c #4A8EA5",
"T  c #5A8CA1",
"R  c #4F90A7",
"E  c #629EB7",
"W  c #6B9EB1",
"Q  c #74A2B4",
"!  c #6DA7C0",
"~  c #6EA8C0",
"^  c #78ADC4",
"/  c #7FB0C6",
"(  c #808589",
")  c #83898C",
"_  c #878D90",
"`  c #8B9397",
"'  c #8E9699",
"]  c #92989C",
"[  c #9D9D9D",
"{  c #979EA2",
"}  c #989EA2",
"|  c #9AA1A5",
" . c #9DA5A9",
".. c #85ACBB",
"X. c #88AEBD",
"o. c #A1A7AC",
"O. c #A3ABAF",
"+. c #ABABAC",
"@. c #A5ADB1",
"#. c #A7B1B5",
"$. c #A9B3B7",
"%. c #ADB5BA",
"&. c #AEB8BC",
"*. c #BDBEBF",
"=. c #81B1C7",
"-. c #8BB6CA",
";. c #9EBBC7",
":. c #9BBFD0",
">. c #B5BCC1",
",. c #A6C0CC",
"<. c #A8C2CD",
"1. c #B8C0C5",
"2. c #BBC3C8",
"3. c #A3C4D4",
"4. c #AFC7D1",
"5. c #ABC8D7",
"6. c #B0C7D1",
"7. c #BBD3DE",
"8. c #BFD5E0",
"9. c #C5C5C6",
"0. c #C0C9CE",
"q. c #CECFD0",
"w. c #C4CED3",
"e. c #C6D0D5",
"r. c #C4D6DF",
"t. c #CCD6DB",
"y. c #C1D6E0",
"u. c #D9E6EC",
"i. c #E0E5E7",
"p. c #E8EFF2",
"a. c #EAF1F3",
"s. c #F2F4F6",
"d. c #F3F7F8",
"f. c #F6F8F9",
"g. c #FDFEFE",
"h. c None",
/* pixels */
"h.h.h.h.h.h.h.h.h.h.h.h.h.h.h.h.h.h.h.h.h.h.h.h.h.h.h.h.h.h.h.h.h.h.h.h.h.h.h.h.h.h.h.h.h.h.h.h.h.h.h.h.h.h.h.h.h.h.h.h.h.h.h.h.h.h.h.h.h.h.h.h.h.h.h.h.h.h.h.h.",
"h.h.h.h.h.h.h.h.h.h.h.h.h.h.h.h.h.h.h.h.h.h.h.h.h.h.h.h.h.h.h.h.h.h.h.h.h.h.h.h.h.h.h.h.h.h.h.h.h.h.h.h.h.h.h.h.h.h.h.h.h.h.h.h.h.h.h.h.h.h.h.h.h.h.h.h.h.h.h.h.",
"h.h.h.h.h.h.h.h.h.h.h.h.h.h.h.h.h.h.                                                                                        h.h.h.h.h.h.h.h.h.h.h.h.h.h.h.h.h.h.",
"h.h.h.h.h.h.h.h.h.h.h.h.h.h.h.h.h.h.    3 4 4 4 4 4 4 4 4 4 4 4 4 4 4 4 4 4 4 4 4 4 4 4 4 4 4 4 4 4 4 4 4 4 4 4 4 4 4 3     h.h.h.h.h.h.h.h.h.h.h.h.h.h.h.h.h.h.",
"h.h.h.h.h.h.h.h.h.h.h.h.h.h.h.h.h.h.    ) } } } } } } } } } } } } } } } } } } } } } } } } } } } } } } } } } } } } } } )     h.h.h.h.h.h.h.h.h.h.h.h.h.h.h.h.h.h.",
"h.h.h.h.h.h.h.h.h.h.h.h.h.h.h.h.h.h.    _ @.o.| | | | | | | | | | | | | | | | | | | | | | | | | | | | | | | | | | O.&.]     h.h.h.h.h.h.h.h.h.h.h.h.h.h.h.h.h.h.",
"h.h.h.h.h.h.h.h.h.h.h.h.h.h.h.h.h.h.    _ @.z                                                                     _ 0.]     h.h.h.h.h.h.h.h.h.h.h.h.h.h.h.h.h.h.",
"h.h.h.h.h.h.h.h.h.h.h.h.h.h.h.h.h.h.    _ @.z                                                                     _ 0.]     h.h.h.h.h.h.h.h.h.h.h.h.h.h.h.h.h.h.",
"h.h.h.h.h.h.h.h.h.h.h.h.h.h.h.h.h.h.    _ @.z   t T T T T T T T T T T T T T T T T T T T T T T T T P K K K K K 1   _ 0.]     h.h.h.h.h.h.h.h.h.h.h.h.h.h.h.h.h.h.",
"h.h.h.h.h.h.h.h.h.h.h.h.h.h.h.h.h.h.    _ @.z   i ! ! ! ! ! ! ! ! ! ! ^ ! ! ! ! ! ! ! ! ! ! ! ! E Y Y Y Y Y Y y   _ 0.]     h.h.h.h.h.h.h.h.h.h.h.h.h.h.h.h.h.h.",
"h.h.h.h.h.h.h.h.h.h.h.h.h.h.h.h.h.h.    _ @.z   i ! ! ! ! ! ! ! ! ! y.s.-.! ! ! ! ! ! ! ! ! ! E Y Y Y Y Y Y Y y   _ 0.]     h.h.h.h.h.h.h.h.h.h.h.h.h.h.h.h.h.h.",
"h.h.h.h.h.h.h.h.h.h.h.h.h.h.h.h.h.h.    _ @.z   i ! ! ! ! ! ! ! ~ y.g.g.u.! ! ! ! ! ! ! ! ! E Y Y Y Y Y Y Y Y y   _ 0.]     h.h.h.h.h.h.h.h.h.h.h.h.h.h.h.h.h.h.",
"h.h.h.h.h.h.h.h.h.h.h.h.h.h.h.h.h.h.    _ @.z   i ! ! ! ! ! ! ! y.g.g.a.=.! ! ! ! ! ! 3.5.E Y Y Y Y Y Y Y Y Y y   _ 0.]     h.h.h.h.h.h.h.h.h.h.h.h.h.h.h.h.h.h.",
"h.h.h.h.h.h.h.h.h.h.h.h.h.h.h.h.h.h.    _ @.z   i ! ! ! ! ! ! y.g.g.p./ ! ! ! ! ! ! 3.g.g.;.Y Y Y Y Y Y Y Y Y y   _ 0.]     h.h.h.h.h.h.h.h.h.h.h.h.h.h.h.h.h.h.",
"h.h.h.h.h.h.h.h.h.h.h.h.h.h.h.h.h.h.    _ @.z   i ! ! ! ! ! y.g.g.a./ ! ! ! ! ! ! 3.f.g.f...Y Y Y Y Y Y Y Y Y y   _ 0.]     h.h.h.h.h.h.h.h.h.h.h.h.h.h.h.h.h.h.",
"h.h.h.h.h.h.h.h.h.h.h.h.h.h.h.h.h.h.    _ @.z   i ! ! ! ! 8.g.g.a.=.! ! ! ! ! ! 3.g.g.f...Y Y Y Y Y Y Y Y Y Y y   _ 0.]     h.h.h.h.h.h.h.h.h.h.h.h.h.h.h.h.h.h.",
"h.h.h.h.h.h.h.h.h.h.h.h.h.h.h.h.h.h.    _ @.z   i ! ! ! ! 3.f.a.=.! ! ! ! ! ! 3.g.g.d.X.Y Y Y Y Y Y Y Y Y Y Y y   _ 0.]     h.h.h.h.h.h.h.h.h.h.h.h.h.h.h.h.h.h.",
"h.h.h.h.h.h.h.h.h.h.h.h.h.h.h.h.h.h.    _ @.z   i ! ! ! ! ! :./ ! ! ! ! ! ! 3.f.g.d.X.Y Y Y Y Y Y Y Y Y Y Y Y y   _ 0.]     h.h.h.h.h.h.h.h.h.h.h.h.h.h.h.h.h.h.",
"h.h.h.h.h.h.h.h.h.h.h.h.h.h.h.h.h.h.    _ @.z   i ! ! ! ! ! ! ! ! ! ! ! ! 3.g.g.f.X.Y Y Y Y Y Y W ;.Y Y Y Y Y y   _ 0.]     h.h.h.h.h.h.h.h.h.h.h.h.h.h.h.h.h.h.",
"h.h.h.h.h.h.h.h.h.h.h.h.h.h.h.h.h.h.    _ @.z   i ! ! ! ! ! ! ! ! ! ! ! 3.g.g.f...Y Y Y Y Y Y W p.g.<.Y Y Y Y y   _ 0.]     h.h.h.h.h.h.h.h.h.h.h.h.h.h.h.h.h.h.",
"h.h.h.h.h.h.h.h.h.h.h.h.h.h.h.h.h.h.    _ @.z   i ! ! ! ! ! ! ! ! ! ! 3.g.g.f...Y Y Y Y Y Y W p.g.g.6.Y Y Y Y y   _ 0.]     h.h.h.h.h.h.h.h.h.h.h.h.h.h.h.h.h.h.",
"h.h.h.h.h.h.h.h.h.h.h.h.h.h.h.h.h.h.    _ @.z   i ! ! ! ! ! ! ! ! ! -.g.g.s.X.Y Y Y Y Y Y W p.g.g.6.Y Y Y Y Y y   _ 0.]     h.h.h.h.h.h.h.h.h.h.h.h.h.h.h.h.h.h.",
"h.h.h.h.h.h.h.h.h.h.h.h.h.h.h.h.h.h.    _ @.z   i ! ! ! ! ! ! ! ~ ~ E y.s.X.Y Y Y Y Y Y W a.g.g.6.Y Y Y Y Y Y y   _ 0.]     h.h.h.h.h.h.h.h.h.h.h.h.h.h.h.h.h.h.",
"h.h.h.h.h.h.h.h.h.h.h.h.h.h.h.h.h.h.    _ @.z   i ! ! ! ! ! ! ! ! ~ E R W Y Y Y Y Y Y Y Q a.g.6.R Y Y Y Y Y Y y   _ 0.]     h.h.h.h.h.h.h.h.h.h.h.h.h.h.h.h.h.h.",
"h.h.h.h.h.h.h.h.h.h.h.h.h.h.h.h.h.h.    _ @.z   i ! ! ! ~ ~ ~ ! ! E R Y Y Y Y Y Y Y Y Y Y Q ,.Y Y Y Y Y Y Y Y y   _ 0.]     h.h.h.h.h.h.h.h.h.h.h.h.h.h.h.h.h.h.",
"h.h.h.h.h.h.h.h.h.h.h.h.h.h.h.h.h.h.    _ @.z   < h s s s s s s h a a a a a a a a a a a a a a a a a a a a a a >   _ 0.]     h.h.h.h.h.h.h.h.h.h.h.h.h.h.h.h.h.h.",
"h.h.h.h.h.h.h.h.h.h.h.h.h.h.h.h.h.h.    ) @.z                   X                                                 _ 0.]     h.h.h.h.h.h.h.h.h.h.h.h.h.h.h.h.h.h.",
"h.h.h.h.h.h.h.h.h.h.h.h.h.h.h.h.h.h.    _ @._ v v c c L v v v v c c v v v v v v v v v v v v v v v v v v v v v v v  .0.]     h.h.h.h.h.h.h.h.h.h.h.h.h.h.h.h.h.h.",
"h.h.h.h.h.h.h.h.h.h.h.h.h.h.h.h.h.h.    _ @.>.2.2.2.2.2.2.2.2.2.2.2.2.2.2.2.2.2.2.2.2.2.2.2.2.2.2.2.2.2.2.2.2.2.2.2.>.]     h.h.h.h.h.h.h.h.h.h.h.h.h.h.h.h.h.h.",
"h.h.h.h.h.h.h.h.h.h.h.h.h.h.h.h.h.h.    c I ( ( I I I ) I I I ) I I I ) ) I I I ( ( ( ( ( ( ( ( ( ( ( ( ( ( ( ( ) I ) c     h.h.h.h.h.h.h.h.h.h.h.h.h.h.h.h.h.h.",
"h.                              h.h.                                                                                        h.h.h.h.h.h.h.h.h.h.h.h.h.h.h.h.h.h.",
"h.    & 6 6 6 6 u 6               h.                                        X $ $ X                                         h.h.h.h.h.h.h.h.h.h.h.h.h.h.h.h.h.h.",
"h.    g @.#.@.#.@.O.    h.h.      h.h.h.h.h.h.h.h.h.h.h.h.h.h.h.h.h.h.h.    p d d u     h.h.h.h.h.h.h.h.h.h.h.h.h.h.h.h.h.h.h.h.h.h.h.h.h.h.h.h.h.h.h.h.h.h.h.h.",
"h.h.  6 @.&.e.e.i.q.    h.h.h.    h.h.h.h.h.h.h.h.h.h.h.h.h.h.h.h.h.h.    , d d g g <     h.h.h.h.h.h.h.h.h.h.h.h.h.h.h.h.h.h.h.h.h.h.h.h.h.h.h.h.h.h.h.h.h.h.h.",
"h.h.    O.%.t.t.a.9.    h.h.      h.h.h.h.h.h.h.h.h.h.h.h.h.h.h.h.h.h.    5 d d h h u     h.h.h.h.h.h.h.h.h.h.h.h.h.h.h.          h.h.h.h.h.h.h.h.h.h.h.h.h.h.h.",
"h.h.     .$.t.t.s.+.            h.h.h.h.h.h.h.h.h.h.h.h.h.h.              , 2 2 & , $               h.h.h.h.h.h.h.h.h.              h.h.h.h.h.h.h.h.h.h.h.h.h.h.",
"h.h.    ' $.e.t.d.[           h.h.h.h.h.h.h.h.h.h.h.h.h.h.h.                                        h.h.h.h.h.h.h.h.    2 4   3 $     h.h.h.h.h.h.h.h.h.h.h.h.h.",
"h.h.    ) #.w.t.f.x     h.h.h.h.h.h.h.h.h.h.h.h.h.h.h.h.h.h.    f c c c c c c c c c c c c c c f     h.h.h.h.h.h.h.h.    L ' L ) l     h.h.h.h.h.h.h.h.h.h.h.h.h.",
"h.h.    z ' }  .*.6     h.h.h.h.h.h.h.h.h.h.h.h.h.h.h.h.h.h.    l ) ) ) ) ) _ ) ) ) ) ) ) ) ) l     h.h.h.h.h.h.h.h.    c ) ( b l     h.h.h.h.h.h.h.h.h.h.h.h.h.",
"                                                                                                                                                                ",
"    @ # # # # # # # # # # # # # # # # # # # # # # # # # # # # # # # # # # # # # # # # # # # # # # # # # # # # # # # # # # # # # % # # # # # % # # # # % # @     ",
"    r B B B B B B B B B B B B B B B B B B B B B B B B B B B B B B B B B B B B B B B B B B B B B B B B V B B V B B B B B B B B B B B B B B B B B B B B N B r     ",
"    r B V S A A A A A A A A A A A A A A A A A A A A A A A A A A A A A A A A A A A A A A D D G G G G G G G G G G G G G G G G G G G G G G G G G G G G H D D k     ",
"    w k k N C V C C C C C C C C C C C C C C C C C C C C C C C C C C C C C C C C C C C C C S J J J J J J J J J J J J J J J J J J J J J J J J J J J J J H H j     ",
"                                                                                                                                                                ",
"              # @ .                                   o o o o o o o o o o o o . o o o o o o o o o o o o o                             .     . @ @               ",
"h.h.h.h.    = N N 0   7 k j :       h.h.h.h.h.h.h.  + n m m m m m m m m m m m m m m m m m m m m m m m m n +   h.h.h.h.h.h.h.      ; r k 7   0 N N :     h.h.h.h.",
"h.h.h.h.h.  ; B B q   q N q       h.h.h.h.h.h.h.h.  + m M M M M M M M M M M M M M M M M M M M M M M M M m #   h.h.h.h.h.h.h.h.      q N q   q B S :   h.h.h.h.h.",
"h.h.h.h.h.  ; V F 0   8 0       h.h.h.h.h.h.h.h.h.  . * * * * * * * * * * * * * * * * * * * * * * * * * *     h.h.h.h.h.h.h.h.h.      q 8   q V D :   h.h.h.h.h.",
"h.h.h.h.h.  ; B G 9   .       h.h.h.h.h.h.h.h.h.h.                                                            h.h.h.h.h.h.h.h.h.h.      .   q V D :   h.h.h.h.h.",
"h.h.h.h.h.  ; B G 9         h.h.h.h.h.h.h.h.h.h.h.h.h.h.h.h.h.h.h.h.h.h.h.h.h.h.h.h.h.h.h.h.h.h.h.h.h.h.h.h.h.h.h.h.h.h.h.h.h.h.h.h.        q V D :   h.h.h.h.h.",
"h.h.h.h.h.  ; B G 9       h.h.h.h.h.h.h.h.h.h.h.h.h.h.h.h.h.h.h.h.h.h.h.h.h.h.h.h.h.h.h.h.h.h.h.h.h.h.h.h.h.h.h.h.h.h.h.h.h.h.h.h.h.h.      q V D :   h.h.h.h.h.",
"h.h.h.h.h.  ; B G 9     h.h.h.h.h.h.h.h.h.h.h.h.h.h.h.h.h.h.h.h.h.h.h.h.h.h.h.h.h.h.h.h.h.h.h.h.h.h.h.h.h.h.h.h.h.h.h.h.h.h.h.h.h.h.h.h.    q V D :   h.h.h.h.h.",
"h.h.h.h.h.  : B G 9     h.h.h.h.h.h.h.h.h.h.h.h.h.h.h.h.h.h.h.h.h.h.h.h.h.h.h.h.h.h.h.h.h.h.h.h.h.h.h.h.h.h.h.h.h.h.h.h.h.h.h.h.h.h.h.h.    q V D :   h.h.h.h.h.",
"h.h.h.h.h.  ; B F 0     h.h.h.h.h.h.h.h.h.h.h.h.h.h.h.h.h.h.h.h.h.h.h.h.h.h.h.h.h.h.h.h.h.h.h.h.h.h.h.h.h.h.h.h.h.h.h.h.h.h.h.h.h.h.h.h.    q V D -   h.h.h.h.h.",
"h.h.h.h.h.  ; B D 9     h.h.h.h.h.h.h.h.h.h.h.h.h.h.h.h.h.h.h.h.h.h.h.h.h.h.h.h.h.h.h.h.h.h.h.h.h.h.h.h.h.h.h.h.h.h.h.h.h.h.h.h.h.h.h.h.    q V D :   h.h.h.h.h.",
"h.h.h.h.h.  ; V G 9     h.h.h.h.h.h.h.h.h.h.h.h.h.h.h.h.h.h.h.h.h.h.h.h.h.h.h.h.h.h.h.h.h.h.h.h.h.h.h.h.h.h.h.h.h.h.h.h.h.h.h.h.h.h.h.h.    q V D :   h.h.h.h.h.",
"h.h.h.h.h.  ; B G 9     h.h.h.h.h.h.h.h.h.h.h.h.h.h.h.h.h.h.h.h.h.h.h.h.h.h.h.h.h.h.h.h.h.h.h.h.h.h.h.h.h.h.h.h.h.h.h.h.h.h.h.h.h.h.h.h.    q V D :   h.h.h.h.h.",
"h.h.h.h.h.  ; B G 9     h.h.h.h.h.h.h.h.h.h.h.h.h.h.h.h.h.h.h.h.h.h.h.h.h.h.h.h.h.h.h.h.h.h.h.h.h.h.h.h.h.h.h.h.h.h.h.h.h.h.h.h.h.h.h.h.    q V D :   h.h.h.h.h.",
"h.h.h.h.h.  ; B G 9     h.h.h.h.h.h.h.h.h.h.h.h.h.h.h.h.h.h.h.h.h.h.h.h.h.h.h.h.h.h.h.h.h.h.h.h.h.h.h.h.h.h.h.h.h.h.h.h.h.h.h.h.h.h.h.h.    q V D :   h.h.h.h.h.",
"h.h.h.h.h.  ; B G 9     h.h.h.h.h.h.h.h.h.h.h.h.h.h.h.h.h.h.h.h.h.h.h.h.h.h.h.h.h.h.h.h.h.h.h.h.h.h.h.h.h.h.h.h.h.h.h.h.h.h.h.h.h.h.h.h.    q V D -   h.h.h.h.h.",
"h.h.h.h.h.  ; B G 9     h.h.h.h.h.h.h.h.h.h.h.h.h.h.h.h.h.h.h.h.h.h.h.h.h.h.h.h.h.h.h.h.h.h.h.h.h.h.h.h.h.h.h.h.h.h.h.h.h.h.h.h.h.h.h.h.    q V D :   h.h.h.h.h.",
"h.h.h.h.h.  : B F 0     h.h.h.h.h.h.h.h.h.h.h.h.h.h.h.h.h.h.h.h.h.h.h.h.h.h.h.h.h.h.h.h.h.h.h.h.h.h.h.h.h.h.h.h.h.h.h.h.h.h.h.h.h.h.h.h.    q V D :   h.h.h.h.h.",
"h.h.h.h.h.  : B D 9     h.h.h.h.h.h.h.h.h.h.h.h.h.h.h.h.h.h.h.h.h.h.h.h.h.h.h.h.h.h.h.h.h.h.h.h.h.h.h.h.h.h.h.h.h.h.h.h.h.h.h.h.h.h.h.h.    q C D :   h.h.h.h.h.",
"h.h.h.h.h.  ; B G 9     h.h.h.h.h.h.h.h.h.h.h.h.h.h.h.h.h.h.h.h.h.h.h.h.h.h.h.h.h.h.h.h.h.h.h.h.h.h.h.h.h.h.h.h.h.h.h.h.h.h.h.h.h.h.h.h.    q V D :   h.h.h.h.h.",
"h.h.h.h.h.  ; B F 9     h.h.h.h.h.h.h.h.h.h.h.h.h.h.h.h.h.h.h.h.h.h.h.h.h.h.h.h.h.h.h.h.h.h.h.h.h.h.h.h.h.h.h.h.h.h.h.h.h.h.h.h.h.h.h.h.    q V D :   h.h.h.h.h.",
"h.h.h.h.h.  ; B G 9     h.h.h.h.h.h.h.h.h.h.h.h.h.h.h.h.h.h.h.h.h.h.h.h.h.h.h.h.h.h.h.h.h.h.h.h.h.h.h.h.h.h.h.h.h.h.h.h.h.h.h.h.h.h.h.h.    q V D :   h.h.h.h.h.",
"h.h.h.h.h.  ; B G 9     h.h.h.h.h.h.h.h.h.h.h.h.h.h.h.h.h.h.h.h.h.h.h.h.h.h.h.h.h.h.h.h.h.h.h.h.h.h.h.h.h.h.h.h.h.h.h.h.h.h.h.h.h.h.h.h.    q V D :   h.h.h.h.h.",
"h.h.h.h.h.  ; B F 9     h.h.h.h.h.h.h.h.h.h.h.h.h.h.h.h.h.h.h.h.h.h.h.h.h.h.h.h.h.h.h.h.h.h.h.h.h.h.h.h.h.h.h.h.h.h.h.h.h.h.h.h.h.h.h.h.    q V D :   h.h.h.h.h.",
"h.h.h.h.h.  ; V G 9     h.h.h.h.h.h.h.h.h.h.h.h.h.h.h.h.h.h.h.h.h.h.h.h.h.h.h.h.h.h.h.h.h.h.h.h.h.h.h.h.h.h.h.h.h.h.h.h.h.h.h.h.h.h.h.h.    q V D :   h.h.h.h.h.",
"h.h.h.h.h.  ; B G 9     h.h.h.h.h.h.h.h.h.h.h.h.h.h.h.h.h.h.h.h.h.h.h.h.h.h.h.h.h.h.h.h.h.h.h.h.h.h.h.h.h.h.h.h.h.h.h.h.h.h.h.h.h.h.h.h.    q V D :   h.h.h.h.h.",
"h.h.h.h.h.  ; B G 9     h.h.h.h.h.h.h.h.h.h.h.h.h.h.h.h.h.h.h.h.h.h.h.h.h.h.h.h.h.h.h.h.h.h.h.h.h.h.h.h.h.h.h.h.h.h.h.h.h.h.h.h.h.h.h.h.    q V D :   h.h.h.h.h.",
"h.h.h.h.h.  ; B G 9     h.h.h.h.h.h.h.h.h.h.h.h.h.h.h.h.h.h.h.h.h.h.h.h.h.h.h.h.h.h.h.h.h.h.h.h.h.h.h.h.h.h.h.h.h.h.h.h.h.h.h.h.h.h.h.h.    q V G :   h.h.h.h.h.",
"h.h.h.h.h.  ; B G 0     h.h.h.h.h.h.h.h.h.h.h.h.h.h.h.h.h.h.h.h.h.h.h.h.h.h.h.h.h.h.h.h.h.h.h.h.h.h.h.h.h.h.h.h.h.h.h.h.h.h.h.h.h.h.h.h.    q V D -   h.h.h.h.h.",
"h.h.h.h.h.  : B G 9     h.h.h.h.h.h.h.h.h.h.h.h.h.h.h.h.h.h.h.h.h.h.h.h.h.h.h.h.h.h.h.h.h.h.h.h.h.h.h.h.h.h.h.h.h.h.h.h.h.h.h.h.h.h.h.h.    q V D :   h.h.h.h.h.",
"h.h.h.h.h.  : B D 9     h.h.h.h.h.h.h.h.h.h.h.h.h.h.h.h.h.h.h.h.h.h.h.h.h.h.h.h.h.h.h.h.h.h.h.h.h.h.h.h.h.h.h.h.h.h.h.h.h.h.h.h.h.h.h.h.    0 B D -   h.h.h.h.h.",
"h.h.h.h.h.  . = # .     h.h.h.h.h.h.h.h.h.h.h.h.h.h.h.h.h.h.h.h.h.h.h.h.h.h.h.h.h.h.h.h.h.h.h.h.h.h.h.h.h.h.h.h.h.h.h.h.h.h.h.h.h.h.h.h.    O = #     h.h.h.h.h.",
"h.h.h.h.h.              h.h.h.h.h.h.h.h.h.h.h.h.h.h.h.h.h.h.h.h.h.h.h.h.h.h.h.h.h.h.h.h.h.h.h.h.h.h.h.h.h.h.h.h.h.h.h.h.h.h.h.h.h.h.h.h.              h.h.h.h.h.",
"h.h.h.h.h.h.h.h.h.h.h.h.h.h.h.h.h.h.h.h.h.h.h.h.h.h.h.h.h.h.h.h.h.h.h.h.h.h.h.h.h.h.h.h.h.h.h.h.h.h.h.h.h.h.h.h.h.h.h.h.h.h.h.h.h.h.h.h.h.h.h.h.h.h.h.h.h.h.h.h.",
"h.h.h.h.h.h.h.h.h.h.h.h.h.h.h.h.h.h.h.h.h.h.h.h.h.h.h.h.h.h.h.h.h.h.h.h.h.h.h.h.h.h.h.h.h.h.h.h.h.h.h.h.h.h.h.h.h.h.h.h.h.h.h.h.h.h.h.h.h.h.h.h.h.h.h.h.h.h.h.h."
};
