/* XPM */
static char *result[] = {
/* columns rows colors chars-per-pixel */
"80 80 256 2 ",
"   c #181715",
".  c #0D0B0B",
"X  c #2B1A19",
"o  c #30261A",
"O  c #272726",
"+  c #2D322A",
"@  c #35342D",
"#  c #333332",
"$  c #3A3935",
"%  c #2E2F31",
"&  c #201F23",
"*  c #5A050B",
"=  c #4D1114",
"-  c #6B0E11",
";  c #593216",
":  c #522B13",
">  c #67371A",
",  c #6F3719",
"<  c #4F362B",
"1  c #6C3824",
"2  c #464439",
"3  c #574C31",
"4  c #6A4629",
"5  c #794827",
"6  c #664A36",
"7  c #785639",
"8  c #6D5139",
"9  c #746A38",
"0  c #6A4C18",
"q  c #33697A",
"w  c #314F59",
"e  c #494745",
"r  c #595547",
"t  c #515553",
"y  c #755846",
"u  c #6E574D",
"i  c #546359",
"p  c #776849",
"a  c #656657",
"s  c #746E50",
"d  c #4E5961",
"f  c #546E6C",
"g  c #666766",
"h  c #777877",
"j  c #6D746C",
"k  c #605962",
"l  c #39403E",
"z  c #8F0F0F",
"x  c #AA140F",
"c  c #B61D24",
"v  c #902B2C",
"b  c #AA262C",
"n  c #982620",
"m  c #EB1E25",
"M  c #F11B25",
"N  c #E62D25",
"B  c #D52129",
"V  c #8A521B",
"C  c #B2731B",
"Z  c #844A25",
"A  c #96582A",
"S  c #8E5930",
"D  c #98673A",
"F  c #987839",
"G  c #886B34",
"H  c #AD7432",
"J  c #A45527",
"K  c #F27933",
"L  c #D45E31",
"P  c #865D43",
"I  c #8A5245",
"U  c #8A6546",
"Y  c #976B47",
"T  c #8F7350",
"R  c #A67647",
"E  c #B17947",
"W  c #887468",
"Q  c #897A78",
"!  c #957664",
"~  c #A96053",
"^  c #F77E40",
"/  c #718475",
"(  c #6F8368",
")  c #978738",
"_  c #8F8636",
"`  c #B48C34",
"'  c #B79F32",
"]  c #D7891C",
"[  c #F69813",
"{  c #F6AF1A",
"}  c #CE8F2E",
"|  c #F68333",
" . c #EF902E",
".. c #CEAC34",
"X. c #EFB12E",
"o. c #F9D738",
"O. c #F4CC32",
"+. c #FCEB3C",
"@. c #E9C32B",
"#. c #8A8656",
"$. c #938C4F",
"%. c #A78749",
"&. c #B78249",
"*. c #A79747",
"=. c #B98354",
"-. c #A7995E",
";. c #B08A4F",
":. c #B0A94D",
">. c #88857B",
",. c #988876",
"<. c #938A6A",
"1. c #AA9578",
"2. c #AA8D6E",
"3. c #B5B16B",
"4. c #CDB146",
"5. c #C59471",
"6. c #C7B36E",
"7. c #D4A545",
"8. c #DAC746",
"9. c #CCC84F",
"0. c #E7D547",
"q. c #F5DA45",
"w. c #EBCC45",
"e. c #FCF443",
"r. c #F9EC4A",
"t. c #CAC670",
"y. c #F5F273",
"u. c #BEC170",
"i. c #377887",
"p. c #2C7790",
"a. c #587C88",
"s. c #477C8C",
"d. c #697C8C",
"f. c #38849A",
"g. c #298293",
"h. c #3486A4",
"j. c #2A95AC",
"k. c #3698B6",
"l. c #2C91AD",
"z. c #2EA4BA",
"x. c #1EA1BE",
"c. c #458599",
"v. c #548796",
"b. c #778685",
"n. c #76978C",
"m. c #6F8D92",
"M. c #4A94AC",
"N. c #6D93A6",
"B. c #66A4B0",
"V. c #299DC4",
"C. c #1FB0D5",
"Z. c #28A8C9",
"A. c #37A5C6",
"S. c #2AABD4",
"D. c #28B6D9",
"F. c #2FB4D2",
"G. c #1DBEEC",
"H. c #27BCE5",
"J. c #29BEEB",
"K. c #54BBD9",
"L. c #65BCDB",
"P. c #2DC1DE",
"I. c #1DC3E5",
"U. c #16C4EE",
"Y. c #1AC3ED",
"T. c #14C7E8",
"R. c #15C5F2",
"E. c #1AC2F1",
"W. c #15C4F8",
"Q. c #0EC9F1",
"!. c #23C2E4",
"~. c #21C2EB",
"^. c #28C0E7",
"/. c #30C2E7",
"(. c #6CC5D9",
"). c #5EC6E3",
"_. c #888A8A",
"`. c #969588",
"'. c #899795",
"]. c #9B9C9B",
"[. c #959695",
"{. c #8B8E8C",
"}. c #A69989",
"|. c #AA988F",
" X c #88A49A",
".X c #9AA59B",
"XX c #B5A897",
"oX c #ADA790",
"OX c #969CA2",
"+X c #8E9DAD",
"@X c #92ACAB",
"#X c #A3A4A4",
"$X c #AAA9A9",
"%X c #A7B7B6",
"&X c #B3B3B4",
"*X c #BBBBBB",
"=X c #B7B9B8",
"-X c #B1AEAF",
";X c #A49FA2",
":X c #C69B85",
">X c #CAA58A",
",X c #D9AA88",
"<X c #D5B191",
"1X c #E1AD8A",
"2X c #E5B694",
"3X c #E0B08D",
"4X c #C3B9AA",
"5X c #98C5B9",
"6X c #8DC6B6",
"7X c #ADC5BB",
"8X c #CFCB98",
"9X c #E8C29C",
"0X c #F7F294",
"qX c #C5C4BE",
"wX c #D2CAAE",
"eX c #EDD2B0",
"rX c #FEF8BE",
"tX c #98B7C3",
"yX c #96CBC7",
"uX c #93CDD1",
"iX c #A5CBC4",
"pX c #AAD3CA",
"aX c #B8D4CA",
"sX c #B9DBD5",
"dX c #B6CCCD",
"fX c #B7E4D4",
"gX c #8FD3E5",
"hX c #AFDDE9",
"jX c #AEE2EF",
"kX c #CCCCCC",
"lX c #C8C6C6",
"zX c #CAD2CA",
"xX c #CBD8D8",
"cX c #D5D4D4",
"vX c #DCDBDB",
"bX c #D7D9D8",
"nX c #D4CFCE",
"mX c #C6E5DA",
"MX c #DAE7DC",
"NX c #F9E9C9",
"BX c #FAEBD2",
"VX c #F2EECC",
"CX c #DCDAE1",
"ZX c #D9E8E5",
"AX c #D1ECEC",
"SX c #E3E4E3",
"DX c #E9EAE9",
"FX c #E8F6F6",
"GX c #F4F4F4",
"HX c #F6FAFB",
"JX c #FCFDFC",
"KX c #F7FAF6",
"LX c #ECEFEC",
"PX c #E6D7CD",
"IX c #C2BFC7",
"UX c None",
/* pixels */
"UXUXUXUXUXUXUXUXUXUXUXUXUXUXUXUXUXUXUXUXUXUXUXUXUXUXUXUXUXUXUXUXUXUXUXUXUXUXUXUXUXUXUXUXUXUXUXUXUXUXUXUXUXUXUXUXUXUXUXUXUXUXUXUXUXUXUXUXUXUXUXUXUXUXUXUXUXUXUXUX",
"UXUXUXUXUXUXUXUXUXUXUXUXUXUXUXUXUXUXUXUXUXUXUXUXUXUXUXUXUXUXUXUXUXUXUXUXUXUXUXUXUXUXUXUXUXUXUXUXUXUXUXUXUXUXUXUXUXUXUXUXUXUXUXUXUXUXUXUXUXUXUXUXUXUXUXUXUXUXUXUX",
"UXUXUXUXUXUXUXUXUXUXUXUXUXUXUXUXUXUXUXUXUXUXUXUXUXUXUXUXUXUXUXUXUXUXUXUXUXUXUXUXUXUXUXUXUXUXUXUXUXUXUXUXUXUXUXUXUXUXUXUXUXUXUXUXUXUXUXUXUXUXUXUXUXUXUXUXUXUXUXUX",
"UXUXUXUXUXUXUXUXUXUXUXUXUXUXUXUXUXUXUXUXvX/ j [.{.].$XSXUXUXUXUXUXUXUXUXUXUXUXUXUXUXUXUXUXUXUXUXUXUXUXUXUXUXUXUXUXUXUXUXUXUXUXUXUXUXUXUXUXUXUXUXUXUXUXUXUXUXUXUX",
"UXUXUXUXUXUXUXUXUXUXUXUXUXUXUXUXUXUXUXUX%X%XbXKXHXGX*X#XUXUXUXUXUXUXUXUXUXUXUXUXUXUXUXUXUXUXUXUXUXUXUXUXUXUXUXUXUXUXUXUXUXUXUXUXUXUXUXUXUXUXUXUXUXUXUXUXUXUXUXUX",
"UXUXUXUXUXUXUXUXUXUXUXUXUXUXUXUXUXUXUXUX$X.XcXMXZXZX@Xb.UXUXUXUXUXUXUXUXUXUXUXUXUXUXUXUXUXUXUXUXUXUXUXUXUXUXUXUXUXUXUXUXUXUXUXUXUXUXUXUXUXUXUXUXUXUXUXUXUXUXUXUX",
"UXUXUXUXUXUXUXUXUXUXUXUXUXUXUXUXUXUXUXUX{. XbXh t w h -XUXUXUXUXUXUXUXUXUXUXUXUXUXUXUXUXUXUXUXUXUXUXUXUXUXUXUXUXUXUXUXUXUXUXUXUXUXUXUXUXUXUXUXUXUXUXUXUXUXUXUXUX",
"UXUXUXUXUXUXUXUXUXUXUXUXUXUXUXUXUXUXUXUX/  XLXGXzX$Xj bXUXUXUXUXUX-XcXUXUXUXUXUXUXUXLXnXcXUXUXUXUXUXUXUXUXUXUXUXUXUXUXUXUXUXUXUXUXUXUXUXUXUXUXUXUXUXUXUXUXUXUXUX",
"UXUXUXUXUXUXUXUXUXUXUXUXUXUXUXUXUXUXUXcX Xn.MX7X[.#Xf dXUXUXUXUXoX#.UXUXUXUXUXUXUXlXv.l.f < b.cXUXUXUXUXUXUXUXUXUXUXUXUXUXUXUXUXUXUXUXUXUXUXUXUXUXUXUXUXUXUXUXUX",
"UXUXUXUXUXUXUXUXUXUXUXUXUXUXUXUXUXUXUXIX@X XMX{.f  XnXUXUXlX].-.8.3.UXUXUXUXUXUXUXM.I.c.lXLXbX[.*XUXUXUXUXUXUXUXUXUXUXUXUXUXUXUXUXUXUXUXUXUXUXUXUXUXUXUXUXUXUXUX",
"UXUXUXUXUXUXUXUXUXUXUXUXUXkXUXUXUXUXUXQ 6X'.MXKX&Xg i T %.4.w.O.8.XXUXUXUXUXUXUXnXZ.^..XGXJXJXGX].lXUXUXUXUXUXUXUXUXUXUXUXUXUXUXUXUXUXUXUXUXUXUXUXUXUXUXUXUXUXUX",
"UXUXUXUXUXUXUXUXUXUXUXUXUX].UXUXUXUX>.r 5X/ 5X@X*X].f 7.4...4.O.4.lXbXUXUXDXUXUXlXZ.Z.xXvX$XSXJXGX[.SXUXUXUXUXUXUXUXUXUXUXUXUXUXUXUXUXUXUXUXUXUXUXUXUXUXUXUXUXUX",
"UXUXUXUXUXUXUXUXUXUXUXUXUXh SXUXUX{.R p 5Xn.5X>.`.T %.} 4.4.7.8.1.#XqXLX-Xa h f t q i.SX*XGX*XGXJXSX$XUXUXDX&Xb.s.i.i.f a._.-XDXUXUXUXUXUXUXUXUXUXUXUXUXUXUXUXUX",
"UXUXUXUXUXUXUXUXUXUXUXUXUXg qXUX=XU %.j yXn.5XmX5Xg G ! Y R :.F s p 2.-.9 f.H.i..XkXh .X*X{.j =XJXJX_.UX=Xi.z.H.T.Q.R.U.E.~.Z.i.].SXUXUXUXUXUXUXUXUXUXUXUXUXUXUX",
"UXUXUXUXUXUXUXUXUXUXUXUXUXW W DXy H %./ fX7Xa  XpXn.p S R R 7 9 *.9.0.3.l P.Z.[.HXJXGXOX#Xk . h JXJX-Xh j.E.E.U.U.U.U.U.Y.I.U.U.D.s.*XUXUXUXUXUXUXUXUXUXUXUXUXUX",
"UXUXUXUXUXUXUXUXUXUXUXUXUXW D Q U E R n.mXaXR Y p r Y T G &.' ;.) 0.4.-.d !.i.SXJXJXJXGX[.$X% k GX*Xq z.I.U.Y.U.U.U.U.Y.U.T.U.~.R.!.l..XUXUXUXUXUXUXUXUXUXUXUXUX",
"UXUXUXUXUXUXUXUXUXUXUXUXUX,.E S I =.T @XmX$X` &.&.&.E ;.3 R ` w.8._ 0.q.a J.d.CX&XSXJXJXDXh SXSXdXp.G.G.U.T.U.E.U.U.U.E.R.R.I.C.G.E.~.z.#XUXUXUXUXUXUXUXUXUXUXUX",
"UXUXUXUXUXUXUXUXUXUXUXUXkXu D R R =.U 5XmX`.p R &.&.&.&.y ,.p 4.0.8.*.0.T S.N.cXLX=XGXJXJX-XkXDXa.G.U.R.Y.U.U.U.U.U.E.U.Z.V.D.S.T.U.U.E.p.cXUXUXUXUXUXUXUXUXUXUX",
"UXUXUXUXUXUXUXUXUXUXUXkXU Y U E E =.T 5XZX<.U 8 R &.&.&.8 `.Q s -.4.*.o.*.x.m.cXnX;X;XJXJXLX'.OXZ.R.Y.U.U.E.U.U.U.U.E.G.Z.D.U.U.U.E.U.U.^.d.UXUXUXUXUXUXUXUXUXUX",
"UXUXUXUXUXUXUXUXUXUXUXW H R D E =.=.j pXMXY Y <.y R &.&.W ;XMX>.VX}.s 4.$.D.a.GXg . & DXJXJX$Xi.H.R.G.T.U.U.U.U.U.U.U.U.G.U.E.U.U.U.E.U.E.k.nXUXUXUXUXUXUXUXUXUX",
"UXUXUXUXUXUX].&XSXUX-XU S 6 5 Y =.;./ fXqXY E ! 5.7 E ;.`.eX2   =XNXXX9.a.Y.v.GXbXO . CXJXKX[.Z.U.U.U.U.U.U.E.U.E.U.U.U.U.U.U.U.U.U.U.G.W.D.[.UXUXUXUXUXUXUXUXUX",
"UXUXUXUXUXUXUX>.r y 8 5 U Y D D R 9 n.mX7XG ! U 1X:XU R qXNXXX. ,.BXBX}.i.E.l.cXHXlX].GXJXSXq Y.E.T.U.E.U.U.U.U.U.U.U.E.U.U.U.U.U.U.U.E.U.Y.s.DXUXUXUXUXUXUXUXUX",
"UXUXUXUXUXUXUXUX|.P ~ H D A Z S A S n.MXXX2.! 7 1.1X>Xs eXBXNXwXNXBXNXPXp.W.D.b.GXKXJXJXJX$XF.~.U.I.U.U.E.U.U.U.U.U.U.U.U.U.G.U.U.U.U.U.U.U.Z.7XUXUXUXUXUXUXUXUX",
"UXUXUXUXUXUXUXUXUXh 7 Y A A 4 D A 7  XFXQ ].2.2.! ,X3X<X9XeXNXBXNXBXNXoXs.I.R.S.OXGXJXKXHXd.^.Y.U.U.U.U.U.U.U.U.U.U.U.U.U.U.U.R.U.U.U.U.U.U.H..XUXUXUXUXUXUXUXUX",
"UXUXUXUXUXUXUXUXSX6 1 > 1 5 1 A D 8 5XLXg DX4X,.>X,X1X1X2X2X9XeXBXBXNX%.g !.G.R.Z.[.LXSXnXs.D.Y.E.E.U.U.U.U.U.U.U.G.U.U.U.U.E.U.Y.U.E.U.U.E.~._.UXUXUXUXUXUXUXUX",
"UXUXUXUXUXUXUXUXqX; , 5 4 1 5 S J 8 fXMXy r k X :X1X,X1X1X2X2X<X4XXX|.H I F.Y.Q.J.l.h.l.l.h.p.D.E.U.U.U.U.E.U.U.U.E.U.U.U.U.U.U.U.U.U.U.U.Y.E.{.UXUXUXUXUXUXUXUX",
"UXUXUXUXUXUXUXUX$X< 5 Z Z > Z A 5 i mXMX! I     2.1X,X5.,X}.].kXMXy z Q < l.I.E.Y.~.~.E.E.Y.~.R.U.U.U.G.U.U.U.U.U.U.U.U.E.U.U.U.U.U.U.U.U.E.H.].UXUXUXUXUXUXUXUX",
"UXUXUXUXUXUXUXUX#XW V Z 5 > 5 , ; i pX7XY 5.! u :X1X1X1X,.qXSXcX,.v x |.PXd H.Y.E.E.Q.E.~.T.T.U.Y.U.U.U.U.U.U.U.U.U.U.E.U.U.U.U.U.U.U.U.U.U.x.lXUXUXUXUXUXUXUXUX",
"UXUXUXUXUXUXUXUXDXy 5 , 5 ; 1 : o j 6X.X4 ;.2X2X2X3X<X_.iXkX>.- z x x XXBXt J.G.~.E.E.E.W.G.U.G.G.U.E.U.R.U.U.U.U.U.U.U.U.U.U.U.U.E.U.U.U.T.c.DXUXUXUXUXUXUXUXUX",
"UXUXUXUXUXUXUXUXUX7 ; 1 > : 1 C 9 G p ( 3 6 6.2X2X3Xp b.'.< * z z z z wXwXg J.I.W.~./.(.gXAXFXFXgXI.E.U.G.U.E.U.U.E.U.U.U.U.U.U.U.U.E.T.E.I.OXUXUXUXUXUXUXUXUXUX",
"UXUXUXUXUXUXUXUXUX6 < , ; o C [ C O.8X( s 8 y >X<X|.* = = * - - z z S PX|.g D.Y.E.(.hXZXJXJXJXJXHXjX!.E.U.U.G.U.U.U.U.U.E.U.G.E.U.U.U.R.U.k.SXUXUXUXUXUXUXUXUXUX",
"UXUXUXUXUXUXUXUXUXj < , > : ] J 0 ..8X8XoXoX4 y <X2.* * * * * * * * wXPXe % S.R.(.pXpXFXJXJXJXJXKXHXgXD.U.E.E.U.U.U.U.U.U.U.U.U.U.U.T.E.Z.].UXUXUXUXUXUXUXUXUXUX",
"UXUXUXUXUXUXUXUXUX;X; > 1 V C oXr X + wX<.1.< < U >XI = = * * * : 4XBX`.O 7 h.H.hXpXsXZXJXJXJXJXJXJXFXA.T.~.U.U.U.U.U.U.U.U.E.U.U.U.U.G.v.UXUXUXUXUXUXUXUXUXUXUX",
"UXUXUXUXUXUXUXUXUXqX> , ; ] ] eXwXa oX,.zX4Xy 8 |.:X<X! < = : W <XNXwX2 X H I D.uXpXsXZXJXJXJXJXJXJXHXtX~.G.Q.U.Y.U.U.E.U.U.E.Y.U.R.H.a.vXUXUXUXUXUXUXUXUXUXUXUX",
"UXUXUXUXUXUXUXUXUX*X5 ; : } ` ,.XX2.eX-.t.8X4 5 :X3X3X3X3X<X<X9X9X>X2.>Xy , b i.uXyXfXmXFXJXJXJXJXHXKX@XI.E.E.G.U.U.U.U.U.U.U.E.G.G.s.bXUXUXUXUXUXUXUXUXUXUXUXUX",
"UXUXUXUXUXUXUXUXUX*XV : : X.%.9X4X1.9X_ 9.t.8 U W 2.:X<X3X,X5.2.W |.1X2X2.. X X b.5X5XpXxXFXJXJXJXJXSXA.T.U.T.U.U.U.U.U.U.U.E.T.G.S.k.DXUXUXUXUXUXUXUXUXUXUXUXUX",
"UXUXUXUXUXUXUXUXUX&XS : ; @.G <.! T ! ` *.t.1.u #.:.G s h < & & $ r W 1.,.X 2 @ e / 6XpXpXmXFXJXJXZX'.tXN.M.z.S.H.D.H.J.D.D.g.a.h.J.k.SXUXUXUXUXUXUXUXUXUXUXUXUX",
"UXUXUXUXUXUXUXUXUX&XA : 0 ..< 5.5.Y u ..-.u.VXVX4XT 3.s ].GXvXh   O < @ g $X%Xr 2 3 i B.yXiXaXmXxX7XDXHXHXLXvXlX#X_.d.{.g f lX&Xp.V.+XUXUXUXUXUXUXUXUXUXUXUXUXUX",
"UXUXUXUXUXUXUXUXUX-X} 0 G X.< ; 8 : 4 8.:.u.NXrXVX-X#.9 / CX=X&Xk   & O j @XsX_.9 9 _ $.f (.uXpXpXmXFXGXGXHXHXHXHXLX*X{.lXLXdXk.J.k.i.m.v.;XUXUXUXUXUXUXUXUXUXUX",
"UXUXUXUXUXUXUXUXUX4Xw.H 8 ....3 + W ) 9.9.-.2XeXeX<Xs s k f F.S.i.    O w '.a X o 0 ( $.j ~.F.).(.(.(.uXtX&X-X#X_.$XbXHXDX*XA.E.J.l.S.G.J.'.UXUXUXUXUXUXUXUXUXUX",
"UXUXUXUXUXUXUXUXUXqX<.4XbXXX} o.0.@.o.9.9.>.T 5.1X! < r # m.S.G.h.j.p.p.p.w 1 1 & % $ r i.W.E.U.U.U.U.T.).6XiXpX'.LXcX+Xk.G.U.G.C.C.T.M.%XUXUXUXUXUXUXUXUXUXUXUX",
"UXUXUXUXUXUXUXUXUXDXUXUXUXUX,.H ` 9.0.$.:.UXg o y # # # l 7Xm.P.x.J.T.Q.E.I.A.h.l.p.p.q p.S.F.G.G.U.U.U.K.6X5XyX@Xa.Z.~.W.R.T.U.Y.E.~.v.=XLXUXUXUXUXUXUXUXUXUXUX",
"UXUXUXUXUXUXUXUXUXUXUXUXUXUX*Xh LXbXzXvXSXUX$X  X O % % f '.Z.E.S.Z.G.G.g.w r a c.F.G.G.!.D.S.S.U.R.E.U.K.6XyXpXsXv.R.U.E.E.E.R.E.E.Y.E.^.B.UXUXUXUXUXUXUXUXUXUX",
"UXUXUXUXUXUXUXUXUXUXUXUXUXUXb.g lXUXUXUXUXUXvXO   % # O n.m.i.x.Q.G.C.q + 2 _ :.:.j S.G.U.U.W.T.U.U.R.G.).6XpXsXZX$XH.U.U.U.D.z.v.%XN.M.tXsXUXUXUXUXUXUXUXUXUXUX",
"UXUXUXUXUXUXUXUXUXUXUXUXUXUX].kX=XUXUXUXUXUXUX{.& % O e f m.d.S.U.H.i.+ # $ 3 -.6.3.v.D.U.Q.Y.E.U.U.E.Q.K.5XfXZXHXlXC.U.~.z.&XDXUXUXUXUXUXUXUXUXUXUXUXUXUXUXUXUX",
"UXUXUXUXUXUXUXUXUXUXUXUXUXUX].k bXUXUXUXUXUXUXUX4X*XnXcXk 6 u J.C.i.,.+ @ # l s 3.6.:.j.Y.T.E.U.U.U.E.R.L.pXZXHXHXzXD.G.M.bXUXUXUXUXUXUXUXUXUXUXUXUXUXUXUXUXUXUX",
"UXUXUXUXUXUXUXUXUXUXUXUXUXUXUXe [.UXUXUXUXUXUXSXa.OXDXKXQ L c v b <.oX@ @ # $ 2 $.t.9.i D.T.U.U.U.U.U.U.gXmXHXKXJXCXA.B.vXUXUXUXUXUXUXUXUXUXUXUXUXUXUXUXUXUXUXUX",
"UXUXUXUXUXUXUXUXUXUXUXUXUXUXUX].kX#X[.vXUXUXUX$XH.S.'.DXQ L v B b oXoX@ # # # $ a 3.u.s H.U.U.E.U.T.U.H.hXFXJXJXJXbX_.UXUXUXUXUXUXUXUXUXUXUXUXUXUXUXUXUXUXUXUXUX",
"UXUXUXUXUXUXUXUXUXUXUXUXUXUXUX&Xj l -X].UXUXUXOX/.T.H.A.g } n M A :.6.@ @ # # # e -.9./ I.U.U.U.U.R.E./.AXHXJXJXJXvXcXkX_.-.s `.-XbXUXUXUXUXUXUXUXUXUXUXUXUXUXUX",
"UXUXUXUXUXUXUXUXUXUXUXUXUXUXDXb./ / dX{.UXUXUX'.J.U.W.U.F.1.J N H :.8.O # # # # e <.6.v.U.U.U.U.U.G.R.(.HXJXJXJXJXlX].`.) ) ' 0.0.*.$XUXUXUXUXUXUXUXUXUXUXUXUXUX",
"UXUXUXUXUXUXUXUXUXUXUXUXUXUXSXj  XpXZX.XSXUXUXOXH.T.E.!.R.Z.k  .A O.o.3 # # # # $ ( -.l.E.E.U.U.U.U.!.jXJXKXJXJXJX].7X1.) 4.+.+.q.o.*.lXUXUXUXUXUXUXUXUXUXUXUXUX",
"UXUXUXUXUXUXUXUXUXUXUXUXUXUXUXCX_.iXaX[.UXUXUX=XD.Y.E.E.U.G.k.` H ....' % # # # @ p s A.U.U.T.U.T.Q./.FXJXJXJXJXHX|.eX*._ q.q.q.o.o.w.>.UXUXUXUXUXUXUXUXUXUXUXUX",
"UXUXUXUXUXUXUXUXUXUXUXUXUXUXUXUXDX$X$XLXUXUXUXbXZ.E.Y.E.E.U.I.h.Y 8 F ..F + + # + $ p f D.E.T.E.Y.R.gXJXJXJXJXJXqXnX4X} ' q.o.q.O.w.X.T UXUXUXUXUXUXUXUXUXUXUXUX",
"UXUXUXUXUXUXUXUXUXUXUXUXUXUXUXUXUXUXUXUXUXUXUXSXM.H.E.E.U.E.I.~.S.S.k.G { C X O + $ #.-.Z.E.U.E.Y./.AXJXJXJXJXSX<.0X3.H ) X.X.X. . .| R UXUXUXUXUXUXUXUXUXUXUXUX",
"UXUXUXUXUXUXUXUXUXUXUXUXUXUXUXUXUXUXUXUXUXUXUXUX[.(.~.E.T.I.R.Q.R.E.U.h.R ` + @ @ @ s ( F.R.R.E.Y.hXFXJXJXJXGX[.:.e.:.L D | | | | | | R UXUXUXUXUXUXUXUXUXUXUXUX",
"UXUXUXUXUXUXUXUXUXUXUXUXUXUXUXUXUXUXUXUXUXUXUXUX*X@X(.F.R.Y.T.E.U.G.J.k.F.f.# @ @ + q Z.E.T.U.R.).FXJXJXJXKX-X#.:.+.8.H A | | | | | | R UXUXUXUXUXUXUXUXUXUXUXUX",
"UXUXUXUXUXUXUXUXUXUXUXUXUXUXUXUXUXUXUXUXUXUXUXUXUXn.yXuXK./.R.E.U.Y.H.Z.U.U.j.p.h.Z.I.G.E.E.E.K.AXGXJXJXKXdXi r.:.+.o.G 5  .| | | | | W UXUXUXUXUXUXUXUXUXUXUXUX",
"UXUXUXUXUXUXUXUXUXUXUXUXUXUXUXUXUXUXUXUXUXUXUXUXUXlX@XiXyX(.L.H.I.^.V.!.G.W.U.T.Y.H.U.T.G.U.).AXHXJXJXGX-XZ.`.+.0.' O.} Z L | | K L L ;XUXUXUXUXUXUXUXUXUXUXUXUX",
"UXUXUXUXUXUXUXUXUXUXUXUXUXUXUXUXUXUXUXUXUXUXUXUXUXUX-X%XpX7XiXuXuXB.D.R.T.U.U.E.H.V.E.E.J.(.AXGXJXJXFXN.D.Y.m.q.o.o.O.@.Z n N N N M I DXUXUXUXUXUXUXUXUXUXUXUXUX",
"UXUXUXUXUXUXUXUXUXUXUXUXUXUXUXUXUXUXUXUXUXUXUXUXUXUXUX=X XsXpX XW z.W.Y.R.U.E.!.p.K.).gXmXZXGXKXGXnX$X@XM.F.k.X.@.o.O.{ A n m m M m b UXUXUXUXUXUXUXUXUXUXUXUXUX",
"UXUXUXUXUXUXUXUXUXUXUXUXUXUXUXUXUXUXUXUXUXUXUXUXUXUXUXUXbX'.@X` } F.T.T.R.U.U.c.5XpXxXmXZXGXJXSX;XkXUXUXUX&Xa.` { ..{ { v x M m M m b cXUXUXUXUXUXUXUXUXUXUXUXUX",
"UXUXUXUXUXUXUXUXUXUXUXUXUXUXUXUXUXUXUXUXUXUXUXUXUXUXUXUXUXUXlXH  .b.D.J.E.U.z.OXsXmXAXSXcXdX;X-XUXUXUXUXUXUXDX#X..F  .[ v n M m M M n bXUXUXUXUXUXUXUXUXUXUXUXUX",
"UXUXUXUXUXUXUXUXUXUXUXUXUXUXUXUXUXUXUXUXUXUXUXUXUXUXUXUXUXUXDX9 ]  .} b.c.c.( #.{.[.[.OX4XCXUXUXUXUXUXUXUXUXUXUXqX7XH } Z v N m m c Q UXUXUXUXUXUXUXUXUXUXUXUXUX",
"UXUXUXUXUXUXUXUXUXUXUXUXUXUXUXUXUXUXUXUXUXUXUXUXUXUXUXUXUXUX}.] G C ' 0.9.*.$.s -XUXUXUXUXUXUXUXUXUXUXUXUXUXUXUXUXUXbX$X#X_.Q u Q $XUXUXUXUXUXUXUXUXUXUXUXUXUXUX",
"UXUXUXUXUXUXUXUXUXUXUXUXUXUXUXUXUXUXUXUXUXUXUXUXUXUXUXUXUXUXF [ [ [ } ) _ 0.y.y.u._.DXUXUXUXUXUXUXUXUXUXUXUXUXUXUXUXUXUXUXUXUXUXUXUXUXUXUXUXUXUXUXUXUXUXUXUXUXUX",
"UXUXUXUXUXUXUXUXUXUXUXUXUXUXUXUXUXUXUXUXUXUXUXUXUXUXUXUXUXDXD [ [ [ X.) r.e.y.y.y.0X{.UXUXUXUXUXUXUXUXUXUXUXUXUXUXUXUXUXUXUXUXUXUXUXUXUXUXUXUXUXUXUXUXUXUXUXUXUX",
"UXUXUXUXUXUXUXUXUXUXUXUXUXUXUXUXUXUXUXUXUXUXUXUXUXUXUXUXUX-XZ ] [ [ C O.e.e.e.e.0XrX8XlXUXUXUXUXUXUXUXUXUXUXUXUXUXUXUXUXUXUXUXUXUXUXUXUXUXUXUXUXUXUXUXUXUXUXUXUX",
"UXUXUXUXUXUXUXUXUXUXUXUXUXUXUXUXUXUXUXUXUXUXUXUXUXUXUXUXUXlXc b C [ { O.o.e.+.e.y.VXVX$XUXUXUXUXUXUXUXUXUXUXUXUXUXUXUXUXUXUXUXUXUXUXUXUXUXUXUXUXUXUXUXUXUXUXUXUX",
"UXUXUXUXUXUXUXUXUXUXUXUXUXUXUXUXUXUXUXUXUXUXUXUXUXUXUXUXUXUX|.b b ] { { +.e.+.+.y.rXVX'.UXUXUXUXUXUXUXUXUXUXUXUXUXUXUXUXUXUXUXUXUXUXUXUXUXUXUXUXUXUXUXUXUXUXUXUX",
"UXUXUXUXUXUXUXUXUXUXUXUXUXUXUXUXUXUXUXUXUXUXUXUXUXUXUXUXUXUXUX*X, } { { +.e.+.+.y.rXBX[.UXUXUXUXUXUXUXUXUXUXUXUXUXUXUXUXUXUXUXUXUXUXUXUXUXUXUXUXUXUXUXUXUXUXUXUX",
"UXUXUXUXUXUXUXUXUXUXUXUXUXUXUXUXUXUXUXUXUXUXUXUXUXUXUXUXUXUXUXbXb V { { O.o.+.y.0XBXVX`.UXUXUXUXUXUXUXUXUXUXUXUXUXUXUXUXUXUXUXUXUXUXUXUXUXUXUXUXUXUXUXUXUXUXUXUX",
"UXUXUXUXUXUXUXUXUXUXUXUXUXUXUXUXUXUXUXUXUXUXUXUXUXUXUXUXUXUXUXZXv c ` { O.o.q.0X0X8Xa xXUXUXUXUXUXUXUXUXUXUXUXUXUXUXUXUXUXUXUXUXUXUXUXUXUXUXUXUXUXUXUXUXUXUXUXUX",
"UXUXUXUXUXUXUXUXUXUXUXUXUXUXUXUXUXUXUXUXUXUXUXUXUXUXUXUXUXUXUXUXXXB b S ' ..4.-.$.3 ].UXUXUXUXUXUXUXUXUXUXUXUXUXUXUXUXUXUXUXUXUXUXUXUXUXUXUXUXUXUXUXUXUXUXUXUXUX",
"UXUXUXUXUXUXUXUXUXUXUXUXUXUXUXUXUXUXUXUXUXUXUXUXUXUXUXUXUXUXUXUXUX$Xv b n b A %.,.lXUXUXUXUXUXUXUXUXUXUXUXUXUXUXUXUXUXUXUXUXUXUXUXUXUXUXUXUXUXUXUXUXUXUXUXUXUXUX",
"UXUXUXUXUXUXUXUXUXUXUXUXUXUXUXUXUXUXUXUXUXUXUXUXUXUXUXUXUXUXUXUXUXUXFXlX-X#X-XcXUXUXUXUXUXUXUXUXUXUXUXUXUXUXUXUXUXUXUXUXUXUXUXUXUXUXUXUXUXUXUXUXUXUXUXUXUXUXUXUX",
"UXUXUXUXUXUXUXUXUXUXUXUXUXUXUXUXUXUXUXUXUXUXUXUXUXUXUXUXUXUXUXUXUXUXUXUXUXUXUXUXUXUXUXUXUXUXUXUXUXUXUXUXUXUXUXUXUXUXUXUXUXUXUXUXUXUXUXUXUXUXUXUXUXUXUXUXUXUXUXUX",
"UXUXUXUXUXUXUXUXUXUXUXUXUXUXUXUXUXUXUXUXUXUXUXUXUXUXUXUXUXUXUXUXUXUXUXUXUXUXUXUXUXUXUXUXUXUXUXUXUXUXUXUXUXUXUXUXUXUXUXUXUXUXUXUXUXUXUXUXUXUXUXUXUXUXUXUXUXUXUXUX",
"UXUXUXUXUXUXUXUXUXUXUXUXUXUXUXUXUXUXUXUXUXUXUXUXUXUXUXUXUXUXUXUXUXUXUXUXUXUXUXUXUXUXUXUXUXUXUXUXUXUXUXUXUXUXUXUXUXUXUXUXUXUXUXUXUXUXUXUXUXUXUXUXUXUXUXUXUXUXUXUX",
"UXUXUXUXUXUXUXUXUXUXUXUXUXUXUXUXUXUXUXUXUXUXUXUXUXUXUXUXUXUXUXUXUXUXUXUXUXUXUXUXUXUXUXUXUXUXUXUXUXUXUXUXUXUXUXUXUXUXUXUXUXUXUXUXUXUXUXUXUXUXUXUXUXUXUXUXUXUXUXUX",
"UXUXUXUXUXUXUXUXUXUXUXUXUXUXUXUXUXUXUXUXUXUXUXUXUXUXUXUXUXUXUXUXUXUXUXUXUXUXUXUXUXUXUXUXUXUXUXUXUXUXUXUXUXUXUXUXUXUXUXUXUXUXUXUXUXUXUXUXUXUXUXUXUXUXUXUXUXUXUXUX"
};
