/* XPM */
static char *result[] = {
/* columns rows colors chars-per-pixel */
"64 64 27 1 ",
"  c #222222",
". c #232323",
"X c gray14",
"o c #252525",
"O c gray15",
"+ c #272727",
"@ c #282828",
"# c gray16",
"$ c gray20",
"% c #343434",
"& c #353535",
"* c gray21",
"= c #373737",
"- c gray22",
"; c #3A3A3A",
": c #565656",
"> c gray34",
", c #585858",
"< c gray35",
"1 c #5A5A5A",
"2 c #626262",
"3 c gray39",
"4 c #646464",
"5 c #656565",
"6 c #959595",
"7 c gray59",
"8 c #979797",
/* pixels */
"32%$$$$$$%>,7743>,77,>%$$%>>%%>>32%$$$$$$%>,7743>,77,>%$$%>>%%>>",
"22&%%%**%&,17754>,771,&%$%::&&:>22&%%%**%&,17754>,771,&%$%::&&:>",
"%&22246644775576==787742X.%&::&%%&22246644775576==787742X.%&::&%",
"$%22246633664466;;677742OX*=>>&%$%22246633664466;;677742OX*=>>&%",
"$$XX%%**XX**%%*;66;=,,>>:,66,>22%$XX%%**XX**%%*;66;=,,>>:,66,>22",
"%%@@%%%%XX$$%%*;66=&:>>>>,66,>32&%@@%%%%XX$$%%*;66=&:>>>>,66,>33",
">,664222>:XX:,661,>:&%%%%%**%&>>>,664222>:XX:,661,>:&%%%%%**%&>>",
":,665422>:XX:,66,>>:&%****%%%&:>:,665422>:XX:,66,>>:&%****%%%&:>",
"XX*;66-%%%$$%&,,&%%&2467764222&%XX*;66-%%%$$%&,,&%%&2467764222&%",
" .%=66=%$$%%%&::%$$%2477764222%$..%=66=%$$%%%&::%$$%2477764222%$",
"$%:>,,>:%%:>>:&%$$.X>>,,=*%%XX$$$%:>,,>:%%:>>:&%$$.X>>,,=*%%XX$$",
"*=,,>>>>&&,,,,&%%%XO,,,,&%**..$$*=,,>>>>&&,,,,&%%%XO,,,,&%**..$$",
"777743>>24777742>>2377774466*$.@677743>>24777742>>2377774466*$. ",
"777743>>34777742>>2367764466-%X#677743>>34777742>>2367764466-%XX",
",,,,>>&&>>,,,,&%%%XX***=>>=-22>:,,,,>>&&>>,,,,&%%%XX***=>>=-22>:",
">>,,,,&&:>>>>>&%%%@@**%&,,=-44<,>>,,,,&&:>>>>>&%%%@@**%&,,=-44<,",
"347776,:&%%&>>>>2467764477777777447776,:&%%&>>>>2467764477777777",
"346776,:%$%&:>>>2477774467778877446776,:%$%&:>>>2477774467778877",
">>=***XX$%::&&>>&&44<,&%***;7754>>=***XX$%::&&>>&&44<,&%***;7754",
">>&%**..%&,,==::%%22<,=***%-6642>>&%**..%&,,==::%%22<,=***%-6642",
"332466*%247776=%..%-67777642-*%&232466*%247776=%..%-67777642-*%%",
"223476=&246776-%@@*;67777754-*$%223476=&246776-%@@*;67777754-*$$",
"XO>>,,>:&%*=,<2467761<44457776@ XO>>,,>:&%*=,<2467761<44457776@ ",
"Xo:>>>>:&%%&:>247787,>22246776#XXo:>>>>:&%%&:>247787,>22246776#X",
"::&%%%%&22>:&%%&4577=%%%%%***=::::&%%%%&22>:&%%&4577=%%%%%***=::",
">>=*%%*-23>:&%$%2466*$$$%%%%*=,,>>=*%%*-23>:&%$%2466*$$$%%%%*=,,",
"34664466<>oo::%$%%**..$%:>24677744664466<>oo::%$%%**..$%:>246777",
"34774466,:oo::%$%%%%@@*=>>24677744774466,:oo::%$%%%%@@*=>>246777",
"3344>>=*%&::&%$%:>246776,>&%*=,<3344>>=*%&::&%$%:>246776,>&%*=,,",
"2222>:%$$%,,=*%&:>347776,:%$%&>>2222>:%$$%,,=*%&:>347776,:%$%&>>",
"%%XX%%$$.@677642&&>>43#@%%$%:>32&%XX%%$$.@677642&&>>43#@%%$%:>33",
"%%..$$$$.@678742&&,<32X.$$%&:>32&%..$$$$.@678742&&,<32X.$$%&:>33",
"22%$$$$$$%,17743>,66<>%$$%::&&>>22%$$$$$$%,17743>,66<>%$$%::&&>>",
"22&%%%**%&,17754>,771,&%$%::&&:>22&%%%**%&,17754>,771,&%$%::&&:>",
"%&22246644775576==787742X.%&::&%%&22246644775576==787742X.%&::&%",
"$%22246633664466;;677742OX*=>>&%$%22246633664466;;677742OX*=>>&%",
"$$XX%%**XX**%%*;66;=,,>>:,66,>22%$XX%%**XX**%%*;66;=,,>>:,66,>22",
"%%@@%%%%XX$$%%*;66=&:>>>>,66,>32&%@@%%%%XX$$%%*;66=&:>>>>,66,>33",
">,664222>:XX:,661,>:&%%%%%**%&>>>,664222>:XX:,661,>:&%%%%%**%&>>",
":,665422>:XX:,66,>>:&%****%%%&:>:,665422>:XX:,66,>>:&%****%%%&:>",
"XX*;66-%%%$$%&,,&%%&2467764222&%XX*;66-%%%$$%&,,&%%&2467764222&%",
" .%=66=%$$%%%&::%$$%2477764222%$..%=66=%$$%%%&::%$$%2477764222%$",
"$%:>,,>:%%:>>:&%$$.X>>,,=*%%XX$$$%:>,,>:%%:>>:&%$$.X>>,,=*%%XX$$",
"*=,,>>>>&&,,,,&%%%XO,,,,&%**..$$*=,,>>>>&&,,,,&%%%XO,,,,&%**..$$",
"777743>>24777742>>2377774466*$.@677743>>24777742>>2377774466*$. ",
"777743>>34777742>>2367764466-%X#677743>>34777742>>2367764466-%XX",
",,,,>>&&>>,,,,&%%%XX***=>>=-22>:,,,,>>&&>>,,,,&%%%XX***=>>=-22>:",
">>,,,,&&:>>>>>&%%%@@**%&,,=-44<,>>,,,,&&:>>>>>&%%%@@**%&,,=-44<,",
"347776,:&%%&>>>>2467764477777777447776,:&%%&>>>>2467764477777777",
"346776,:%$%&:>>>2477774467778877446776,:%$%&:>>>2477774467778877",
">>=***XX$%::&&>>&&44<,&%***;7754>>=***XX$%::&&>>&&44<,&%***;7754",
">>&%**..%&,,==::%%22<,=***%-6642>>&%**..%&,,==::%%22<,=***%-6642",
"332466*%247776=%..%-67777642-*%&232466*%247776=%..%-67777642-*%%",
"223476=&246776-%@@*;67777754-*$%223476=&246776-%@@*;67777754-*$$",
"XO>>,,>:&%*=,<2467761<44457776@ XO>>,,>:&%*=,<2467761<44457776@ ",
"Xo:>>>>:&%%&:>247787,>22246776#XXo:>>>>:&%%&:>247787,>22246776#X",
"::&%%%%&22>:&%%&4577=%%%%%***=::::&%%%%&22>:&%%&4577=%%%%%***=::",
">>=*%%*-23>:&%$%2466*$$$%%%%*=,,>>=*%%*-23>:&%$%2466*$$$%%%%*=,,",
"34664466<>oo::%$%%**..$%:>24677744664466<>oo::%$%%**..$%:>246777",
"34774466,:oo::%$%%%%@@*=>>24677744774466,:oo::%$%%%%@@*=>>246777",
"3344>>=*%&::&%$%:>246776,>&%*=,<3344>>=*%&::&%$%:>246776,>&%*=,,",
"2222>:%$$%,,=*%&:>347776,:%$%&>>2222>:%$$%,,=*%&:>347776,:%$%&>>",
"%%XX%%$$.@677642&&>>43#@%%$%:>32&%XX%%$$.@677642&&>>43#@%%$%:>33",
"$$  $$$$ +788742%%>>32X $$$%>>32%$  $$$$ +788742%%>>32X $$$%>>33"
};
