/* XPM */
static char *_67a62524d804cf1d8a3af58f9d8d72aBlKRzhFn7OJwT2TK[] = {
/* columns rows colors chars-per-pixel */
"64 64 87 1 ",
"  c #363536",
". c #3D3C3D",
"X c #424A2C",
"o c #5B663F",
"O c #5C683F",
"+ c #5A713C",
"@ c #464446",
"# c #474548",
"$ c #484749",
"% c #4C4C4C",
"& c #4F4E50",
"* c #514F51",
"= c #545254",
"- c #595759",
"; c #5C6740",
": c #5D6941",
"> c #617646",
", c #657F44",
"< c #615F62",
"1 c #626163",
"2 c #6B6B6B",
"3 c #6F736F",
"4 c #70736F",
"5 c #6F7370",
"6 c #717471",
"7 c #7C7A7D",
"8 c #668045",
"9 c #688146",
"0 c #698248",
"q c #70824C",
"w c #768A53",
"e c #788B56",
"r c #7D9256",
"t c #7E9455",
"y c #7F9456",
"u c #7E9457",
"i c #7F9358",
"p c #7F9458",
"a c #809558",
"s c #809559",
"d c #7F7D80",
"f c #7F8080",
"g c #7F8180",
"h c #7F8181",
"j c #808181",
"k c #808182",
"l c #828382",
"z c #828483",
"x c #838483",
"c c #828384",
"v c #838384",
"b c #838484",
"n c #848584",
"m c #848685",
"M c #848686",
"N c gray53",
"B c #878888",
"V c #8B8B8A",
"C c #8B8A8B",
"Z c #8C8C8B",
"A c #8C8A8C",
"S c #8C8B8C",
"D c #8D8B8D",
"F c #8C8C8D",
"G c #8E8D8D",
"H c #8E8C8E",
"J c #8F8C8E",
"K c #8E8D8F",
"L c #8F8D8F",
"P c #8F8E8F",
"I c #999599",
"U c #999699",
"Y c #9A9799",
"T c #9A969B",
"R c #9B969B",
"E c #9B979B",
"W c #9B989B",
"Q c #9C989B",
"! c #9C989C",
"~ c #9C999C",
"^ c #9F9D9F",
"/ c #9F9DA0",
"( c #9F9EA1",
") c #A19FA1",
"_ c #A19FA3",
"` c #A8A9A7",
"' c #AAAAA9",
/* pixels */
"PSE!00eeeeuuuaee00!QaiaiPP00iiq0 =WW00eeeeuuuuee89!!aaaaLP90aa90",
"PCEE88wwwwrrueww,,!QiruuSC,,ii88..TW08wwwwurtuww89QQuureVV89uu,9",
"EEfjCZ8,iuwwtu88VSjndjjjjz9,,,ei.*dfCF8,ttwwwt8,PZjjxjjjjz9,,,uu",
"EEjjCP88uuwwuu88PPjjjjvjzj,9q>ia$$ffCF88urwwat8,PZjzjjjjjv99,,uu",
"WECCfj89ww88wq9,vjnjerQQ89zz99mm##CCfb88ww,,ww88jjjjarQQ99jn9,mx",
"EECPjm89ww88ww99vjjvuaQQ88jz88zd==CFfb88ww,,ww88nzjjer!!89jj,9mN",
"EE7jZCjj,8EUww43jvQQVVndCPjzuuzz==bfCFbh,8EEww33jjQEVVjjVVjnrrxm",
"EEjjSPbz,,EEww33jjQQVVjjCVzjuwxa-*ffCKbb88EWww33xnQEPVjjLVnxeamx",
"EECC88VCCVcd,,Bcnd,,ee''jj42QQB6-*CC,,CVPVjj88jzvz88we''sc25/Tdc",
"EWCC89VCVVdd,,dMda,,ww``jj34IQm6=*FC,,VVVVzj88zjvu,8we'`dd55TTcv",
"CC77>>88zcKAAALKaawwre,,,,QEjj9+&#77>>8,vjVSCZPVepwwpw,,>,_Tkv,,",
"PC77>>88sMAAKAKKwawwre99,9Q!jj,+&%77>>8,vvSSPVCCpeeqpp,,,,//cv,,",
"7766>>>>53CC55,,eeaw,,,,mjnnvve0#@56>>>>63PC3488aaea8,,,bffbvvii",
"d736>>>>63KC55,,aaaa,,,,nnnjbap5$.55>>>>66SP3388aeaa88,,mzbbkvpi",
"&%%%##XX%%%%####@@XXXXXXXX%%%%%%&%%=##XX%%%%###@@#XXXXXXXX%%%%#%",
"%%%%##XX%#&$####@@XXXXXXXX%%%%$%%%%%##XX$%%$####@.XXXXXXXX%%$%%%",
"aauu,,))(((`CA#@AK______((,8uuuuuuuu88)())))SS@@PJ))))))))89puuu",
"uuui,9^)((((AK@@KA//////(^88uuuuuuui88(()(()SC@@PS!)((((((8,pupe",
"98PSSSSSFChhdc#@(TCCdvCCCPCPCV88,,SSCZCCCCjjjv@@EEPCjvSCSSSSCP,8",
"09CCSSSSKKMdcc##TTCKvvCCFCFCVV,009SSSSPCSCvjjv@@EQSSjjSCSSSSVC88",
"PSvjjvSSddbMCF@@WWjj55CC33CV89zzPVjjbjKPjffbSP#@!Qjj33PC33LV89jz",
"PSjjjjSSdvbdCC@@WTbf55CS33FF88ffPCvjjfFCvvjvCC#@EEjj36SV33VL98jx",
"jjZSZCjjbvuu33@@!T33jb55bbvvo:CPxjSSFCbfzfpi33@@!E33jm63jjjzooPP",
"mvCSSPjvbpeu35@@W!35bf35bfvfooPPmjCSFFfbffrr33@@!Q33vj33jmjjooZP",
"zjjvfzbzPVurPP#@KCwwiidBKFdh5633njjjvzjjCCrrVC#@PVwwuufzPPjb5633",
"bjjzffzfVVrrCC@@PPwwiidhKKMh5336mjjvxjvmCCrrCP@@PCwwuijfCCbb5336",
"SCPP33ZZrrrrFP@@PCrrddVPKKdBbbPKSSSS33LVrrrrCZ#@PCuejjCPCCjjzbPP",
"PPCC33ZZrrrrCC@#SCrrMsCCAKdMfbFKLLSS35SVrrriVP@@ZCuujjCCPCbzjjCS",
"6333eeeerrVPWW##43eeewPP55hhMb666666wwwearVVEQ$$44ewewPP33zzbj66",
"6366eeerrrFFEW##66eeewCP55vhbb556366wewwarVSEQ@$66eeeaPS33mzmj66",
"11XXXXXXXX%%@#####XXXXXX%&%&XXXX%%XXXXXXXX%%@$$$$$XXXXXX%%%%XXXX",
"11XXXXXXXX%%%###$$XXXXXX%&%&XXXX%%XXXXXXXX%%##$$$$XXXXXX$*==XXXX",
"JKT!00eeewuuuuew>>(TssiiLL00ia00%%WW90eeeeuuauwe99Q!piiuCK90ap90",
"SART,,eewwetuuww,>T(iseiVV,0rr9,%%WW88wwwwtrruww89W!pppuFV88pp89",
"!IjvJS,,aawweu88KKBdBdBijj8898ra==fzCC88ttwwrw98SSazjbjjfb88,8uu",
"!TjjKSq,tuwwuu88KKddBdMezb8888ra-%fbFP88uuwwuu98SPbbjbjjjj98,8uu",
"TECCvj>,ww88ww88BcddueWU88fz,9jm==KKfb88ww,,ww88vvvvepTT89xx8,bb",
"!ECCvv,,ww,8ww88McdMuuEW88zz9,mm**AKfb88ww,,ww88vvddpeTT89zj88bB",
"EIjjSSnz8,UUww33dc//CCzjCZjzrrjj=-ddFPfb,8WWww33vbTTKFhvCCzjuumx",
"EEvfSLju,8QWww33cdTICPjfCPjzrum6=-BeCPfb,8WWww33vhTTFCvdPVzxeuxm",
"EESC,,PSSCdj88bzcd,,ww``fj33EEx7*-KA,,KACFfh88ffvb88we'`eB25(Idb",
"TICC,9SCCSvj88fbhM,,ww``jj33EEm6=-AA,,AAKAhh88bzvp88we'`7z55EEvv",
"SC77>>88vvCCPCFCiiwwrr,8,9QQfj8+#&dd>>,,mjKFCCPVepwwpw,,>8)Evh,,",
"PS77>>88vbCPCPVCiiwwri8898EQfj88$=dd>>,,vfFFPVCCpeeqpp,,88(Evb,,",
"7756>>>>65PC66,,urrr,888xjxjzjuu#&55>>>>65PC3388ppes88,,bbbfvvii",
"j766>>>>66CC35,8uurw8888jdzxxjua@&55>>>>66SP3488pess88,,mfbbvvwu",
"%%%%##XX%%%%##@#X@XXXXXXXX%%%%$%$#&%$#XX%%%%###@@@XXXXXXXX%%%%%%",
"=%%$@@XX%$%$##@@@@XXXXXXXX%%%%%@&$#%$#XX$%%$####@.XXXXXXXX%%#%%%",
"ruuu9,))))))SS$#PP)(__)_)),8uuuuuuuu0,(())))SS@@PP^^)))_))89puuu",
"auuu9,)(()((PS#@PP/(((((((,0uuuuuuui,>(/))((SS@@PP^)))((((,,puae",
"0,CCSSSSCCdvjv@@!TSCdjSCSSCSFF889,KCAAFKSSvjvv@@QQVVjjCCSSSSVC88",
"0,VCSSSSSSjjvd@@!WCCjvSSSSSSCP889,AAKAFFBAjjvj@@EQSSjjCCSSSSPC98",
"LPjvjjSSjjjjPP#@RRjv52AA53ZP,,zbKCvfMdKKjjvvCV$@EQjj63CP33LV88jz",
"VCjjjvCPjzzjCC@@RRvd55AC35CP88jjKFbfddKFjvjjPS$@EEjj34CP35VL88jx",
"vjSVLSjjbzur43@@TT55vv55jmvvooCPmfCPAAMdMsai66@@!E33vm63jjzjooLP",
"vjPCZSjvjfru32@@TT55vv55vjjvooCPmfCCKKdMddae24@@!E33jj33bbjjooZP",
"bjjjjzbjPCrrBP@@VVwwauvvPCjb3333vvjjvzjjVVutVZ@@PVwwpamjPCjb5633",
"bjzjzjzjCZrrZZ@@LLwwwuvjCPbb3333mjjvbjbbCCttVV@@LVwwerjjPCbb5336",
"PPPC33VCrrrrCF@@LVurajPJCCbjzjPPSSSS33PCteuiVV$@JVuejzSSCCffbbPP",
"PCCP33FVrrrrCP@@LVerxmSSCPbjbbZLKKSS33CPtueaSL@@JVuuxjVVPCvzjjVC",
"6333eeewupCCWW@#66ewweCP33jbzz466333wwwwreVSEQ@$44ewewCC44mxbj66",
"6344eeewupCCEW##66eeeeVP33bbzz666443wwewirVSEQ$$46eeeePP34jmmz66",
"CmOO;;oooo22<1##11OOOO;;2222;O;;CmOO;;;:OO22<<$$11OO;;;;2222O;;;",
"Bb;::;;;;;2211##11;;;;;;2222;:::Bm;:::;;;;221<$$11OO;;;:2222;::;"
};
