<?xml version="1.0" standalone="no"?>
<!DOCTYPE svg PUBLIC "-//W3C//DTD SVG 20010904//EN"
 "http://www.w3.org/TR/2001/REC-SVG-20010904/DTD/svg10.dtd">
<svg version="1.0" xmlns="http://www.w3.org/2000/svg"
 width="3840.000000pt" height="2160.000000pt" viewBox="0 0 3840.000000 2160.000000"
 preserveAspectRatio="xMidYMid meet">

<g transform="translate(0.000000,2160.000000) scale(0.100000,-0.100000)"
fill="#000000" stroke="none">
<path d="M0 10800 l0 -10800 8585 0 8585 0 0 63 c1 34 5 105 10 157 5 52 18
200 30 329 12 129 26 243 31 253 5 10 6 18 2 17 -4 -1 -15 1 -24 5 -20 9
-3875 3 -3884 -6 -4 -3 -10 -21 -15 -40 -4 -18 -33 -127 -65 -243 -31 -116
-69 -257 -84 -315 -21 -81 -32 -106 -46 -109 -13 -2 -16 1 -11 14 6 16 21 69
106 380 16 61 41 151 55 200 15 50 28 97 30 105 3 13 -13 16 -108 15 -62 -1
-941 -2 -1955 -3 -1745 -2 -1843 -3 -1848 -19 -4 -10 -38 -88 -77 -173 -39
-85 -83 -184 -98 -219 -15 -36 -34 -66 -43 -67 -18 -3 -28 -29 99 256 48 107
92 201 97 208 6 6 9 12 7 12 -2 0 -185 1 -406 3 -306 1 -405 5 -415 15 -10 9
72 12 409 12 l421 0 22 47 c36 75 138 298 186 408 25 55 53 118 64 140 54 111
180 390 180 397 0 4 -564 8 -1253 8 -1072 0 -1256 2 -1273 14 -17 13 -15 14
26 9 53 -6 350 -7 1593 -5 l927 2 14 32 c8 18 21 49 29 68 8 19 34 76 56 126
23 51 41 94 41 97 0 3 23 54 51 114 28 59 52 113 53 118 1 6 5 16 9 22 6 10
-359 13 -1781 15 -1933 3 -1841 0 -1806 54 9 13 21 21 27 17 6 -3 7 -1 3 5 -9
15 23 64 37 55 6 -4 8 0 5 8 -5 15 22 63 175 305 55 86 96 159 92 162 -4 4
-316 8 -693 9 -398 1 -706 6 -732 11 -31 7 193 10 700 11 410 1 750 5 756 9
12 7 81 113 225 342 39 63 89 141 110 173 22 32 39 60 39 62 0 3 -757 5 -1683
5 l-1683 0 -29 -30 c-16 -16 -35 -30 -42 -30 -8 0 -12 -4 -9 -9 10 -15 -188
-261 -209 -261 -4 0 -5 6 -2 14 9 22 167 215 190 231 12 8 18 15 14 15 -5 0 4
16 19 35 l26 35 -447 0 c-247 0 -446 2 -444 4 2 2 206 6 452 10 247 3 453 8
457 11 10 6 171 197 265 315 17 20 61 75 98 121 38 46 75 93 84 104 9 11 22
27 29 35 11 13 -103 15 -1024 12 -570 -1 -1034 -1 -1032 2 5 5 719 14 1550 21
l535 4 30 34 c51 56 77 88 164 197 110 139 137 173 167 207 39 43 114 141 114
147 0 3 -709 6 -1575 6 -1365 0 -1575 -2 -1575 -14 0 -21 -20 -30 -33 -16 -9
10 -9 11 1 6 6 -4 12 -3 12 3 0 5 -16 15 -35 21 -19 6 -35 16 -35 21 0 11 11
11 67 0 29 -6 40 -5 37 3 -3 7 10 25 28 41 18 17 26 22 19 13 -8 -11 -9 -18
-3 -18 6 0 15 6 19 12 4 7 19 22 33 33 22 17 -48 -64 -75 -88 -6 -5 -2 -6 9
-3 10 4 719 6 1576 6 l1559 0 99 119 c55 66 103 117 106 114 3 -4 6 2 6 13 0
10 14 34 31 51 30 33 47 43 32 21 -4 -7 -8 -18 -8 -24 0 -6 -19 -33 -43 -60
-23 -27 -46 -53 -50 -59 -4 -5 -33 -41 -63 -80 -30 -38 -59 -76 -63 -83 -6 -9
309 -12 1562 -12 l1570 0 39 56 c40 60 40 59 91 142 18 30 37 59 43 65 34 40
182 307 174 315 -4 4 -681 8 -1505 10 l-1498 2 -53 -62 c-30 -35 -62 -72 -72
-83 -9 -11 -36 -41 -58 -67 -56 -64 -71 -50 -17 15 24 29 46 57 50 62 4 6 20
26 36 45 15 19 36 47 45 63 l17 27 -1512 0 -1512 0 -63 -62 c-34 -34 -72 -63
-83 -65 -17 -2 -19 -1 -8 11 7 8 15 10 16 5 2 -6 10 -5 18 2 12 10 12 14 2 20
-10 7 -8 9 5 9 10 0 16 4 13 8 -3 5 6 19 19 30 14 12 25 26 25 32 0 7 -373 10
-1115 10 -722 0 -1115 3 -1115 10 0 6 336 10 948 10 521 0 1051 3 1177 6 350
7 33016 5 34728 -2 l1497 -7 0 8026 0 8027 -19200 0 -19200 0 0 -10800z
m33826 10219 c3 -6 -5 -3 -20 6 -14 10 -26 19 -26 22 0 7 39 -17 46 -28z m-84
-11 c-7 -7 -12 -8 -12 -2 0 14 12 26 19 19 2 -3 -1 -11 -7 -17z m-29137 2 c3
-5 1 -10 -4 -10 -6 0 -11 5 -11 10 0 6 2 10 4 10 3 0 8 -4 11 -10z m85 -44 c0
-2 -8 -10 -17 -17 -16 -13 -17 -12 -4 4 13 16 21 21 21 13z m13102 -13 c25
-22 23 -50 -7 -69 -24 -16 -65 -12 -65 7 0 13 14 11 28 -3 9 -9 16 -7 32 7 20
18 28 41 10 30 -6 -4 -7 1 -3 12 3 10 3 15 -2 11 -4 -4 -14 -3 -21 2 -9 8 -18
3 -33 -16 -15 -18 -21 -22 -21 -11 0 16 36 47 54 47 5 0 18 -7 28 -17z m2900
5 c8 -7 18 -22 22 -32 5 -15 0 -13 -19 8 -23 25 -28 27 -43 14 -33 -29 -45
-32 -31 -9 12 18 23 24 50 30 3 0 12 -5 21 -11z m-2922 -42 c0 -11 -19 -15
-25 -6 -3 5 1 10 9 10 9 0 16 -2 16 -4z m2918 -28 c2 7 8 12 14 12 6 0 6 -6
-2 -15 -16 -19 -41 -19 -66 0 -17 13 -16 14 15 3 27 -9 36 -9 39 0z m-4408
-188 c11 -11 20 -28 19 -37 0 -14 -2 -15 -6 -3 -16 40 -53 51 -79 25 -20 -19
-14 -50 9 -49 9 1 15 -2 12 -6 -3 -5 1 -11 7 -13 8 -3 5 -6 -6 -6 -21 -1 -45
26 -46 51 0 20 37 58 57 58 7 0 22 -9 33 -20z m5932 3 c10 -9 18 -21 18 -27 0
-6 -7 0 -16 12 -19 27 -38 28 -64 2 -11 -11 -20 -16 -20 -11 0 11 40 41 54 41
5 0 18 -7 28 -17z m4 -71 c-17 -16 -18 -16 -5 5 7 12 15 20 18 17 3 -2 -3 -12
-13 -22z m-5926 4 c0 -2 -8 -10 -17 -17 -16 -13 -17 -12 -4 4 13 16 21 21 21
13z m5876 -11 c9 -8 11 -15 6 -15 -5 0 -15 7 -22 15 -7 8 -9 15 -6 15 4 0 14
-7 22 -15z m-6762 -830 c-4 -8 -10 -15 -15 -15 -5 0 -9 -8 -10 -17 0 -12 -2
-13 -6 -5 -3 7 3 22 13 33 21 23 25 24 18 4z m56 0 c7 -9 11 -17 8 -20 -2 -2
-12 4 -21 15 -9 11 -13 20 -8 20 5 0 14 -7 21 -15z m7581 -2 c13 -16 12 -17
-3 -4 -17 13 -22 21 -14 21 2 0 10 -8 17 -17z m-30 -17 c5 3 9 -2 9 -12 0 -13
-3 -14 -15 -4 -8 7 -15 18 -14 24 0 7 2 6 6 -2 2 -6 9 -10 14 -6z m-7577 -21
c-4 -8 -8 -15 -10 -15 -2 0 -4 7 -4 15 0 8 4 15 10 15 5 0 7 -7 4 -15z m31
-25 c-3 -5 -12 -10 -18 -10 -7 0 -6 4 3 10 19 12 23 12 15 0z m-14237 -410 c4
-12 2 -13 -9 -2 -16 15 -59 16 -59 0 0 -6 -3 -9 -6 -5 -3 3 -3 11 1 17 10 16
68 8 73 -10z m36046 4 c5 -14 4 -15 -9 -4 -17 14 -19 20 -6 20 5 0 12 -7 15
-16z m6 -55 c-6 -10 -12 -19 -15 -19 -2 0 -12 -3 -22 -6 -13 -5 -12 -2 5 10
12 10 22 24 22 32 0 8 5 12 10 9 7 -4 7 -13 0 -26z m-65 0 c11 -17 -1 -21 -15
-4 -8 9 -8 15 -2 15 6 0 14 -5 17 -11z m-36045 -9 c0 -5 -2 -10 -4 -10 -3 0
-8 5 -11 10 -3 6 -1 10 4 10 6 0 11 -4 11 -10z m18040 -23 c1 -7 9 -2 20 11
15 18 25 22 42 16 24 -7 38 -22 38 -39 -1 -5 -5 -2 -11 8 -12 21 -52 22 -69 2
-17 -20 -22 -19 -44 11 -18 26 -18 26 3 15 11 -7 21 -17 21 -24z m60 -11 c0
-2 -7 -7 -16 -10 -8 -3 -12 -2 -9 4 6 10 25 14 25 6z m-125 -54 c-6 -7 -35 18
-35 31 0 5 9 2 20 -8 11 -10 18 -20 15 -23z m149 7 c-18 -18 -23 -18 -47 -6
-25 13 -26 15 -8 20 11 3 19 0 18 -5 -4 -21 22 -19 33 2 6 12 14 19 18 16 3
-4 -3 -16 -14 -27z m12591 11 c10 -11 16 -20 13 -20 -3 0 -13 9 -23 20 -10 11
-16 20 -13 20 3 0 13 -9 23 -20z m-25321 -5 c-3 -8 -11 -13 -17 -12 -7 1 -15
-16 -18 -38 -6 -39 -6 -39 -8 -7 0 18 4 42 9 53 12 22 42 26 34 4z m105 -29
c-2 -2 -13 8 -23 22 l-19 27 24 -22 c12 -12 21 -24 18 -27z m25107 22 c-33
-47 -13 -98 45 -112 33 -7 78 25 80 57 1 16 2 18 6 5 12 -48 -47 -86 -104 -67
-36 12 -53 34 -53 71 0 22 25 68 36 68 3 0 -2 -10 -10 -22z m-19009 -25 c5
-15 -28 -26 -41 -13 -8 8 -7 14 4 20 17 11 32 8 37 -7z m12933 3 c0 -8 -7 -17
-16 -20 -23 -9 -24 -8 -24 14 0 13 7 20 20 20 11 0 20 -6 20 -14z m6180 -7 c0
-6 -4 -7 -10 -4 -5 3 -10 11 -10 16 0 6 5 7 10 4 6 -3 10 -11 10 -16z m-25226
-70 c-9 -10 -21 -19 -26 -19 -4 0 1 9 12 20 11 11 21 28 21 38 1 15 2 15 6 -1
3 -10 -3 -27 -13 -38z m-69 -18 l30 -11 -30 6 c-16 3 -37 13 -45 22 -13 14
-13 15 0 5 8 -6 29 -15 45 -22z m-4187 -3 c2 -9 -5 -18 -14 -22 -22 -9 -27 -2
-19 24 7 23 28 22 33 -2z m33660 -12 c-2 -10 -7 -13 -17 -7 -8 6 -11 16 -7 27
8 21 30 4 24 -20z m-19675 -606 c-6 -22 -6 -22 -27 -14 -19 7 -21 25 -4 42 16
16 37 -3 31 -28z m5694 13 c2 -6 -4 -13 -13 -17 -21 -8 -39 15 -21 26 15 9 30
5 34 -9z m11973 -383 c31 -31 21 -80 -17 -80 -9 0 -7 7 7 22 21 23 27 44 10
33 -5 -3 -10 -1 -10 5 0 15 -42 9 -47 -7 -3 -7 4 -10 19 -7 19 5 20 4 6 -5
-11 -7 -14 -19 -10 -33 5 -21 4 -22 -11 -9 -21 17 -22 65 -1 85 20 21 30 20
54 -4z m-29606 -23 c8 -22 6 -31 -9 -45 -18 -16 -18 -16 -5 1 12 16 12 20 -1
28 -8 5 -10 9 -5 9 12 0 -14 30 -26 30 -6 0 -5 -7 2 -15 18 -21 6 -29 -21 -14
-22 11 -22 12 -3 26 28 20 57 12 68 -20z m11613 -17 c1 -11 -1 -19 -5 -16 -4
2 -7 -7 -7 -20 0 -19 7 -27 30 -33 l30 -9 -33 -1 c-26 -1 -34 4 -42 25 -12 30
-3 74 14 74 6 0 12 -9 13 -20z m49 5 c10 -8 15 -14 9 -14 -5 0 -19 6 -29 14
-11 8 -15 15 -10 15 6 0 19 -7 30 -15z m6282 3 c7 -7 12 -21 12 -32 0 -19 -2
-18 -13 4 -20 39 -63 39 -59 -1 1 -3 -6 -6 -14 -6 -7 0 -14 7 -14 14 0 8 4 12
9 9 5 -3 11 1 15 9 7 18 47 20 64 3z m-6294 -43 c-3 -7 -12 -11 -20 -8 -11 4
-12 9 -3 19 14 17 30 9 23 -11z m24 -5 c-7 -10 -14 -18 -15 -16 -6 6 9 36 18
36 5 0 4 -9 -3 -20z m6272 -30 c0 -5 -10 -10 -22 -9 -22 0 -22 1 -3 9 11 5 21
9 23 9 1 1 2 -3 2 -9z m-8360 -114 c0 -16 -14 -36 -25 -36 -17 0 -28 17 -20
30 6 10 45 15 45 6z m10410 -16 c0 -13 -7 -20 -19 -20 -25 0 -38 20 -20 31 23
15 39 10 39 -11z m-17656 -99 c3 -5 -1 -14 -10 -21 -11 -10 -18 -10 -27 -1 -9
9 -9 14 3 21 19 12 27 12 34 1z m24885 -17 c-9 -11 -15 -12 -23 -4 -8 8 -7 13
4 20 20 12 33 1 19 -16z m-21321 -182 c9 -14 10 -22 3 -22 -6 0 -11 5 -11 10
0 6 -7 10 -15 10 -8 0 -15 5 -15 10 0 16 -52 11 -72 -7 -41 -37 -10 -103 49
-103 27 0 37 6 53 33 12 19 20 25 20 16 0 -56 -87 -82 -130 -39 -38 38 -21
106 30 122 27 8 73 -7 88 -30z m17846 12 c9 -8 16 -20 16 -25 0 -5 -9 0 -20
11 -24 24 -67 26 -92 3 -23 -21 -35 -11 -13 11 21 21 89 21 109 0z m-127 -56
c-3 -8 -6 -5 -6 6 -1 11 2 17 5 13 3 -3 4 -12 1 -19z m139 -36 c-8 -23 -58
-44 -84 -35 -22 8 -52 34 -52 45 0 4 9 -1 21 -13 28 -28 90 -23 104 8 11 27
19 23 11 -5z m-12072 -417 c34 -32 35 -77 1 -110 -27 -28 -42 -30 -79 -14 -47
22 -53 94 -12 128 14 11 16 11 16 -2 0 -9 15 -20 35 -27 38 -12 47 -30 16 -27
-11 0 -18 4 -15 8 2 4 -3 10 -12 13 -12 5 -15 2 -10 -11 6 -17 5 -17 -7 -1
-10 12 -17 14 -24 7 -12 -12 -5 -51 8 -43 5 3 6 -2 3 -10 -6 -17 24 -36 46
-28 26 8 50 34 50 53 0 10 -16 34 -35 54 -40 39 -23 49 19 10z m6176 3 c-8 -7
-20 -20 -28 -28 -12 -13 -13 -13 -6 0 12 25 26 40 37 40 6 0 5 -6 -3 -12z m79
-14 c12 -15 21 -38 21 -51 0 -31 -42 -73 -72 -72 -19 1 -17 2 8 10 60 17 67
85 12 123 -18 13 -19 16 -6 16 9 0 26 -12 37 -26z m-83 -111 c-8 -9 -36 17
-36 33 0 10 7 7 21 -7 11 -11 18 -23 15 -26z m-20998 -365 c22 -22 13 -29 -17
-13 -19 9 -32 11 -36 5 -3 -6 -12 -10 -18 -10 -18 1 24 30 43 30 9 0 21 -5 28
-12z m1414 0 c-24 -5 -46 -16 -49 -24 -3 -7 -9 -11 -14 -8 -5 3 -9 -1 -9 -9 0
-8 -7 -17 -15 -21 -13 -5 -13 -2 0 18 19 29 71 56 105 55 16 -1 10 -5 -18 -11z
m98 -3 c29 -15 60 -51 60 -70 0 -5 -10 5 -22 23 -12 20 -26 31 -35 28 -7 -3
-16 1 -19 9 -3 8 -12 11 -21 8 -11 -4 -14 -2 -9 5 9 15 11 15 46 -3z m34317
-1 c-3 -3 -12 -4 -19 -1 -8 3 -5 6 6 6 11 1 17 -2 13 -5z m-35819 -56 c-8 -12
-20 -24 -27 -26 -7 -2 -3 7 10 22 28 32 37 34 17 4z m34324 5 c-6 -2 -9 -10
-6 -15 4 -6 2 -8 -4 -4 -13 8 -23 -7 -33 -48 -7 -29 -7 -30 -8 -5 -1 28 33 79
52 78 8 0 8 -2 -1 -6z m84 -15 c19 -23 19 -23 -1 -7 -11 9 -26 14 -34 11 -8
-3 -11 0 -7 7 10 16 21 14 42 -11z m24 -49 c0 -34 -29 -78 -52 -79 -4 0 4 12
19 26 17 17 24 33 20 50 -2 13 0 24 4 24 5 0 9 -9 9 -21z m-33094 -90 c16 -18
40 -26 103 -34 59 -7 48 -18 -13 -13 -53 4 -63 9 -93 41 -26 29 -33 45 -32 74
l1 38 9 -44 c5 -24 16 -52 25 -62z m215 19 c-23 -38 -57 -62 -66 -48 -3 6 0
10 9 10 18 0 66 56 67 78 0 11 2 12 6 5 2 -7 -4 -28 -16 -45z m32754 12 c10
-11 13 -20 7 -20 -6 0 -16 9 -22 20 -6 11 -9 20 -7 20 2 0 12 -9 22 -20z
m-16065 -70 c253 -17 579 -60 935 -125 359 -65 889 -223 1295 -385 305 -122
684 -300 883 -416 32 -19 60 -34 63 -34 23 0 578 -363 739 -483 91 -69 248
-189 255 -197 3 -3 30 -25 60 -50 30 -24 93 -78 140 -120 46 -41 100 -88 120
-105 156 -133 395 -377 619 -630 228 -260 394 -474 564 -727 39 -58 69 -90 48
-50 -9 17 -6 26 15 51 34 41 83 43 114 4 31 -39 24 -82 -19 -110 -32 -22 -36
-22 -58 -7 -14 8 -26 14 -28 12 -1 -2 19 -37 46 -78 126 -192 292 -486 284
-501 -4 -5 -1 -8 6 -7 21 5 267 -506 354 -737 128 -336 176 -474 216 -620 55
-201 109 -410 108 -420 0 -13 -24 50 -37 100 -6 22 -18 67 -27 100 -9 33 -21
78 -25 100 -5 22 -14 54 -21 70 -7 17 -21 62 -30 100 -9 39 -17 64 -18 58 -1
-7 -5 -13 -9 -13 -4 0 -6 17 -4 38 2 20 0 32 -5 27 -4 -6 -17 -10 -28 -10 -11
0 -25 -3 -31 -7 -16 -11 -51 23 -46 45 3 14 7 16 18 6 8 -7 14 -7 14 -1 0 12
-28 24 -40 17 -4 -3 -11 2 -14 11 -3 8 -10 13 -14 10 -4 -3 -13 9 -19 25 -9
24 -9 28 0 20 7 -5 19 -6 26 -2 9 6 6 10 -13 15 -15 4 -23 11 -20 19 2 7 -4
24 -16 37 -11 13 -20 17 -20 10 0 -7 7 -18 17 -25 13 -9 13 -14 3 -20 -8 -5
-11 -4 -6 3 3 6 -3 14 -14 17 -20 6 -20 8 -5 31 13 20 13 24 1 24 -8 0 -17 6
-20 13 -3 6 -3 0 0 -14 3 -14 -2 -41 -10 -60 -15 -31 -15 -19 0 32 4 14 2 19
-5 15 -15 -10 -14 -1 4 34 13 25 13 29 -2 35 -13 4 -14 8 -5 14 10 6 9 11 -3
21 -9 7 -15 9 -14 4 1 -5 1 -16 0 -24 -1 -13 -2 -13 -11 0 -6 10 -4 20 7 32
14 15 14 20 2 35 -8 9 -9 14 -3 10 7 -4 14 1 16 11 4 15 -2 17 -43 15 -40 -1
-49 2 -54 18 -4 11 -1 26 5 34 10 12 10 18 0 30 -19 22 13 20 36 -2 17 -17 18
-17 11 0 -4 10 -7 31 -8 45 0 15 -3 21 -6 14 -2 -6 -9 -10 -14 -7 -5 3 -18 1
-29 -5 -16 -9 -20 -8 -21 7 -1 17 -2 17 -6 1 -5 -20 -18 -23 -28 -7 -4 6 -13
8 -20 5 -19 -7 -27 5 -14 21 8 9 8 13 1 13 -6 0 -14 -9 -17 -20 -3 -11 -13
-20 -21 -20 -8 0 -14 -5 -14 -11 0 -6 -7 -3 -16 6 -9 9 -24 13 -35 10 -14 -5
-19 -1 -19 14 0 23 -15 28 -23 9 -4 -10 -8 -9 -16 2 -10 14 -16 7 -12 -13 1
-5 -3 -5 -9 -2 -6 4 -9 13 -6 20 5 13 -33 27 -83 30 -13 1 -29 9 -35 17 -8 11
-36 15 -116 15 -69 1 -95 -1 -75 -7 30 -8 29 -8 -32 -15 -12 -1 -28 -5 -37 -8
-9 -4 -16 -2 -16 3 0 6 -7 10 -15 10 -8 0 -15 -4 -15 -10 0 -5 -5 -10 -11 -10
-5 0 -7 5 -4 10 3 6 1 10 -4 10 -6 0 -11 -6 -12 -12 0 -10 -2 -10 -6 0 -2 6
-11 12 -19 12 -8 0 -14 -6 -14 -12 0 -10 -2 -10 -9 0 -11 19 -15 19 -34 3 -14
-11 -17 -11 -17 0 0 11 -2 11 -10 -1 -5 -8 -10 -10 -10 -4 0 6 -7 11 -15 11
-8 0 -15 -5 -15 -10 0 -6 -5 -6 -12 1 -7 5 -29 8 -48 7 -57 -4 -289 -6 -372
-3 -43 2 -78 0 -78 -3 0 -13 -41 -4 -51 11 -8 13 -11 13 -22 -1 -6 -9 -19 -18
-27 -22 -9 -3 -3 -6 13 -6 16 -1 26 -5 22 -10 -3 -5 0 -13 6 -17 7 -4 9 -3 5
4 -3 6 -1 14 5 17 7 5 10 0 7 -11 -4 -22 -67 -31 -80 -12 -6 10 -8 9 -8 -2 0
-13 -1 -13 -10 0 -6 10 -10 11 -10 3 0 -9 -18 -13 -62 -11 l-63 1 60 7 60 7
-60 2 c-33 1 -153 3 -267 4 -114 2 -210 6 -214 10 -4 4 11 7 34 7 23 0 42 4
42 9 0 4 -24 7 -52 5 -50 -3 -309 -4 -428 -2 -30 0 -68 0 -85 -1 -16 -1 -69 0
-117 3 -54 2 -88 0 -88 -7 0 -5 -6 -5 -14 2 -16 13 -66 4 -66 -12 0 -5 -9 -2
-20 8 -15 14 -20 15 -20 4 0 -29 17 -42 49 -37 20 3 30 1 28 -6 -5 -15 -69 -9
-79 7 -5 8 -8 6 -8 -7 0 -15 -3 -17 -12 -8 -8 8 -17 8 -31 1 -11 -7 -17 -7
-13 -1 3 5 -6 10 -19 10 -14 0 -28 -4 -31 -9 -3 -5 -17 -1 -32 9 -14 9 -23 11
-19 5 9 -15 18 -14 -190 -16 -79 -1 -143 2 -143 7 0 5 -7 3 -15 -4 -8 -6 -19
-8 -26 -4 -20 12 -143 12 -151 0 -5 -8 -8 -7 -8 2 0 8 -17 12 -51 12 -29 0
-48 -4 -44 -9 6 -10 -27 -7 -44 4 -5 3 -13 0 -16 -5 -5 -7 -12 -5 -20 7 -13
17 -14 17 -20 1 -4 -10 -12 -18 -17 -18 -6 0 -7 7 -4 16 3 9 2 12 -5 9 -6 -4
-17 1 -24 11 -14 18 -14 18 -15 1 0 -10 -4 -16 -9 -13 -5 4 -12 0 -15 -6 -5
-10 -7 -10 -12 0 -8 17 -51 15 -62 -4 -8 -15 -10 -15 -15 0 -4 10 -1 19 8 22
7 3 12 11 9 17 -3 9 10 11 43 9 27 -3 46 -2 43 1 -3 3 -27 7 -53 8 -27 2 -50
7 -53 11 -3 5 -10 6 -15 3 -5 -4 -9 -1 -9 4 0 18 -107 14 -114 -4 -3 -8 -13
-14 -23 -13 -32 2 -78 -3 -65 -9 6 -2 10 -8 8 -11 -2 -4 18 -6 46 -6 34 1 51
-3 55 -12 3 -8 9 -14 14 -14 4 0 6 7 2 15 -4 13 2 15 41 12 35 -4 49 -1 57 12
9 13 9 13 4 -4 -4 -11 -8 -25 -8 -31 0 -6 -6 -11 -13 -11 -7 0 -10 5 -7 11 3
6 0 5 -8 -1 -16 -15 -33 -17 -24 -3 3 6 1 10 -4 10 -6 0 -11 -4 -11 -10 0 -6
-33 -10 -80 -10 -57 0 -80 4 -80 13 0 8 -4 7 -11 -3 -8 -12 -10 -8 -6 15 l6
30 -49 -3 c-40 -3 -48 -7 -47 -22 1 -18 47 -36 47 -19 0 5 7 9 16 9 9 0 14 -6
12 -12 -4 -10 -41 -13 -141 -13 -115 0 -136 2 -135 15 3 35 -3 45 -27 46 -14
1 -25 0 -25 -3 0 -11 26 -29 38 -25 7 2 10 -2 6 -11 -5 -15 -44 -31 -52 -22
-3 3 1 11 7 19 8 10 9 16 1 21 -5 3 -10 -1 -10 -9 0 -21 -18 -30 -34 -17 -7 6
-16 8 -20 4 -11 -12 -111 -11 -118 1 -12 17 -9 28 4 20 8 -5 9 -2 5 9 -3 10
-2 17 3 17 6 0 10 -8 10 -17 1 -12 6 -7 15 12 7 17 14 24 14 18 1 -18 48 -16
48 2 0 8 -4 12 -8 9 -4 -2 -10 0 -13 4 -3 5 -17 7 -31 5 -15 -3 -22 -10 -18
-17 5 -8 3 -8 -8 0 -8 7 -34 11 -59 9 -25 -2 -67 -4 -95 -5 -43 -2 -46 -3 -20
-9 25 -6 19 -8 -33 -12 -35 -2 -71 -1 -80 3 -10 4 4 7 33 8 50 2 50 2 15 11
-43 10 -339 8 -346 -3 -3 -4 23 -8 57 -8 34 0 59 -3 56 -7 -4 -3 -59 -5 -122
-4 -98 2 -115 0 -115 -13 0 -19 30 -22 31 -3 0 8 2 8 6 -2 5 -11 7 -11 14 0 6
10 9 11 9 2 0 -7 7 -13 15 -13 8 0 15 6 16 13 0 10 2 10 6 0 3 -8 25 -13 61
-13 30 0 53 -3 50 -6 -3 -3 -98 -7 -209 -9 -112 -3 -220 -6 -239 -8 -24 -2
-37 2 -42 13 -6 13 -7 12 -7 -2 -1 -15 -11 -18 -63 -19 -35 0 -73 -2 -86 -3
-13 -2 -27 4 -32 13 -8 14 -9 14 -10 1 0 -10 -12 -16 -40 -17 -34 -2 -40 0
-40 17 0 17 7 20 40 20 25 0 40 5 41 13 0 10 2 10 6 0 3 -9 26 -13 66 -13 69
0 74 7 7 11 -25 1 -49 6 -55 10 -5 4 -53 6 -105 5 -56 -1 -101 2 -109 8 -11 8
-13 8 -8 -1 13 -20 -71 -57 -95 -41 -10 7 -10 9 2 7 28 -3 41 1 35 11 -3 5
-13 6 -22 3 -11 -4 -14 -3 -9 5 4 7 2 12 -3 12 -6 0 -11 -5 -11 -11 0 -8 -11
-9 -32 -4 -33 7 -63 9 -105 6 -13 0 -24 -10 -29 -23 -4 -13 -12 -26 -18 -30
-6 -4 1 -8 16 -8 15 0 30 5 34 12 4 7 3 8 -4 4 -7 -4 -12 -1 -12 8 0 9 7 16
15 16 16 0 19 -18 6 -38 -6 -10 -36 -12 -132 -8 -68 3 -181 7 -251 10 -70 2
-148 7 -174 11 -26 4 -44 3 -41 -2 3 -5 -11 -8 -31 -7 -20 1 -37 3 -37 4 0 1
-14 3 -32 4 -18 1 -30 -1 -28 -4 3 -4 -9 -7 -24 -6 -16 1 -27 4 -24 8 6 12
-50 6 -66 -6 -11 -8 -13 -8 -8 0 4 7 -27 10 -102 10 -60 -1 -107 -4 -104 -8 2
-5 -8 -3 -22 2 -34 13 -38 13 -29 -2 5 -7 3 -8 -5 -3 -7 4 -51 7 -97 6 -65 0
-84 3 -84 14 0 14 -113 35 -140 26 -8 -4 6 -7 33 -9 38 -2 47 -7 47 -21 0 -14
-6 -17 -25 -13 -17 3 -25 0 -25 -9 0 -12 -2 -12 -9 -1 -4 8 -11 13 -15 13 -21
-3 -26 1 -27 22 -1 21 -1 21 -9 -3 -8 -25 -8 -25 -11 5 l-2 30 -4 -29 c-4 -22
-7 -26 -14 -15 -7 12 -9 12 -9 -1 0 -13 -20 -15 -123 -14 -78 0 -131 5 -146
13 -14 8 -41 11 -65 8 -22 -3 -33 -3 -23 0 9 2 15 8 13 12 -3 4 8 5 25 3 16
-2 29 0 29 6 0 13 -54 19 -182 22 -84 1 -108 -2 -108 -12 0 -10 21 -13 90 -11
49 0 90 -3 90 -8 0 -5 -43 -9 -96 -9 -56 0 -93 -4 -89 -9 3 -5 1 -12 -4 -15
-6 -4 -8 7 -6 25 4 26 2 29 -11 19 -9 -8 -12 -21 -8 -33 6 -20 6 -20 -10 -4
-16 15 -16 18 -2 33 20 19 20 25 1 18 -8 -4 -15 -11 -15 -18 0 -6 -4 -5 -9 3
-7 10 -9 7 -8 -12 1 -14 5 -23 9 -21 4 2 9 1 12 -4 8 -13 -82 -6 -110 8 -27
15 -32 30 -9 30 8 0 15 7 15 15 0 29 -35 11 -41 -20 l-6 -30 -2 33 c-1 35 -25
44 -50 20 -11 -11 -14 -10 -18 0 -4 10 -8 10 -20 0 -20 -16 -45 -19 -60 -6 -7
6 -13 7 -13 2 0 -5 -18 -9 -40 -9 -22 0 -40 4 -40 9 0 4 -6 3 -14 -3 -11 -9
-15 -9 -19 1 -4 10 -8 10 -16 -2 -8 -11 -11 -12 -11 -2 0 7 -4 11 -9 7 -17
-10 -252 -15 -246 -4 4 5 -34 9 -95 9 -65 0 -99 4 -95 10 3 6 1 10 -4 10 -6 0
-11 -4 -11 -8 0 -4 -17 -9 -37 -10 -57 -4 -53 -12 8 -14 54 -2 54 -2 -16 -8
-49 -5 -3 -8 155 -11 124 -2 249 -3 278 -3 32 1 52 -3 52 -10 0 -6 5 -4 10 4
8 13 10 12 10 -2 0 -15 -10 -18 -65 -18 -40 0 -65 4 -65 11 0 6 -7 3 -16 -5
-18 -19 -20 -19 -46 -5 -11 6 -18 7 -15 2 3 -4 -58 -8 -136 -7 -105 0 -142 4
-145 13 -4 11 -6 11 -12 1 -9 -15 -80 -22 -80 -8 0 21 -30 38 -67 37 l-38 -2
40 -7 40 -7 -42 -2 c-24 0 -43 -4 -43 -8 0 -5 24 -6 52 -4 29 1 50 0 46 -4
-11 -11 -97 -14 -104 -4 -3 5 -10 7 -15 4 -5 -3 -137 -6 -293 -6 -203 1 -287
-3 -292 -11 -4 -6 -3 -8 4 -4 6 3 13 2 16 -3 4 -5 -1 -8 -9 -7 -9 1 -15 6 -15
12 2 13 -43 22 -57 12 -7 -6 -18 -6 -25 -2 -19 12 -51 13 -65 2 -9 -7 -13 -7
-13 1 0 6 -5 11 -11 11 -5 0 -8 -4 -4 -9 3 -6 -4 -8 -16 -6 -28 6 -41 18 -14
13 14 -2 19 2 17 14 -1 9 2 19 8 23 5 3 10 9 10 13 0 11 -83 2 -97 -10 -9 -7
-13 -6 -14 3 0 10 -2 10 -5 2 -4 -9 -13 -9 -30 -2 -33 12 -33 12 -28 -8 4 -16
-4 -18 -70 -18 -42 0 -76 3 -76 6 0 21 -120 32 -139 14 -3 -4 5 -14 18 -24 14
-11 20 -21 13 -25 -21 -12 -42 6 -43 38 0 17 -3 25 -6 18 -4 -10 -8 -10 -19
-1 -7 6 -19 9 -26 6 -8 -3 -6 -6 5 -6 10 -1 15 -5 12 -11 -3 -5 1 -10 9 -10 9
0 16 -7 16 -16 0 -8 -4 -12 -10 -9 -5 3 -10 3 -10 -2 0 -12 -84 -7 -88 6 -2 6
-8 11 -13 11 -6 0 -7 -4 -4 -10 3 -5 -1 -10 -9 -10 -9 0 -16 5 -16 10 0 6 -7
10 -15 10 -8 0 -15 -4 -15 -10 0 -6 -35 -10 -85 -10 -61 0 -85 3 -85 13 0 9
-2 9 -9 -1 -9 -15 -218 -24 -227 -10 -3 4 -15 3 -26 -3 -16 -9 -23 -8 -29 2
-6 10 -9 10 -9 2 0 -9 -7 -10 -24 -3 -13 5 -27 6 -31 2 -3 -4 -194 -7 -424 -7
-406 0 -418 1 -413 19 3 13 1 17 -6 12 -7 -4 -12 -1 -12 6 0 8 -9 14 -20 14
-11 0 -20 -6 -20 -14 0 -7 -5 -10 -10 -7 -6 4 -8 9 -6 13 2 4 -36 9 -86 10
-63 3 -88 0 -84 -7 4 -6 2 -11 -3 -11 -6 0 -11 5 -11 10 0 6 -9 1 -20 -10 -11
-11 -20 -25 -20 -31 0 -5 -5 -7 -10 -4 -6 4 -8 10 -6 14 3 4 -25 3 -61 -1 -48
-7 -73 -6 -89 3 -13 6 -36 9 -53 6 -18 -4 -31 -2 -31 3 0 6 11 10 25 10 14 0
25 6 25 13 0 8 3 9 8 1 10 -15 81 -24 112 -14 17 5 19 8 8 9 -10 1 -18 7 -18
14 0 8 -17 12 -55 10 -34 -1 -55 3 -55 10 0 8 -4 7 -12 -1 -7 -7 -28 -11 -47
-11 l-36 2 35 6 c31 6 33 7 12 13 -13 4 -32 5 -43 3 -10 -2 -19 1 -19 6 0 6
-22 7 -60 3 -42 -5 -60 -3 -60 5 0 6 14 11 30 11 17 0 30 4 30 9 0 5 12 12 28
14 26 4 26 4 -4 6 -19 0 -34 8 -38 17 -4 9 -13 14 -21 10 -9 -3 -15 0 -15 8 0
8 -17 16 -42 20 -23 4 -47 11 -54 17 -16 13 -25 -2 -26 -41 -1 -16 -5 -27 -10
-24 -5 3 -6 15 -3 27 2 12 2 16 -1 9 -3 -6 -11 -9 -17 -5 -6 4 -8 0 -4 -10 7
-18 -7 -22 -75 -18 -21 2 -38 -1 -38 -7 0 -5 16 -9 36 -10 43 -2 60 -12 20
-12 -15 0 -25 -3 -22 -8 2 -4 36 -7 74 -7 39 0 68 -3 66 -6 -2 -4 -37 -7 -76
-8 -55 0 -76 -5 -85 -17 -6 -9 -18 -14 -25 -12 -20 7 -38 -22 -24 -38 9 -9 15
-9 29 3 9 9 17 12 17 7 0 -15 -44 -38 -48 -25 -8 25 -17 8 -15 -29 1 -25 -2
-38 -8 -34 -5 3 -7 14 -4 25 5 13 2 19 -10 19 -12 0 -15 -6 -10 -20 3 -11 2
-20 -3 -20 -5 0 -12 10 -15 22 -4 12 -9 20 -12 16 -10 -9 14 -59 27 -57 31 4
42 -3 21 -11 -14 -6 -23 -18 -23 -30 0 -14 4 -19 12 -14 7 4 8 3 4 -4 -11 -19
-26 -14 -26 9 0 11 -4 18 -10 14 -6 -3 -6 -15 0 -30 8 -21 7 -23 -16 -19 -17
3 -24 0 -24 -11 0 -9 5 -13 10 -10 6 3 10 1 10 -4 0 -17 -18 -13 -29 7 -7 11
-10 12 -11 3 0 -7 -6 -11 -15 -7 -8 3 -15 1 -15 -5 0 -7 -10 -9 -24 -5 -30 7
-38 -1 -23 -25 14 -22 32 -26 24 -5 -3 8 7 17 30 24 28 9 34 8 29 -3 -3 -8 0
-15 5 -17 18 -6 -5 -43 -28 -44 -18 0 -20 2 -12 13 6 7 15 11 19 8 5 -3 11 -1
14 4 3 5 -2 11 -13 14 -11 2 -23 -3 -30 -15 -12 -20 -6 -42 9 -33 5 3 11 1 15
-5 3 -5 1 -10 -4 -10 -6 0 -11 -5 -11 -11 0 -5 5 -7 10 -4 6 3 10 2 10 -3 0
-6 -7 -13 -16 -16 -8 -3 -12 -11 -9 -17 4 -6 -2 -5 -13 2 -12 7 -18 17 -15 23
4 5 -1 7 -11 3 -23 -9 -37 0 -30 18 4 8 9 13 13 11 3 -2 13 3 21 12 13 14 12
15 -2 9 -9 -3 -19 -1 -22 6 -2 7 -5 5 -5 -4 -1 -15 -41 -69 -41 -55 0 4 7 21
16 39 9 18 13 29 9 25 -5 -4 -13 0 -20 8 -9 14 -11 10 -9 -21 3 -33 2 -36 -14
-24 -14 10 -15 10 -6 0 16 -18 6 -55 -11 -41 -9 8 -15 8 -20 1 -3 -6 9 -17 27
-25 21 -9 26 -15 15 -15 -24 -1 -51 -28 -37 -36 16 -10 12 -23 -10 -30 -11 -4
-18 -11 -14 -16 3 -5 9 -7 13 -5 3 3 7 -4 7 -14 0 -10 -5 -16 -10 -13 -5 3
-15 -1 -21 -11 -11 -15 -13 -15 -18 5 -4 15 -2 19 8 15 8 -3 17 0 21 7 4 7 4
9 -1 5 -4 -4 -15 -3 -25 2 -13 7 -20 4 -29 -17 -6 -14 -9 -34 -6 -44 5 -14 1
-19 -11 -19 -14 0 -14 -3 -4 -16 11 -12 11 -15 0 -12 -8 2 -16 -6 -18 -16 -4
-19 -3 -19 21 -3 14 9 28 13 31 8 8 -13 -16 -27 -41 -25 -12 0 -20 -3 -16 -8
3 -6 -1 -14 -8 -19 -12 -7 -12 -9 0 -9 10 0 8 -7 -8 -21 -15 -14 -21 -29 -18
-45 2 -14 0 -21 -6 -17 -6 4 -8 -3 -3 -18 14 -48 15 -59 5 -59 -5 0 -9 6 -8
13 5 39 -4 35 -17 -7 -9 -26 -17 -46 -20 -44 -5 6 39 161 71 248 13 36 58 161
100 278 68 188 127 341 169 437 8 17 28 64 46 105 68 157 253 512 363 695 136
227 157 260 278 435 125 180 320 438 416 550 11 14 51 61 88 105 190 227 626
658 855 845 74 60 167 136 205 167 104 85 323 244 465 338 461 305 887 529
1375 725 665 266 1290 420 2035 501 336 37 895 45 1290 19z m-4117 -357 c11
-11 17 -31 17 -59 0 -34 -5 -47 -26 -63 -33 -26 -50 -26 -90 -2 -55 33 -49
117 10 141 26 11 65 4 89 -17z m7648 -2 c34 -35 37 -68 8 -105 -15 -20 -29
-26 -58 -26 -70 0 -106 52 -76 111 29 54 83 63 126 20z m-11581 -406 c0 -9 -7
-18 -16 -22 -18 -7 -39 11 -30 26 11 17 46 13 46 -4z m15450 9 c0 -6 -30 -37
-31 -32 -6 27 -4 34 12 35 11 1 19 -1 19 -3z m-25701 -400 c27 -34 27 -74 1
-102 -22 -23 -80 -31 -80 -10 0 6 -3 8 -7 5 -8 -9 -43 22 -43 39 0 6 14 -1 31
-17 39 -36 62 -37 89 -2 22 29 23 64 2 71 -7 2 -12 0 -11 -5 3 -17 -1 -24 -11
-18 -8 5 -7 11 1 21 16 20 -3 40 -28 29 -10 -5 -21 -8 -25 -7 -4 1 -16 -10
-27 -25 -12 -14 -21 -20 -21 -14 0 7 11 23 25 36 33 34 77 33 104 -1z m36005
5 c17 -13 26 -30 26 -48 0 -29 -25 -71 -42 -71 -7 0 -2 9 10 20 28 26 28 67 0
91 -27 24 -49 24 -84 -2 l-29 -21 28 26 c34 31 56 33 91 5z m-29264 -34 c20
-11 31 -25 35 -49 7 -34 -7 -76 -25 -76 -5 0 -35 -22 -65 -50 -70 -64 -109
-68 -161 -16 -72 72 -29 176 73 176 26 1 59 7 73 15 32 18 35 18 70 0z m22496
0 c10 -8 37 -15 59 -15 22 0 54 -9 72 -19 30 -19 51 -56 39 -68 -3 -4 -6 0 -6
9 0 19 -34 50 -45 41 -4 -5 -4 -2 0 6 6 11 4 13 -9 8 -10 -4 -15 -3 -11 3 4 6
-10 9 -34 7 -24 -1 -37 -6 -33 -12 4 -6 -1 -3 -10 7 -9 11 -19 19 -22 18 -21
-1 -26 1 -21 10 3 6 0 10 -8 10 -16 0 -40 -24 -31 -32 2 -3 -2 -8 -11 -11 -8
-4 -15 -1 -15 6 0 9 -2 9 -8 -1 -19 -29 0 -73 41 -99 22 -14 50 -37 63 -52 42
-51 121 -34 149 32 8 18 14 25 15 17 0 -18 -26 -59 -48 -77 -9 -7 -34 -13 -55
-13 -33 0 -46 6 -76 38 -20 21 -51 47 -68 57 -19 11 -35 30 -38 46 -15 68 58
124 111 84z m6664 -40 c5 -14 24 -32 42 -40 l33 -15 -30 6 c-38 7 -52 19 -58
49 -6 32 1 32 13 0z m-27792 -34 c3 -10 0 -12 -12 -8 -9 4 -16 1 -16 -5 0 -9
-3 -9 -11 -1 -6 6 -8 16 -4 23 9 15 37 9 43 -9z m19726 10 c3 -5 -1 -12 -10
-15 -22 -9 -24 -8 -24 9 0 16 25 21 34 6z m-25646 -16 c98 -42 139 -140 95
-232 -24 -50 -94 -93 -153 -93 -113 0 -200 121 -161 223 16 40 71 96 105 106
47 14 73 13 114 -4z m31653 -75 c36 -26 46 -74 26 -123 -14 -33 -52 -65 -64
-54 -2 3 4 8 15 11 26 8 46 49 46 93 0 103 -160 111 -180 8 -8 -46 2 -73 39
-96 18 -10 26 -19 19 -19 -26 0 -72 57 -72 90 0 37 23 85 47 99 30 17 93 13
124 -9z m-24411 -80 c-11 -11 -23 -20 -27 -20 -3 0 2 9 12 20 10 11 22 20 27
20 4 0 -1 -9 -12 -20z m17056 6 c10 -8 17 -17 14 -19 -3 -3 -16 3 -29 14 -27
22 -15 26 15 5z m-16994 -21 c9 -21 8 -28 -7 -45 -10 -11 -23 -20 -28 -20 -6
0 0 11 13 24 21 23 21 26 6 41 -19 19 -20 25 -6 25 6 0 16 -11 22 -25z m16943
5 c3 -5 1 -10 -4 -10 -6 0 -11 5 -11 10 0 6 2 10 4 10 3 0 8 -4 11 -10z
m-16975 -14 c0 -3 -4 -8 -10 -11 -5 -3 -10 -1 -10 4 0 6 5 11 10 11 6 0 10 -2
10 -4z m-40 -37 c0 -6 -4 -7 -10 -4 -5 3 -10 11 -10 16 0 6 5 7 10 4 6 -3 10
-11 10 -16z m17070 -4 c-7 -8 -17 -15 -23 -15 -6 0 -2 7 9 15 25 19 30 19 14
0z m-16076 -46 c33 -26 36 -77 6 -104 -27 -25 -37 -12 -11 14 27 27 27 57 0
72 -26 13 -70 19 -64 8 3 -4 -4 -10 -15 -14 -11 -3 -20 -14 -21 -23 0 -10 -3
-12 -5 -5 -8 18 14 53 39 63 33 13 42 12 71 -11z m15157 0 l24 -21 -23 15
c-25 16 -62 12 -62 -6 0 -6 -3 -8 -6 -4 -7 7 -28 -12 -37 -33 -4 -12 -6 -11
-6 3 -1 23 43 67 67 67 11 0 30 -9 43 -21z m8204 11 c3 -5 1 -10 -4 -10 -6 0
-11 5 -11 10 0 6 2 10 4 10 3 0 8 -4 11 -10z m-8215 -50 c0 -5 -4 -10 -10 -10
-5 0 -10 5 -10 10 0 6 5 10 10 10 6 0 10 -4 10 -10z m40 -15 c0 -30 -41 -76
-67 -74 -17 1 -17 2 0 6 10 3 14 10 11 16 -4 7 -4 9 0 5 13 -11 46 25 46 49 0
13 2 23 5 23 3 0 5 -11 5 -25z m-96 -52 c8 -19 2 -16 -25 13 -23 25 -23 26 -2
13 13 -7 25 -19 27 -26z m-15146 4 c5 -23 -11 -21 -33 3 -18 20 -18 20 6 17
13 -2 25 -11 27 -20z m-4342 -216 c-16 -15 -36 -7 -36 15 0 17 16 19 23 2 3
-7 6 -4 6 7 1 17 3 17 11 5 6 -10 5 -19 -4 -29z m23903 10 c0 -10 -2 -11 -6
-3 -7 19 -23 14 -16 -5 5 -14 3 -16 -7 -6 -7 6 -10 19 -7 27 8 20 37 10 36
-13z m-18359 -80 c0 -11 -5 -23 -11 -27 -15 -9 -33 12 -26 30 9 23 37 20 37
-3z m12820 0 c0 -11 -4 -22 -9 -25 -12 -8 -34 21 -26 34 11 17 35 11 35 -9z
m-19073 -35 c-20 -15 -22 -37 -5 -54 14 -14 48 -16 48 -3 0 5 7 11 15 15 12 4
13 2 6 -13 -22 -40 -82 -27 -94 19 -6 22 29 68 41 55 4 -4 -1 -12 -11 -19z
m63 -6 c0 -15 -5 -12 -26 11 -19 22 -19 22 4 10 12 -6 22 -16 22 -21z m25242
-1 c35 -46 -11 -95 -59 -64 -13 9 -22 19 -19 22 3 4 15 -2 25 -11 18 -17 20
-17 41 4 l22 22 -23 24 -23 24 -23 -22 c-13 -12 -23 -16 -23 -10 0 14 41 43
54 39 5 -2 18 -14 28 -28z m-25281 -22 c-1 -12 -15 -9 -19 4 -3 6 1 10 8 8 6
-3 11 -8 11 -12z m25249 3 c0 -5 -4 -10 -10 -10 -5 0 -10 5 -10 10 0 6 5 10
10 10 6 0 10 -4 10 -10z m1908 -300 c86 -53 94 -157 16 -219 -40 -32 -123 -29
-163 5 -27 23 -51 75 -51 113 0 21 13 4 17 -21 2 -12 8 -25 15 -29 6 -4 7 -12
3 -19 -5 -8 -4 -11 3 -6 6 3 14 1 18 -5 4 -8 3 -9 -4 -5 -7 4 -12 2 -12 -3 0
-6 9 -11 19 -11 11 0 23 -5 27 -11 3 -6 15 -9 25 -6 10 3 22 1 25 -4 11 -18
45 -8 80 24 47 43 56 99 24 140 -18 22 -25 26 -32 15 -6 -9 -8 -8 -6 7 2 15
-2 20 -20 19 -16 -1 -22 3 -18 12 4 10 -3 14 -22 14 -43 0 -72 -11 -65 -24 3
-6 2 -8 -2 -3 -5 4 -20 -3 -33 -15 l-25 -23 12 23 c26 49 113 66 169 32z
m-29040 -56 c-16 -8 -29 -18 -29 -22 -7 -37 -3 -56 17 -77 30 -32 67 -32 88 0
29 45 15 90 -34 108 -10 4 -8 6 7 6 31 1 65 -45 59 -82 -8 -49 -35 -70 -81
-64 -46 7 -75 36 -75 76 0 31 33 71 58 71 12 -1 8 -5 -10 -16z m-3337 -74 c22
0 49 -42 49 -75 0 -44 -29 -75 -71 -75 -43 0 -65 15 -78 51 -9 27 -8 37 7 63
11 19 25 30 35 28 9 -2 17 2 17 9 0 6 7 8 16 5 9 -3 20 -6 25 -6z m35760 -19
c36 -36 37 -73 4 -106 -31 -32 -84 -34 -111 -3 -10 12 -13 18 -6 14 6 -4 12
-2 12 4 0 7 6 8 18 1 13 -7 23 -6 30 1 7 7 12 8 12 4 0 -5 -7 -14 -16 -20 -13
-10 -12 -12 6 -13 25 -2 62 26 53 40 -3 6 -1 7 5 3 27 -16 11 42 -18 67 l-30
27 -35 -19 c-19 -10 -31 -22 -27 -26 4 -5 1 -5 -5 -1 -8 4 -13 2 -13 -5 0 -7
-3 -9 -7 -6 -8 9 26 47 52 58 34 13 45 10 76 -20z m-29481 -141 c11 -11 20
-28 20 -37 0 -24 -30 -53 -56 -53 -23 0 -54 23 -54 41 0 15 20 10 26 -6 8 -19
41 -19 60 -1 17 17 19 30 2 20 -6 -4 -8 -3 -4 4 3 6 -1 18 -11 27 -15 16 -17
16 -33 -5 -23 -30 -46 -23 -25 8 20 27 49 28 75 2z m23200 -5 c7 -9 10 -19 6
-23 -4 -4 -12 1 -17 11 -12 21 -26 22 -46 2 -18 -19 -39 -9 -22 11 15 19 63
18 79 -1z m-26163 -38 c14 -30 0 -63 -29 -70 -22 -6 -22 -5 -4 8 18 14 15 20
-7 16 -5 -1 -6 3 -2 8 3 6 12 8 20 4 31 -11 14 28 -17 41 -26 11 -28 15 -12
18 27 6 40 0 51 -25z m29136 -14 c-7 -3 -13 -11 -13 -19 0 -9 5 -12 10 -9 6 3
10 2 10 -4 0 -29 -74 -36 -92 -9 -10 16 -10 49 0 64 13 21 56 21 77 1 14 -14
16 -21 8 -24z m-29216 7 c-1 -12 -5 -16 -10 -11 -5 5 -6 14 -3 20 11 16 15 13
13 -9z m26228 10 c4 -6 11 -8 16 -5 5 4 9 -1 9 -9 0 -37 -73 -48 -91 -13 -12
22 -12 22 9 3 23 -20 52 -16 52 9 0 18 -12 19 -28 3 -7 -7 -12 -8 -12 -2 0 23
33 33 45 14z m-20801 -146 c9 -8 16 -25 15 -37 0 -21 0 -22 -9 -2 -14 35 -36
48 -60 35 -11 -6 -18 -15 -15 -21 4 -5 1 -9 -4 -9 -18 0 -12 18 11 34 28 20
43 20 62 0z m18433 -10 c15 -24 15 -29 2 -53 -19 -33 -65 -36 -85 -5 -12 18
-12 21 0 21 9 0 13 -4 10 -9 -3 -4 0 -8 6 -8 6 0 9 -4 6 -9 -3 -5 5 -8 19 -8
14 0 22 4 18 10 -3 5 -1 7 5 3 5 -3 12 0 15 6 7 20 -12 48 -31 48 -15 0 -15 2
-2 10 13 8 13 10 -1 10 -9 0 -18 -3 -22 -6 -9 -10 4 -34 16 -27 6 4 7 1 2 -7
-6 -10 -11 -9 -22 6 -12 16 -15 17 -23 4 -6 -9 -10 -10 -10 -3 0 19 30 43 55
43 15 0 31 -10 42 -26z m-18457 -66 c27 16 35 15 20 -3 -7 -8 -21 -15 -31 -15
-19 0 -49 25 -49 42 0 6 9 0 20 -13 18 -20 24 -21 40 -11z m644 -16 c-14 -12
-20 -28 -19 -47 3 -44 4 -47 17 -39 7 4 8 3 4 -5 -9 -14 30 -30 56 -23 23 6
48 40 48 65 0 10 -12 29 -26 42 -15 14 -23 25 -17 25 19 0 53 -41 53 -65 0
-37 -10 -55 -40 -70 -52 -27 -110 6 -110 63 0 35 23 72 44 72 6 -1 2 -9 -10
-18z m17128 1 c21 -25 21 -87 0 -106 -22 -19 -67 -33 -58 -18 4 6 14 11 23 11
11 0 14 7 10 26 -3 18 -1 24 9 20 7 -3 16 0 20 6 4 7 3 8 -4 4 -6 -4 -16 4
-23 16 -9 19 -9 21 2 11 15 -15 29 -17 29 -4 0 12 -68 43 -80 36 -5 -3 -6 -13
-3 -22 4 -10 2 -14 -4 -10 -12 8 -39 -20 -29 -30 3 -3 6 -1 6 6 0 7 5 9 11 6
6 -5 4 -11 -6 -19 -14 -10 -14 -14 5 -34 11 -12 17 -22 12 -22 -15 0 -44 38
-37 49 3 6 1 11 -4 11 -16 0 -14 11 9 48 17 27 25 32 58 32 25 0 45 -6 54 -17z
m-17304 -294 l-33 -41 25 -20 c14 -11 24 -25 23 -29 -7 -23 38 -6 58 22 18 26
20 35 10 55 -6 14 -15 23 -20 20 -10 -7 -25 24 -16 32 9 10 53 -41 60 -70 9
-36 -31 -78 -75 -78 -36 0 -80 38 -80 69 0 24 46 81 66 81 10 0 4 -13 -18 -41z
m17426 26 c-3 -6 -19 -19 -36 -29 -31 -19 -32 -11 -1 25 15 18 43 21 37 4z
m65 -11 c27 -34 27 -72 -1 -101 -27 -29 -80 -31 -108 -3 -21 21 -27 60 -10 60
5 0 6 -7 3 -17 -4 -10 -2 -14 4 -10 6 4 18 -4 27 -18 9 -14 24 -25 33 -25 20
0 63 38 63 56 0 17 -26 65 -32 59 -3 -3 -11 1 -18 10 -10 12 -10 15 3 15 9 0
25 -12 36 -26z m-17482 -50 c-3 -3 -12 -4 -19 -1 -8 3 -5 6 6 6 11 1 17 -2 13
-5z m-9893 -73 c23 -25 18 -77 -6 -75 -10 1 -15 -2 -12 -7 7 -12 -23 -11 -47
1 -33 18 -19 79 21 93 24 9 26 8 44 -12z m37314 -37 c7 -52 -55 -74 -84 -29
-19 29 -11 63 19 75 30 11 61 -10 65 -46z m-33358 -704 c21 -39 -19 -77 -63
-61 -14 6 -28 15 -32 20 -9 15 8 14 23 -1 7 -7 12 -8 12 -2 0 5 5 2 10 -6 8
-13 13 -12 32 8 l23 24 -32 -7 c-27 -5 -33 -3 -33 10 0 12 6 15 20 10 12 -4
20 -2 20 5 0 17 -31 24 -51 11 -11 -6 -19 -7 -19 -3 0 5 10 14 23 19 26 12 52
2 67 -27z m29410 11 c5 -11 10 -26 9 -33 0 -9 -2 -10 -6 -1 -6 16 -43 -6 -43
-25 0 -7 -5 -10 -11 -6 -7 4 -7 10 -1 16 6 6 8 17 4 26 -4 12 -1 14 12 9 12
-5 16 -3 14 5 -3 7 -15 15 -29 19 -22 6 -21 7 8 8 22 1 35 -5 43 -18z m0 -60
c0 -5 -7 -11 -14 -14 -10 -4 -13 -1 -9 9 6 15 23 19 23 5z m-32749 -251 c26
-14 24 -31 -3 -27 -13 2 -17 2 -10 0 16 -6 15 -13 -5 -29 -16 -12 -15 -13 10
-14 16 0 26 -4 22 -10 -3 -5 -20 -9 -37 -7 -25 2 -33 8 -39 31 -9 34 -3 53 19
59 10 3 18 5 20 6 2 0 12 -4 23 -9z m36050 0 c25 -14 26 -71 1 -86 -29 -19
-83 11 -67 36 5 8 12 7 23 -2 15 -12 16 -11 3 4 -7 10 -17 15 -22 12 -20 -12
-7 16 13 30 27 19 24 19 49 6z m-30611 -150 c13 -13 20 -33 20 -59 0 -104
-148 -102 -152 2 -2 50 24 77 74 77 25 0 45 -7 58 -20z m25239 -6 c35 -45 26
-95 -20 -120 -36 -18 -73 -10 -99 23 -27 34 -25 69 5 98 34 35 86 34 114 -1z
m-19349 -50 c0 -2 -18 -4 -41 -4 -22 0 -38 4 -35 8 5 8 76 4 76 -4z m70 -24
c0 -5 -2 -10 -4 -10 -3 0 -8 5 -11 10 -3 6 -1 10 4 10 6 0 11 -4 11 -10z
m-10210 -50 c0 -23 -29 -35 -36 -15 -7 18 14 47 27 39 5 -3 9 -13 9 -24z
m10340 15 c0 -2 -6 -5 -13 -8 -8 -3 -14 1 -14 8 0 7 6 11 14 8 7 -3 13 -6 13
-8z m8005 5 c4 -6 -15 -9 -52 -8 l-58 1 50 7 c28 4 51 8 52 8 1 1 5 -2 8 -8z
m285 -5 c0 -1 -9 -5 -20 -8 -12 -3 -20 0 -20 8 0 8 8 11 20 8 11 -3 20 -7 20
-8z m710 6 c0 -5 -7 -11 -14 -14 -10 -4 -13 -1 -9 9 6 15 23 19 23 5z m66 -3
c5 4 5 3 1 -3 -11 -13 -57 -18 -57 -6 0 6 7 7 17 4 12 -5 14 -3 8 8 -7 11 -6
12 7 2 8 -7 19 -9 24 -5z m3464 2 c12 -8 11 -10 -7 -10 -13 0 -23 5 -23 10 0
13 11 13 30 0z m70 -6 c0 -2 -11 -4 -25 -4 -14 0 -25 4 -25 9 0 4 11 6 25 3
14 -2 25 -6 25 -8z m40 6 c0 -5 -8 -10 -17 -10 -15 0 -16 2 -3 10 19 12 20 12
20 0z m-4400 -20 c0 -14 7 -20 23 -21 17 -1 15 -3 -8 -8 -42 -9 -75 -2 -75 18
0 10 3 12 8 5 10 -15 42 -14 42 2 0 7 -10 15 -22 17 -20 4 -19 4 5 6 21 1 27
-4 27 -19z m15080 -5 c0 -22 -3 -24 -20 -15 -21 11 -17 40 6 40 8 0 14 -10 14
-25z m-23223 -1 c-3 -3 -12 -4 -19 -1 -8 3 -5 6 6 6 11 1 17 -2 13 -5z m3630
0 c-3 -3 -12 -4 -19 -1 -8 3 -5 6 6 6 11 1 17 -2 13 -5z m3023 -4 c0 13 1 13
10 0 5 -8 10 -19 10 -25 0 -5 -5 -3 -10 5 -9 13 -10 13 -11 0 -1 -8 -1 -22 0
-30 0 -10 -1 -11 -5 -2 -3 6 -9 10 -13 7 -7 -4 -8 11 -2 50 1 6 6 3 11 -5 9
-13 10 -13 10 0z m1301 -10 c10 0 19 6 20 13 0 10 2 10 6 0 2 -7 11 -13 19
-13 8 0 14 6 14 13 0 9 3 8 9 -2 5 -7 13 -11 18 -8 5 3 15 2 23 -4 11 -6 8 -9
-12 -9 -16 0 -28 -6 -28 -12 0 -9 -2 -10 -8 -2 -4 8 -49 12 -126 13 -65 0
-121 3 -124 6 -3 3 29 5 71 5 48 0 79 4 83 12 6 9 9 9 12 0 2 -7 12 -12 23
-12z m2243 -7 c-4 -23 -3 -25 6 -13 9 12 11 12 8 1 -5 -17 -37 -24 -33 -7 3
17 17 46 21 46 3 0 2 -12 -2 -27z m-9807 11 c-3 -3 -12 -4 -19 -1 -8 3 -5 6 6
6 11 1 17 -2 13 -5z m4330 -16 c-3 -8 -6 -5 -6 6 -1 11 2 17 5 13 3 -3 4 -12
1 -19z m2153 12 c0 13 1 13 10 0 7 -11 10 -12 10 -2 0 10 4 9 16 -2 8 -9 20
-14 25 -11 5 4 9 1 9 -4 0 -13 1 -12 -65 -17 -45 -3 -51 -1 -51 17 0 12 5 18
13 15 7 -3 13 0 13 7 0 8 4 6 10 -3 9 -13 10 -13 10 0z m3372 -24 c7 4 8 2 4
-5 -11 -17 -26 -3 -25 22 2 22 2 22 6 -1 3 -13 9 -19 15 -16z m72 19 c-4 -8
-2 -15 4 -15 6 0 13 6 15 13 3 7 6 5 6 -5 1 -10 -7 -19 -16 -20 -47 -4 -57 -2
-61 11 -3 10 0 11 17 2 18 -10 21 -9 21 9 0 11 4 20 10 20 5 0 7 -7 4 -15z
m156 5 c0 -5 -4 -10 -10 -10 -5 0 -10 5 -10 10 0 6 5 10 10 10 6 0 10 -4 10
-10z m141 -18 c153 0 130 -11 -30 -14 -78 -2 -141 0 -141 5 0 4 14 7 30 7 17
0 29 3 29 8 -3 17 4 26 8 10 4 -14 19 -16 104 -16z m239 21 c0 -5 -46 -9 -103
-9 -66 -1 -90 1 -67 6 47 10 170 12 170 3z m701 -10 c0 -11 3 -13 6 -5 2 6 11
12 19 12 9 0 12 -4 9 -10 -4 -6 6 -10 22 -9 15 0 22 3 16 6 -41 16 6 23 161
23 152 0 175 -2 180 -16 4 -9 4 -19 1 -22 -3 -3 -5 0 -5 6 0 9 -44 11 -162 10
-90 -1 -134 -3 -98 -5 36 -2 70 -9 75 -15 7 -7 7 -9 0 -5 -6 3 -63 7 -128 8
-106 2 -117 4 -117 21 0 23 20 24 21 1z m572 8 c4 -1 7 -5 7 -9 0 -5 -13 -7
-30 -4 -18 3 -30 0 -30 -7 0 -6 -5 -11 -11 -11 -5 0 -7 5 -4 10 3 6 1 10 -4
10 -6 0 -11 -4 -11 -10 0 -5 -5 -10 -11 -10 -5 0 -7 5 -4 10 3 6 0 10 -9 10
-8 0 -17 -6 -19 -12 -4 -10 -8 -9 -16 2 -6 8 -11 18 -11 22 0 6 72 5 153 -1z
m287 -7 c3 -3 -28 -4 -68 -2 -77 3 -101 -8 -29 -15 23 -2 6 -4 -38 -5 -53 0
-73 2 -60 8 16 7 17 9 3 9 -9 1 -19 5 -22 9 -6 9 205 5 214 -4z m-11920 -4 c0
-5 -4 -10 -10 -10 -5 0 -10 5 -10 10 0 6 5 10 10 10 6 0 10 -4 10 -10z m1700
-3 c0 -15 46 -21 55 -7 4 6 10 8 15 5 18 -11 75 -12 82 -1 6 8 8 8 8 -1 0 -6
8 -10 18 -8 9 1 11 0 5 -2 -7 -3 -13 -8 -13 -11 0 -4 -34 -8 -75 -8 -44 0 -75
4 -75 9 0 6 -3 7 -6 4 -9 -8 -44 11 -44 23 0 6 7 10 15 10 8 0 15 -6 15 -13z
m233 -1 c3 -9 15 -12 31 -9 14 3 26 1 26 -4 0 -5 -17 -9 -39 -9 -25 1 -37 5
-34 13 2 6 -4 13 -14 16 -15 4 -15 5 3 6 12 0 24 -5 27 -13z m1622 -8 c6 -4 2
-8 -7 -8 -10 0 -18 7 -18 17 0 9 3 12 8 7 4 -5 12 -12 17 -16z m115 10 c0 -10
2 -10 9 0 5 9 17 11 35 6 48 -12 8 -24 -74 -22 -41 0 -62 3 -46 5 22 4 26 7
15 14 -10 6 -3 9 24 9 23 0 37 -5 37 -12z m87 -10 c-3 -8 -6 -5 -6 6 -1 11 2
17 5 13 3 -3 4 -12 1 -19z m2468 12 c-3 -5 -12 -7 -20 -3 -21 7 -19 13 6 13
11 0 18 -4 14 -10z m3436 -23 c-8 -8 -11 -7 -11 4 0 20 13 34 18 19 3 -7 -1
-17 -7 -23z m2508 29 c-2 -2 -17 -6 -34 -10 -22 -5 -26 -4 -15 4 14 9 59 15
49 6z m-10515 -21 c3 -8 1 -15 -4 -15 -6 0 -10 7 -10 15 0 8 2 15 4 15 2 0 6
-7 10 -15z m3127 -8 c-10 -9 -11 -8 -5 6 3 10 9 15 12 12 3 -3 0 -11 -7 -18z
m1536 3 c-1 -19 -7 -20 -72 -18 -48 2 -68 6 -62 13 11 11 62 14 72 4 8 -9 45
1 45 12 0 5 4 9 9 9 6 0 9 -9 8 -20z m3568 1 c-3 -6 -11 -8 -17 -5 -6 4 -5 9
3 15 16 10 23 4 14 -10z m52 -3 c-3 -8 -6 -5 -6 6 -1 11 2 17 5 13 3 -3 4 -12
1 -19z m-17 8 c0 -3 -4 -8 -10 -11 -5 -3 -10 -1 -10 4 0 6 5 11 10 11 6 0 10
-2 10 -4z m418 -3 c-10 -2 -26 -2 -35 0 -10 3 -2 5 17 5 19 0 27 -2 18 -5z
m225 0 c-23 -2 -64 -2 -90 0 -26 2 -7 3 42 3 50 0 71 -1 48 -3z m74 1 c-3 -3
-12 -4 -19 -1 -8 3 -5 6 6 6 11 1 17 -2 13 -5z m76 -1 c-13 -2 -33 -2 -45 0
-13 2 -3 4 22 4 25 0 35 -2 23 -4z m70 0 c-7 -2 -19 -2 -25 0 -7 3 -2 5 12 5
14 0 19 -2 13 -5z m602 2 c-23 -8 -83 -10 -79 -3 3 4 24 8 47 7 23 0 38 -2 32
-4z m-8351 -13 c3 -5 -1 -9 -9 -9 -8 0 -12 4 -9 9 3 4 7 8 9 8 2 0 6 -4 9 -8z
m5803 2 c-3 -3 -12 -4 -19 -1 -8 3 -5 6 6 6 11 1 17 -2 13 -5z m-13683 -20
c32 -31 14 -84 -28 -84 -37 0 -50 14 -35 39 8 11 21 21 29 21 10 0 7 -7 -10
-20 -24 -19 -25 -19 -2 -15 12 2 22 -1 22 -7 0 -7 6 -6 15 2 21 17 19 34 -6
56 -16 14 -23 16 -26 6 -3 -7 -14 -17 -25 -23 -16 -9 -19 -8 -13 3 25 42 52
50 79 22z m13006 7 c0 -5 -9 -11 -20 -14 -22 -6 -28 8 -7 16 19 8 27 8 27 -2z
m8511 -1 c23 -13 26 -62 5 -79 -46 -38 -111 25 -71 69 20 22 37 25 66 10z
m-8654 -6 c-3 -3 -12 -4 -19 -1 -8 3 -5 6 6 6 11 1 17 -2 13 -5z m4408 -4 c13
-6 15 -9 5 -9 -8 0 -22 4 -30 9 -18 12 -2 12 25 0z m-10585 -15 c-5 -7 -8 -14
-5 -17 3 -2 -1 -5 -9 -5 -7 0 -12 7 -11 16 4 19 2 18 20 18 10 0 12 -4 5 -12z
m1072 1 c7 4 8 2 4 -5 -9 -13 -26 -5 -25 12 0 9 2 8 6 -1 2 -6 10 -9 15 -6z
m9448 -14 c0 -15 -2 -15 -10 -2 -13 20 -13 33 0 25 6 -3 10 -14 10 -23z
m-6175 7 c11 -16 1 -19 -13 -3 -7 8 -8 14 -3 14 5 0 13 -5 16 -11z m-3941 -8
c-8 -8 -34 -10 -38 -2 -3 4 6 7 19 7 14 0 22 -2 19 -5z m2962 -3 c3 -4 -1 -5
-10 -4 -8 1 -18 5 -22 8 -3 4 1 5 10 4 8 -1 18 -5 22 -8z m5577 -5 c-7 -2 -19
-2 -25 0 -7 3 -2 5 12 5 14 0 19 -2 13 -5z m1654 -40 c-2 -2 -18 0 -36 3 -21
4 -28 10 -20 14 11 7 64 -9 56 -17z m-10727 -27 c0 -6 -5 -4 -10 4 -5 8 -14
16 -20 16 -20 3 -21 4 -15 15 8 12 45 -17 45 -35z m9207 38 c-3 -3 -12 -4 -19
-1 -8 3 -5 6 6 6 11 1 17 -2 13 -5z m329 -3 c-9 -15 21 -21 101 -21 74 0 90
-6 43 -15 -13 -3 -109 -7 -214 -10 -153 -4 -197 -2 -221 9 -29 14 -29 14 37
15 43 1 68 5 71 14 3 6 6 3 6 -7 1 -18 2 -18 14 -3 9 12 31 17 82 20 39 2 74
4 78 5 5 1 6 -2 3 -7z m-5249 -16 c0 -8 -4 -12 -9 -9 -5 3 -6 10 -3 15 9 13
12 11 12 -6z m5021 8 c-10 -2 -26 -2 -35 0 -10 3 -2 5 17 5 19 0 27 -2 18 -5z
m-138 -28 c0 -8 -7 -15 -16 -15 -8 0 -12 5 -9 10 3 6 -1 10 -10 10 -9 0 -14
-4 -11 -9 4 -5 -12 -5 -37 0 -67 15 -66 17 11 18 58 1 72 -2 72 -14z m1590
-25 c-5 -3 -8 -25 -7 -48 2 -23 -1 -42 -5 -42 -4 0 -8 11 -8 25 0 14 -4 25
-10 25 -5 0 -7 -14 -3 -32 3 -18 3 -30 -1 -27 -4 4 -9 17 -11 29 -5 26 -12 35
-28 35 -7 0 -13 8 -15 18 -2 10 3 17 12 17 9 0 16 3 16 8 0 4 10 12 23 17 17
8 25 7 34 -5 6 -8 7 -17 3 -20z m-4550 20 c0 -5 -4 -10 -10 -10 -5 0 -10 5
-10 10 0 6 5 10 10 10 6 0 10 -4 10 -10z m4577 -22 c-3 -8 -6 -5 -6 6 -1 11 2
17 5 13 3 -3 4 -12 1 -19z m-13567 -42 c0 -3 -4 -8 -10 -11 -5 -3 -10 -1 -10
4 0 6 5 11 10 11 6 0 10 -2 10 -4z m13620 -86 c0 -5 -5 -10 -11 -10 -5 0 -7 5
-4 10 3 6 8 10 11 10 2 0 4 -4 4 -10z m10 -69 c0 -14 -2 -14 -10 -1 -8 12 -10
12 -10 1 0 -10 -3 -11 -13 -2 -8 6 -17 8 -21 4 -4 -4 -4 0 -1 8 8 21 55 13 55
-10z m-13753 -6 c-4 -8 -14 -15 -24 -15 -15 0 -16 2 -3 10 13 9 13 10 0 11
-10 0 -8 3 5 8 24 10 29 7 22 -14z m13803 -25 c0 -5 -5 -10 -11 -10 -5 0 -7 5
-4 10 3 6 8 10 11 10 2 0 4 -4 4 -10z m-13789 -63 c-10 -9 -11 -8 -5 6 3 10 9
15 12 12 3 -3 0 -11 -7 -18z m-117 -23 c3 -8 2 -12 -4 -9 -6 3 -10 10 -10 16
0 14 7 11 14 -7z m-89 -14 c3 -5 1 -10 -4 -10 -6 0 -11 5 -11 10 0 6 2 10 4
10 3 0 8 -4 11 -10z m14070 -10 c3 -5 1 -10 -4 -10 -6 0 -11 5 -11 10 0 6 2
10 4 10 3 0 8 -4 11 -10z m-14076 -161 c-22 -13 -31 -11 -17 5 7 8 17 12 22 9
4 -3 2 -9 -5 -14z m-42 -31 c-3 -8 -6 -5 -6 6 -1 11 2 17 5 13 3 -3 4 -12 1
-19z m-100 -170 c-3 -8 -6 -5 -6 6 -1 11 2 17 5 13 3 -3 4 -12 1 -19z m-13
-57 c-4 -17 -9 -30 -11 -27 -3 2 -2 19 2 36 4 17 9 30 11 27 2 -2 1 -18 -2
-36z m-7348 -19 c8 -9 14 -29 14 -44 0 -21 -6 -29 -24 -34 -39 -9 -59 -1 -69
29 -7 21 -5 32 7 45 20 23 56 25 72 4z m29616 1 c34 -31 17 -83 -27 -83 -28 0
-45 19 -45 50 0 47 37 65 72 33z m-22285 -62 c-1 -22 -5 -36 -10 -32 -7 7 1
71 9 71 2 0 3 -18 1 -39z m-26 -109 c-6 -15 -11 -50 -13 -79 -1 -29 -5 -50 -9
-48 -3 3 -9 -9 -13 -27 -3 -17 -9 -29 -12 -25 -3 3 1 32 9 64 8 32 21 87 28
123 9 40 15 56 17 42 2 -13 -1 -36 -7 -50z m14607 -117 l1 -20 -9 20 c-5 11
-8 31 -8 45 l0 25 8 -25 c4 -14 8 -34 8 -45z m-19447 26 c45 -46 37 -107 -18
-130 -23 -9 -40 -7 -88 8 -33 11 -59 24 -58 29 1 6 16 31 33 56 51 74 84 84
131 37z m24728 5 c21 -25 59 -104 54 -110 -4 -3 -16 -6 -28 -6 -11 0 -26 -5
-32 -11 -6 -6 -28 -11 -48 -12 -29 -1 -43 5 -61 27 -31 35 -30 70 1 101 27 28
94 35 114 11z m-5272 -88 c-3 -7 -5 -2 -5 12 0 14 2 19 5 13 2 -7 2 -19 0 -25z
m-14670 -55 c-3 -10 -5 -4 -5 12 0 17 2 24 5 18 2 -7 2 -21 0 -30z m-20 -105
c-3 -7 -5 -2 -5 12 0 14 2 19 5 13 2 -7 2 -19 0 -25z m-1333 -19 c36 -28 36
-81 0 -114 -33 -30 -63 -32 -98 -4 -20 16 -26 29 -26 59 0 71 67 104 124 59z
m17856 3 c36 -29 27 -116 -13 -131 -26 -10 -87 3 -99 21 -4 7 -7 33 -6 58 3
36 8 47 28 57 35 18 64 16 90 -5z m-1768 -152 c3 -25 3 -37 1 -27 -3 9 -7 17
-11 17 -4 0 -8 16 -9 37 -3 51 14 28 19 -27z m-22459 2 c36 -31 9 -82 -43 -82
-53 0 -67 80 -17 99 23 9 32 7 60 -17z m30571 9 c11 -12 16 -31 14 -53 -3 -30
-6 -33 -40 -36 -29 -3 -40 2 -52 20 -19 29 -11 62 17 76 32 15 42 14 61 -7z
m-24012 -48 c19 -17 25 -63 7 -63 -5 0 -8 -4 -5 -9 3 -5 -1 -14 -9 -21 -10 -9
-15 -9 -15 -1 0 6 -11 11 -24 11 -40 0 -42 74 -2 90 29 12 27 12 48 -7z
m17442 -2 c35 -29 16 -81 -29 -81 -44 0 -59 19 -45 56 17 44 41 52 74 25z
m-21127 -68 c3 -10 -11 -13 -51 -13 -50 0 -75 12 -45 22 26 9 93 2 96 -9z
m24851 0 c2 -9 -10 -13 -42 -13 -53 0 -71 17 -24 23 47 6 61 4 66 -10z m-4730
-23 c177 0 322 -3 322 -7 0 -5 -28 -9 -63 -9 -34 -1 -78 -4 -97 -7 -19 -3 -75
-7 -125 -8 -49 -2 -93 -8 -97 -13 -5 -7 -8 -7 -8 2 0 6 -9 12 -21 12 -12 0
-17 -4 -13 -11 5 -8 1 -8 -14 0 -27 14 -35 14 -26 -1 5 -8 0 -7 -11 2 -15 12
-17 12 -10 1 6 -11 3 -13 -13 -9 -13 4 -20 2 -19 -6 1 -6 -6 -10 -15 -10 -10
1 -18 -4 -18 -12 0 -8 5 -14 10 -14 6 0 10 -5 10 -11 0 -5 -4 -7 -10 -4 -5 3
-10 -1 -10 -9 0 -9 -7 -16 -15 -16 -8 0 -15 -7 -15 -16 0 -9 6 -14 12 -12 14
5 38 -15 38 -31 0 -7 -47 -11 -138 -11 l-138 0 -14 78 c-8 42 -14 85 -14 95 0
9 -3 17 -8 17 -4 0 -8 5 -8 11 0 9 29 10 103 6 56 -4 247 -7 425 -7z m-26873
-10 c3 -6 -1 -13 -9 -16 -9 -3 -14 -9 -11 -13 2 -4 0 -21 -5 -37 -7 -25 -8
-23 -9 24 -1 39 3 52 13 52 8 0 18 -5 21 -10z m11515 2 c0 -5 -2 -11 -5 -14
-3 -3 -7 -42 -9 -87 -2 -45 -6 -84 -9 -87 -6 -6 -529 -5 -536 1 -2 3 37 5 88
5 64 0 90 3 85 11 -4 7 3 6 17 -2 28 -15 29 -15 40 3 7 10 9 10 9 1 0 -7 5
-13 11 -13 5 0 7 5 3 12 -5 8 -3 8 7 2 8 -5 24 -9 36 -9 17 -1 20 2 11 12 -8
10 -7 13 5 13 8 0 18 -6 20 -12 4 -10 8 -10 15 1 5 7 14 11 20 7 5 -3 15 1 22
9 7 8 20 15 29 16 11 0 12 2 3 6 -7 3 -20 -1 -28 -8 -13 -10 -17 -10 -24 0 -5
9 -10 10 -14 2 -11 -17 -29 -13 -22 4 6 17 -9 21 -20 4 -4 -7 -10 -7 -16 -1
-6 6 -16 8 -23 6 -7 -3 -16 -1 -19 5 -4 6 -14 7 -23 4 -13 -5 -15 -2 -10 11 4
10 7 22 7 27 0 6 4 8 9 4 5 -3 12 -1 16 5 4 6 11 8 16 5 5 -4 9 1 9 10 0 12
-4 14 -19 5 -13 -7 -22 -7 -26 0 -3 5 1 11 9 12 9 0 21 1 28 2 7 1 15 -10 19
-24 4 -15 7 -18 8 -8 1 12 6 15 18 11 11 -4 14 -3 9 5 -4 7 -14 12 -22 12 -8
0 -14 7 -14 15 0 13 -43 15 -302 18 -258 2 -238 3 135 5 240 1 437 -2 437 -6z
m15727 2 c-3 -3 -12 -4 -19 -1 -8 3 -5 6 6 6 11 1 17 -2 13 -5z m4406 -1 c-7
-2 -19 -2 -25 0 -7 3 -2 5 12 5 14 0 19 -2 13 -5z m155 0 c-10 -2 -28 -2 -40
0 -13 2 -5 4 17 4 22 1 32 -1 23 -4z m6482 -3 c0 -5 -5 -10 -11 -10 -5 0 -7 5
-4 10 3 6 8 10 11 10 2 0 4 -4 4 -10z m-38343 -147 c-2 -27 -3 -5 -3 47 0 52
1 74 3 48 2 -27 2 -69 0 -95z m11213 57 c0 -5 -5 -10 -11 -10 -5 0 -7 5 -4 10
3 6 8 10 11 10 2 0 4 -4 4 -10z m-11166 -85 c3 -9 0 -15 -9 -15 -8 0 -15 7
-15 15 0 8 4 15 9 15 5 0 11 -7 15 -15z m26706 -6 c0 -5 -4 -9 -10 -9 -5 0
-10 7 -10 16 0 8 5 12 10 9 6 -3 10 -10 10 -16z m-5270 -33 c0 -3 -4 -8 -10
-11 -5 -3 -10 -1 -10 4 0 6 5 11 10 11 6 0 10 -2 10 -4z m-40 -20 c0 -2 -7 -7
-16 -10 -8 -3 -12 -2 -9 4 6 10 25 14 25 6z m-20426 -308 c32 -45 14 -88 -35
-88 -52 0 -77 54 -42 92 22 25 59 23 77 -4z m36408 5 c37 -34 15 -93 -36 -93
-25 0 -54 39 -49 63 11 44 53 59 85 30z m-36137 -179 c26 -26 12 -39 -39 -37
-54 2 -59 4 -50 26 10 28 65 35 89 11z m1489 6 c14 -5 34 -18 45 -29 10 -10
27 -21 38 -24 12 -3 10 -5 -9 -6 -15 0 -29 3 -32 8 -10 15 -55 19 -67 5 -6 -8
-21 -14 -33 -13 -19 1 -18 2 4 8 20 6 15 9 -28 12 -28 2 -52 1 -52 -3 0 -5 -7
-8 -15 -8 -22 0 -18 13 8 30 47 32 94 38 141 20z m34384 -2 c7 -7 12 -19 12
-28 0 -13 -10 -16 -50 -15 -60 1 -69 9 -45 35 20 22 64 27 83 8z m-10163 -59
c9 -9 1 -10 -67 -12 -15 -1 -24 -5 -22 -9 3 -5 11 -8 17 -7 7 1 25 1 41 0 43
-2 25 -12 -23 -13 -23 0 -41 -3 -41 -7 0 -3 -9 -12 -20 -19 -15 -9 -25 -10
-38 -2 -15 10 -15 11 0 6 9 -2 21 1 27 8 9 10 2 11 -34 6 -24 -4 -50 -12 -58
-19 -8 -6 -28 -13 -44 -14 -20 -1 -30 -7 -29 -17 1 -11 -10 -15 -42 -15 -26 0
-41 -4 -38 -11 2 -6 -2 -11 -9 -11 -8 0 -11 7 -8 16 4 11 3 13 -4 6 -16 -16
-26 -68 -12 -59 8 5 11 1 7 -12 -6 -25 35 -67 51 -51 8 8 11 4 11 -17 0 -30
25 -63 35 -46 3 5 12 10 18 9 9 0 9 -2 0 -6 -26 -10 -12 -24 17 -18 19 4 30 3
30 -4 0 -6 -15 -11 -32 -12 -18 0 -77 -3 -130 -5 l-98 -5 -1 28 c0 15 -2 96
-5 178 l-5 150 248 -3 c138 -2 252 -7 258 -13z m-26955 -4 c0 -8 -4 -15 -10
-15 -5 0 -10 7 -10 15 0 8 5 15 10 15 6 0 10 -7 10 -15z m1297 9 c-3 -3 -12
-4 -19 -1 -8 3 -5 6 6 6 11 1 17 -2 13 -5z m2256 -1 c-7 -2 -19 -2 -25 0 -7 3
-2 5 12 5 14 0 19 -2 13 -5z m74 1 c-3 -3 -12 -4 -19 -1 -8 3 -5 6 6 6 11 1
17 -2 13 -5z m86 -1 c-13 -2 -33 -2 -45 0 -13 2 -3 4 22 4 25 0 35 -2 23 -4z
m170 0 c-24 -2 -62 -2 -85 0 -24 2 -5 4 42 4 47 0 66 -2 43 -4z m180 0 c-7 -2
-19 -2 -25 0 -7 3 -2 5 12 5 14 0 19 -2 13 -5z m95 0 c-16 -2 -40 -2 -55 0
-16 2 -3 4 27 4 30 0 43 -2 28 -4z m89 1 c-3 -3 -12 -4 -19 -1 -8 3 -5 6 6 6
11 1 17 -2 13 -5z m4101 -1 c-38 -2 -98 -2 -135 0 -38 2 -7 3 67 3 74 0 105
-1 68 -3z m270 0 c-15 -2 -42 -2 -60 0 -18 2 -6 4 27 4 33 0 48 -2 33 -4z
m160 0 c-10 -2 -28 -2 -40 0 -13 2 -5 4 17 4 22 1 32 -1 23 -4z m109 1 c-3 -3
-12 -4 -19 -1 -8 3 -5 6 6 6 11 1 17 -2 13 -5z m40 0 c-3 -3 -12 -4 -19 -1 -8
3 -5 6 6 6 11 1 17 -2 13 -5z m106 -1 c-13 -2 -33 -2 -45 0 -13 2 -3 4 22 4
25 0 35 -2 23 -4z m150 0 c-18 -2 -48 -2 -65 0 -18 2 -4 4 32 4 36 0 50 -2 33
-4z m355 0 c-10 -2 -26 -2 -35 0 -10 3 -2 5 17 5 19 0 27 -2 18 -5z m220 0
c-10 -2 -26 -2 -35 0 -10 3 -2 5 17 5 19 0 27 -2 18 -5z m335 0 c-29 -2 -78
-2 -110 0 -32 2 -8 3 52 3 61 0 87 -1 58 -3z m245 0 c-32 -2 -84 -2 -115 0
-32 2 -6 3 57 3 63 0 89 -1 58 -3z m139 1 c-3 -3 -12 -4 -19 -1 -8 3 -5 6 6 6
11 1 17 -2 13 -5z m979 -26 c-2 -18 -6 -43 -10 -55 -4 -14 -3 -23 3 -23 5 0 8
-12 6 -27 -2 -16 -4 -70 -4 -120 l-1 -93 -132 1 c-73 0 -151 4 -173 8 -40 9
-40 11 3 15 13 2 28 9 33 17 6 10 9 10 9 2 0 -7 7 -13 16 -13 13 0 14 3 5 13
-6 8 -8 17 -4 20 3 4 -2 7 -12 7 -15 0 -15 2 -5 15 11 13 15 13 21 3 7 -10 9
-10 10 2 1 8 1 21 0 28 -1 6 3 12 9 12 5 0 10 -4 10 -9 0 -5 7 -11 14 -14 10
-4 13 -1 10 8 -4 8 7 17 30 25 36 12 45 23 26 35 -6 4 -7 11 -4 17 4 6 -1 8
-15 3 -13 -4 -21 -2 -21 5 0 6 4 9 9 5 5 -3 13 0 16 6 4 5 14 8 22 5 8 -4 11
-2 7 5 -3 6 -17 9 -30 6 -13 -2 -21 -1 -19 4 3 4 0 11 -6 15 -7 4 -9 3 -6 -3
4 -6 -1 -17 -10 -24 -9 -8 -14 -9 -10 -3 3 6 -5 16 -18 22 -33 15 -34 51 -2
48 13 -2 30 -7 37 -11 9 -5 11 -4 6 3 -4 7 -1 13 6 13 7 1 -5 5 -27 9 l-40 7
45 3 c25 1 49 1 55 0 5 -1 7 2 2 6 -4 4 -15 9 -25 10 -9 1 -26 5 -37 9 -17 6
-18 5 -5 -5 13 -10 13 -11 -2 -6 -22 7 -50 -3 -42 -15 3 -5 -2 -9 -12 -9 -13
0 -14 3 -5 14 15 18 7 22 -46 25 -30 1 -43 -2 -43 -11 0 -10 -2 -10 -8 -1 -6
9 -71 13 -247 16 -147 1 -75 3 187 5 l426 2 -2 -32z m21897 25 c-7 -2 -21 -2
-30 0 -10 3 -4 5 12 5 17 0 24 -2 18 -5z m95 0 c-10 -2 -26 -2 -35 0 -10 3 -2
5 17 5 19 0 27 -2 18 -5z m710 0 c-125 -2 -332 -2 -460 0 -128 1 -26 2 227 2
253 0 358 -1 233 -2z m320 0 c-15 -2 -42 -2 -60 0 -18 2 -6 4 27 4 33 0 48 -2
33 -4z m270 0 c-42 -2 -114 -2 -160 0 -46 1 -11 3 77 3 88 0 125 -2 83 -3z
m-34791 -255 c-1 -46 -3 -9 -3 82 0 91 2 128 3 83 2 -46 2 -120 0 -165z
m11177 212 c-6 -6 -15 -5 -24 1 -13 9 -12 10 3 5 9 -3 17 0 17 6 0 6 3 8 7 5
4 -4 2 -12 -3 -17z m46 -14 c0 -3 -4 -8 -10 -11 -5 -3 -10 -1 -10 4 0 6 5 11
10 11 6 0 10 -2 10 -4z m-11180 -261 c0 -8 -4 -15 -10 -15 -5 0 -10 7 -10 15
0 8 5 15 10 15 6 0 10 -7 10 -15z m10723 -12 c-7 -2 -21 -2 -30 0 -10 3 -4 5
12 5 17 0 24 -2 18 -5z m124 1 c-3 -3 -12 -4 -19 -1 -8 3 -5 6 6 6 11 1 17 -2
13 -5z m141 -1 c-21 -2 -57 -2 -80 0 -24 2 -7 4 37 4 44 0 63 -2 43 -4z m99 1
c-3 -3 -12 -4 -19 -1 -8 3 -5 6 6 6 11 1 17 -2 13 -5z m15670 0 c-3 -3 -12 -4
-19 -1 -8 3 -5 6 6 6 11 1 17 -2 13 -5z m4515 -6 c-7 -7 -12 -27 -12 -45 0
-41 -38 -83 -73 -83 -13 0 -36 9 -51 21 -20 16 -26 29 -26 60 0 38 1 39 32 35
17 -2 46 0 65 4 22 5 33 4 33 -3 0 -6 8 -4 17 6 10 9 19 17 22 17 3 0 0 -5 -7
-12z m7028 2 c0 -5 -4 -10 -10 -10 -5 0 -10 5 -10 10 0 6 5 10 10 10 6 0 10
-4 10 -10z m-31122 -37 c4 -42 -39 -93 -79 -93 -44 0 -79 39 -79 88 l0 40 78
-3 77 -2 3 -30z m-1018 -219 c0 -25 -26 -39 -54 -28 -23 9 -20 40 6 58 26 19
48 5 48 -30z m26020 27 c16 -30 12 -49 -10 -56 -23 -7 -50 10 -50 31 0 14 27
44 40 44 5 0 14 -9 20 -19z m-21153 -251 c18 -10 39 -31 49 -45 l16 -25 189 0
c221 0 195 22 204 -169 3 -69 17 -205 30 -304 35 -252 42 -227 -62 -223 -134
6 -132 6 -105 17 13 5 26 18 29 29 3 11 8 20 12 20 4 0 16 7 27 16 18 15 18
15 -4 9 -21 -6 -22 -5 -10 20 11 24 10 29 -6 41 -11 7 -23 11 -27 8 -5 -3 -9
2 -9 10 0 8 5 18 10 21 6 3 10 -1 10 -10 0 -9 4 -14 10 -10 7 5 -1 40 -16 63
-1 2 -15 5 -30 7 -16 1 -30 8 -32 14 -2 6 -9 8 -14 5 -7 -4 -8 -2 -4 5 4 6 11
9 16 6 5 -3 19 -1 31 6 15 8 19 8 15 0 -4 -6 -2 -11 3 -11 6 0 11 12 11 26 0
14 -4 22 -10 19 -6 -3 -7 1 -4 9 3 9 11 13 18 9 6 -4 4 2 -4 12 -9 11 -10 16
-2 11 20 -12 14 38 -8 62 -25 26 -25 38 -2 51 14 9 12 10 -15 11 -17 0 -35 5
-38 10 -3 6 -1 10 4 10 6 0 11 9 11 21 0 14 -5 19 -13 16 -10 -4 -13 2 -9 20
3 18 1 24 -7 19 -6 -4 -9 -12 -6 -17 4 -5 1 -9 -4 -9 -6 0 -11 5 -11 11 0 5
-4 7 -10 4 -6 -3 -7 1 -4 9 3 9 9 14 13 12 3 -2 12 3 19 10 12 13 10 14 -11 9
-17 -5 -24 -2 -24 8 0 9 8 13 21 10 19 -3 19 -3 -1 6 -27 12 -29 20 -7 36 13
9 -7 12 -99 11 -63 -1 -113 2 -111 6 7 11 -60 20 -115 15 -28 -3 -54 -1 -57 4
-10 18 8 51 39 70 40 24 64 24 104 -1z m16331 0 c18 -11 37 -31 42 -45 9 -24
13 -25 107 -27 l98 -1 -95 -7 c-52 -4 -98 -4 -102 0 -9 7 -216 3 -235 -5 -7
-2 -13 0 -13 5 0 6 9 10 19 10 12 0 21 9 25 24 4 15 21 32 48 45 53 26 65 26
106 1z m-641 -70 c244 0 311 -6 118 -11 -130 -3 -163 -8 -143 -20 10 -7 9 -9
-3 -9 -9 0 -19 -7 -23 -15 -3 -8 -12 -15 -21 -15 -8 0 -15 -5 -15 -11 0 -5 -4
-7 -10 -4 -5 3 -10 1 -10 -5 0 -6 -6 -10 -14 -8 -8 2 -22 -6 -31 -17 -9 -11
-14 -15 -11 -9 6 12 -23 29 -32 19 -3 -3 0 -5 6 -5 7 0 12 -5 12 -11 0 -5 -3
-8 -7 -6 -5 3 -14 -1 -21 -9 -11 -12 -9 -16 10 -23 22 -9 22 -10 -5 -10 -16
-1 -26 -5 -22 -10 3 -5 1 -12 -5 -16 -7 -4 -7 -12 0 -26 6 -10 8 -19 5 -19 -4
0 0 -7 9 -15 8 -9 13 -22 10 -30 -4 -8 -1 -15 5 -15 6 0 8 -7 5 -15 -4 -9 0
-15 10 -15 10 0 13 -5 9 -17 -4 -10 -2 -14 5 -9 6 3 13 2 17 -4 3 -5 17 -10
30 -10 18 0 23 -4 18 -16 -4 -12 0 -15 18 -12 15 2 23 -2 21 -10 -1 -9 5 -11
23 -6 20 5 24 3 19 -10 -3 -9 -8 -16 -9 -16 -2 0 -48 22 -103 49 -55 26 -114
53 -132 59 l-32 12 7 142 c8 157 16 193 41 184 9 -3 122 -6 251 -6z m-26709
-14 c-13 -14 -28 -12 -28 5 0 5 9 9 20 9 17 0 19 -2 8 -14z m3855 7 c-51 -2
-135 -2 -185 0 -51 1 -10 3 92 3 102 0 143 -2 93 -3z m145 0 c-10 -2 -26 -2
-35 0 -10 3 -2 5 17 5 19 0 27 -2 18 -5z m100 0 c-10 -2 -26 -2 -35 0 -10 3
-2 5 17 5 19 0 27 -2 18 -5z m4335 0 c-57 -2 -149 -2 -205 0 -57 1 -11 3 102
3 113 0 159 -2 103 -3z m18660 0 c-13 -2 -35 -2 -50 0 -16 2 -5 4 22 4 28 0
40 -2 28 -4z m1495 0 c-75 -2 -201 -2 -280 0 -79 1 -17 3 137 3 154 0 218 -2
143 -3z m1330 0 c-192 -2 -504 -2 -695 0 -192 1 -35 2 347 2 382 0 539 -1 348
-2z m475 0 c-24 -2 -62 -2 -85 0 -24 2 -5 4 42 4 47 0 66 -2 43 -4z m2114 1
c-3 -3 -12 -4 -19 -1 -8 3 -5 6 6 6 11 1 17 -2 13 -5z m2366 -1 c-73 -2 -193
-2 -265 0 -73 1 -14 3 132 3 146 0 205 -2 133 -3z m164 1 c-3 -3 -12 -4 -19
-1 -8 3 -5 6 6 6 11 1 17 -2 13 -5z m2190 0 c-3 -3 -12 -4 -19 -1 -8 3 -5 6 6
6 11 1 17 -2 13 -5z m50 0 c-3 -3 -12 -4 -19 -1 -8 3 -5 6 6 6 11 1 17 -2 13
-5z m426 -1 c-7 -2 -21 -2 -30 0 -10 3 -4 5 12 5 17 0 24 -2 18 -5z m120 0
c-13 -2 -33 -2 -45 0 -13 2 -3 4 22 4 25 0 35 -2 23 -4z m115 0 c-16 -2 -40
-2 -55 0 -16 2 -3 4 27 4 30 0 43 -2 28 -4z m125 0 c-13 -2 -35 -2 -50 0 -16
2 -5 4 22 4 28 0 40 -2 28 -4z m-38116 -65 c-2 -13 -4 -5 -4 17 -1 22 1 32 4
23 2 -10 2 -28 0 -40z m11257 34 c3 -5 -1 -9 -9 -9 -8 0 -12 4 -9 9 3 4 7 8 9
8 2 0 6 -4 9 -8z m-11257 -104 c-3 -7 -5 -2 -5 12 0 14 2 19 5 13 2 -7 2 -19
0 -25z m0 -40 c-3 -8 -6 -5 -6 6 -1 11 2 17 5 13 3 -3 4 -12 1 -19z m7478 -18
c3 -5 2 -10 -4 -10 -5 0 -13 5 -16 10 -3 6 -2 10 4 10 5 0 13 -4 16 -10z
m-7478 -22 c-3 -8 -6 -5 -6 6 -1 11 2 17 5 13 3 -3 4 -12 1 -19z m11339 -7
c-4 -5 -1 -12 4 -14 6 -3 5 -4 -2 -3 -15 3 -23 26 -8 26 6 0 9 -4 6 -9z
m-3769 -7 c-3 -3 -12 -4 -19 -1 -8 3 -5 6 6 6 11 1 17 -2 13 -5z m3840 -69 c8
-22 -2 -29 -24 -16 -11 6 -13 11 -5 11 7 0 10 5 7 10 -3 6 -1 10 5 10 6 0 13
-7 17 -15z m-3457 -79 c0 -11 -19 -15 -25 -6 -3 5 1 10 9 10 9 0 16 -2 16 -4z
m-7953 -218 c-1 -40 -3 -8 -3 72 0 80 2 112 3 73 2 -40 2 -106 0 -145z m26773
162 c0 -5 -5 -10 -11 -10 -5 0 -7 5 -4 10 3 6 8 10 11 10 2 0 4 -4 4 -10z m40
-31 c0 -6 -4 -7 -10 -4 -5 3 -10 11 -10 16 0 6 5 7 10 4 6 -3 10 -11 10 -16z
m75 -29 c3 -5 1 -10 -4 -10 -6 0 -11 5 -11 10 0 6 2 10 4 10 3 0 8 -4 11 -10z
m8899 -2 c-3 -4 -11 -5 -19 -1 -21 7 -19 12 4 10 11 0 18 -5 15 -9z m-8849
-26 c-3 -3 -11 0 -18 7 -9 10 -8 11 6 5 10 -3 15 -9 12 -12z m8942 -8 c-3 -3
-12 -4 -19 -1 -8 3 -5 6 6 6 11 1 17 -2 13 -5z m-820 -10 c-3 -3 -12 -4 -19
-1 -8 3 -5 6 6 6 11 1 17 -2 13 -5z m-35020 -129 c0 -8 -4 -15 -9 -15 -4 0 -8
7 -8 15 0 8 4 15 8 15 5 0 9 -7 9 -15z m3452 -21 l43 -6 -4 -50 c-5 -52 -27
-89 -72 -122 -21 -16 -42 -21 -94 -21 -79 0 -121 23 -151 84 -21 40 -36 105
-28 118 5 9 234 7 306 -3z m7349 -32 c4 -42 -20 -80 -62 -97 -40 -17 -73 -10
-109 23 -27 26 -51 87 -41 104 3 5 51 7 107 6 l102 -3 3 -33z m16881 29 c21
-1 23 -4 17 -33 -3 -17 -18 -46 -32 -65 -20 -26 -32 -33 -59 -33 -48 0 -84 19
-103 54 -36 69 -17 87 88 81 36 -2 76 -4 89 -4z m2796 -1 c3 -5 1 -10 -4 -10
-6 0 -11 5 -11 10 0 6 2 10 4 10 3 0 8 -4 11 -10z m-18908 -122 c11 -15 36
-138 30 -144 -2 -3 -23 -2 -47 2 -36 6 -44 12 -57 42 -17 41 -5 81 30 99 30
15 33 15 44 1z m-10378 -44 c30 -38 28 -87 -5 -113 -46 -36 -86 -24 -117 35
-15 29 -15 33 3 61 31 51 86 59 119 17z m36008 4 c29 -27 30 -76 3 -111 -27
-34 -25 -38 13 -30 17 3 29 2 25 -2 -4 -4 -33 -9 -66 -11 l-58 -3 -22 45 c-28
57 -28 79 3 109 30 31 71 32 102 3z m-6769 -38 c26 -16 32 -26 32 -55 0 -48
-16 -64 -55 -54 -16 4 -37 8 -45 7 -43 -3 -50 2 -50 36 0 26 7 41 31 60 37 31
45 32 87 6z m-29112 -99 c-3 -4 -34 -19 -68 -31 -35 -13 -67 -27 -72 -32 -6
-4 -14 -8 -19 -8 -4 0 5 12 20 26 15 14 22 23 16 19 -7 -3 -21 -1 -30 5 -14 8
-6 10 37 9 30 -1 69 3 85 9 17 6 31 11 33 11 2 1 1 -3 -2 -8z m596 -22 c11 -6
18 -13 15 -16 -5 -5 -87 34 -87 42 0 5 42 -10 72 -26z m9703 -6 c3 -21 7 -48
9 -59 5 -35 -47 -57 -72 -31 -7 6 -18 12 -25 12 -7 0 -11 8 -11 18 1 9 -2 14
-7 11 -5 -3 -9 0 -9 6 0 7 -12 10 -27 8 -17 -2 -28 2 -30 12 -4 12 -3 12 5 2
7 -11 10 -9 15 7 5 19 0 20 -57 21 -124 1 -186 5 -186 11 0 4 82 7 182 8 100
1 184 4 187 6 12 13 21 2 26 -32z m18970 13 c-27 -13 -61 -26 -75 -30 l-25 -7
24 14 c18 11 21 16 10 21 -8 3 -4 4 9 2 13 -3 38 2 55 9 54 24 55 15 2 -9z
m-30628 -23 c-3 -10 -5 -4 -5 12 0 17 2 24 5 18 2 -7 2 -21 0 -30z m68 27 c3
-5 -1 -10 -9 -10 -9 0 -19 0 -23 -1 -4 0 -9 4 -11 10 -5 14 35 14 43 1z m118
3 c-7 -2 -19 -2 -25 0 -7 3 -2 5 12 5 14 0 19 -2 13 -5z m1897 -3 c0 -13 -70
-13 -90 0 -11 7 0 10 38 10 28 0 52 -4 52 -10z m907 4 c-3 -3 -12 -4 -19 -1
-8 3 -5 6 6 6 11 1 17 -2 13 -5z m1046 -1 c-7 -2 -19 -2 -25 0 -7 3 -2 5 12 5
14 0 19 -2 13 -5z m120 0 c-13 -2 -35 -2 -50 0 -16 2 -5 4 22 4 28 0 40 -2 28
-4z m728 -18 c-75 -29 -77 -30 -85 -10 -4 12 0 14 18 9 12 -3 38 1 57 10 19 8
43 15 54 15 11 0 -9 -11 -44 -24z m4632 9 c15 -3 27 -12 27 -20 0 -19 -7 -18
-76 11 -56 24 -57 25 -19 19 22 -3 52 -8 68 -10z m185 2 c3 -4 -4 -6 -14 -6
-11 0 -26 -6 -33 -12 -11 -11 -12 -10 -6 0 5 11 -2 13 -35 10 -29 -2 -44 1
-47 10 -4 10 10 12 62 8 37 -3 70 -7 73 -10z m1455 7 c-57 -2 -149 -2 -205 0
-57 1 -11 3 102 3 113 0 159 -2 103 -3z m16982 -3 c-11 -5 -29 -8 -40 -8 -16
0 -15 2 5 8 34 11 60 11 35 0z m3524 -6 c10 -9 -56 -3 -69 7 -11 7 -4 8 25 3
22 -4 42 -8 44 -10z m201 0 c0 -2 -19 -4 -42 -4 -26 0 -38 4 -30 8 12 8 72 4
72 -4z m1547 10 c-3 -3 -12 -4 -19 -1 -8 3 -5 6 6 6 11 1 17 -2 13 -5z m180 0
c-3 -3 -12 -4 -19 -1 -8 3 -5 6 6 6 11 1 17 -2 13 -5z m653 2 c0 -3 -4 -8 -10
-11 -5 -3 -10 -1 -10 4 0 6 5 11 10 11 6 0 10 -2 10 -4z m3080 0 c0 -3 -4 -8
-10 -11 -5 -3 -10 -1 -10 4 0 6 5 11 10 11 6 0 10 -2 10 -4z m-9303 -26 c14
-11 21 -20 15 -20 -6 0 -14 5 -17 11 -4 6 -17 14 -29 19 -11 5 -15 9 -8 9 8 1
25 -8 39 -19z m2523 16 c0 -2 -9 -6 -20 -9 -11 -3 -20 -1 -20 4 0 5 9 9 20 9
11 0 20 -2 20 -4z m1163 -3 c-7 -2 -19 -2 -25 0 -7 3 -2 5 12 5 14 0 19 -2 13
-5z m5369 -7 c-3 -5 4 -7 15 -4 12 3 20 0 20 -8 0 -18 -4 -17 -47 5 -33 18
-34 19 -8 18 14 -1 24 -6 20 -11z m-2863 0 c-2 -2 -20 -11 -39 -20 l-35 -17
25 20 c14 11 31 21 39 21 8 0 12 -2 10 -4z m-22824 -24 c-3 -3 -11 0 -18 7 -9
10 -8 11 6 5 10 -3 15 -9 12 -12z m81 -5 c2 -2 -12 -4 -31 -5 -20 -1 -33 2
-31 7 5 8 53 7 62 -2z m20279 3 c3 -6 -1 -7 -9 -4 -18 7 -21 14 -7 14 6 0 13
-4 16 -10z m-29685 -20 c0 -5 -5 -10 -11 -10 -5 0 -7 5 -4 10 3 6 8 10 11 10
2 0 4 -4 4 -10z m28440 6 c0 -2 -13 -9 -30 -15 -35 -12 -41 -5 -7 9 25 10 37
12 37 6z m-25750 -10 c0 -2 -7 -6 -15 -10 -8 -3 -15 -1 -15 4 0 6 7 10 15 10
8 0 15 -2 15 -4z m-2635 -36 c3 -5 1 -10 -4 -10 -6 0 -11 5 -11 10 0 6 2 10 4
10 3 0 8 -4 11 -10z m1001 -18 c-4 -3 -14 2 -24 12 -16 18 -16 18 6 6 13 -6
21 -14 18 -18z m34189 18 c3 -5 -1 -10 -10 -10 -9 0 -13 5 -10 10 3 6 8 10 10
10 2 0 7 -4 10 -10z m-34500 -10 c-3 -5 -13 -10 -21 -10 -8 0 -12 5 -9 10 3 6
13 10 21 10 8 0 12 -4 9 -10z m1801 -15 c-33 -14 -67 -25 -75 -24 -9 0 -5 4 9
9 14 4 39 15 55 24 17 9 39 16 50 16 11 -1 -7 -12 -39 -25z m5114 15 c0 -5 -7
-7 -15 -4 -8 4 -15 8 -15 10 0 2 7 4 15 4 8 0 15 -4 15 -10z m1857 -16 c5 -14
-61 -36 -81 -28 -20 8 -15 31 5 25 30 -8 53 -11 42 -5 -7 3 -13 12 -13 20 0
10 6 11 22 5 12 -4 23 -12 25 -17z m16623 16 c0 -5 -2 -10 -4 -10 -3 0 -8 5
-11 10 -3 6 -1 10 4 10 6 0 11 -4 11 -10z m5840 0 c-8 -5 -19 -10 -25 -10 -5
0 -3 5 5 10 8 5 20 10 25 10 6 0 3 -5 -5 -10z m-31840 -46 c0 -2 -13 2 -30 11
-16 9 -30 18 -30 21 0 2 14 -2 30 -11 17 -9 30 -18 30 -21z m31790 21 c-7 -8
-20 -15 -29 -15 -11 1 -8 5 9 15 32 18 35 18 20 0z m-5700 -10 c0 -9 -6 -12
-16 -8 -13 5 -13 7 -2 14 17 11 18 11 18 -6z m-27283 -1 c-3 -3 -12 -4 -19 -1
-8 3 -5 6 6 6 11 1 17 -2 13 -5z m2203 -4 c0 -5 -7 -7 -15 -4 -8 4 -15 8 -15
10 0 2 7 4 15 4 8 0 15 -4 15 -10z m6610 0 c0 -13 -11 -13 -30 0 -12 8 -11 10
8 10 12 0 22 -4 22 -10z m1635 -9 c3 -6 -5 -15 -17 -22 -20 -11 -21 -10 -11 3
7 8 10 18 6 21 -3 4 -1 7 5 7 6 0 13 -4 17 -9z m-9204 -21 l24 -21 -32 16
c-32 15 -42 25 -24 25 5 0 19 -9 32 -20z m2239 16 c0 -2 -7 -7 -16 -10 -8 -3
-12 -2 -9 4 6 10 25 14 25 6z m5377 -2 c-3 -3 -12 -4 -19 -1 -8 3 -5 6 6 6 11
1 17 -2 13 -5z m24058 -4 c-3 -5 -16 -15 -28 -21 -19 -9 -19 -8 3 10 28 23 34
26 25 11z m-31340 -10 c-11 -5 -27 -9 -35 -9 -9 0 -8 4 5 9 11 5 27 9 35 9 9
0 8 -4 -5 -9z m-1675 -4 c0 -11 -19 -15 -25 -6 -3 5 1 10 9 10 9 0 16 -2 16
-4z m3537 -2 c-3 -3 -12 -4 -19 -1 -8 3 -5 6 6 6 11 1 17 -2 13 -5z m5466 -1
c-7 -2 -19 -2 -25 0 -7 3 -2 5 12 5 14 0 19 -2 13 -5z m22344 1 c-3 -3 -12 -4
-19 -1 -8 3 -5 6 6 6 11 1 17 -2 13 -5z m-31411 -29 c-11 -8 -27 -15 -35 -15
-11 0 -10 4 5 15 10 8 26 14 34 14 11 0 10 -3 -4 -14z m1639 5 c-3 -5 -14 -10
-23 -10 -15 0 -15 2 -2 10 20 13 33 13 25 0z m1890 -5 c-16 -8 -39 -14 -50
-14 -13 0 -8 5 15 14 46 18 74 17 35 0z m6995 5 c0 -5 -5 -10 -11 -10 -5 0 -7
5 -4 10 3 6 8 10 11 10 2 0 4 -4 4 -10z m22475 -10 c-3 -5 -11 -10 -16 -10 -6
0 -7 5 -4 10 3 6 11 10 16 10 6 0 7 -4 4 -10z m-22528 -6 c-3 -3 -12 -4 -19
-1 -8 3 -5 6 6 6 11 1 17 -2 13 -5z m-10567 -29 c-7 -8 -22 -14 -34 -14 -20 1
-20 2 -1 6 11 3 24 9 30 14 15 14 19 10 5 -6z m33040 11 c0 -2 -12 -11 -27
-20 l-28 -17 24 20 c23 21 31 25 31 17z m-29535 -16 c-3 -5 -14 -10 -23 -10
-15 0 -15 2 -2 10 20 13 33 13 25 0z m-85 -35 c-14 -8 -29 -14 -35 -14 -5 0 1
6 15 14 14 8 30 14 35 14 6 0 -1 -6 -15 -14z m-3515 -5 c-3 -5 -14 -10 -23 -9
-14 0 -13 2 3 9 27 11 27 11 20 0z m-658 -1432 c-3 -8 -6 -5 -6 6 -1 11 2 17
5 13 3 -3 4 -12 1 -19z m2110 -194 c-3 -3 -12 -4 -19 -1 -8 3 -5 6 6 6 11 1
17 -2 13 -5z m-27 -28 c0 -2 -7 -7 -16 -10 -8 -3 -12 -2 -9 4 6 10 25 14 25 6z
m-40 -50 c0 -1 -49 -51 -110 -111 -60 -60 -110 -107 -110 -103 0 3 29 34 65
69 36 34 63 65 60 68 -3 2 -30 -20 -60 -49 -30 -30 -55 -52 -55 -49 0 2 39 43
87 89 48 47 74 70 58 53 -16 -18 -25 -33 -20 -33 13 0 55 42 55 55 0 6 7 12
15 12 8 0 15 -1 15 -1z"/>
<path d="M2370 19049 c0 -5 5 -7 10 -4 6 3 10 8 10 11 0 2 -4 4 -10 4 -5 0
-10 -5 -10 -11z"/>
<path d="M25816 11967 c3 -10 9 -15 12 -12 3 3 0 11 -7 18 -10 9 -11 8 -5 -6z"/>
<path d="M12395 11890 c3 -5 8 -10 11 -10 2 0 4 5 4 10 0 6 -5 10 -11 10 -5 0
-7 -4 -4 -10z"/>
<path d="M20591 11862 c-1 -7 -5 -11 -10 -7 -5 3 -12 1 -15 -3 -3 -5 7 -8 21
-7 15 0 28 7 31 15 3 12 2 13 -6 1 -8 -11 -10 -11 -15 0 -4 11 -6 11 -6 1z"/>
<path d="M20861 11854 c0 -11 3 -14 6 -6 3 7 2 16 -1 19 -3 4 -6 -2 -5 -13z"/>
<path d="M25221 11844 c0 -11 3 -14 6 -6 3 7 2 16 -1 19 -3 4 -6 -2 -5 -13z"/>
<path d="M12428 11843 c6 -2 18 -2 25 0 6 3 1 5 -13 5 -14 0 -19 -2 -12 -5z"/>
<path d="M12751 11824 c0 -11 3 -14 6 -6 3 7 2 16 -1 19 -3 4 -6 -2 -5 -13z"/>
<path d="M15617 11828 c-3 -10 3 -14 23 -14 16 0 27 3 24 8 -3 5 -10 5 -16 2
-6 -4 -14 -1 -18 6 -5 9 -9 8 -13 -2z"/>
<path d="M17975 11829 c-11 -16 -1 -19 13 -3 7 8 8 14 3 14 -5 0 -13 -5 -16
-11z"/>
<path d="M20897 11821 c-9 -12 -9 -13 1 -7 11 6 16 -4 13 -26 -1 -8 26 -4 36
6 4 4 2 6 -6 4 -7 -1 -16 3 -19 11 -2 8 0 11 5 8 5 -3 10 0 10 7 0 17 -25 16
-40 -3z"/>
<path d="M21046 11828 c3 -5 10 -6 15 -3 13 9 11 12 -6 12 -8 0 -12 -4 -9 -9z"/>
<path d="M12906 11821 c-3 -4 6 -7 19 -7 14 0 22 2 19 5 -8 8 -34 10 -38 2z"/>
<path d="M14300 11820 c0 -5 5 -10 11 -10 5 0 7 5 4 10 -3 6 -8 10 -11 10 -2
0 -4 -4 -4 -10z"/>
<path d="M21075 11819 c-4 -6 -5 -12 -2 -15 2 -3 7 2 10 11 7 17 1 20 -8 4z"/>
<path d="M21870 11820 l-55 -7 55 -1 c30 -1 62 3 70 8 17 11 21 11 -70 0z"/>
<path d="M13448 11813 c7 -3 16 -2 19 1 4 3 -2 6 -13 5 -11 0 -14 -3 -6 -6z"/>
<path d="M16578 11813 c12 -2 30 -2 40 0 9 3 -1 5 -23 4 -22 0 -30 -2 -17 -4z"/>
<path d="M16658 11813 c12 -2 32 -2 45 0 12 2 2 4 -23 4 -25 0 -35 -2 -22 -4z"/>
<path d="M17238 11813 c12 -2 30 -2 40 0 9 3 -1 5 -23 4 -22 0 -30 -2 -17 -4z"/>
<path d="M18018 11813 c7 -3 16 -2 19 1 4 3 -2 6 -13 5 -11 0 -14 -3 -6 -6z"/>
<path d="M20778 11813 c7 -3 16 -2 19 1 4 3 -2 6 -13 5 -11 0 -14 -3 -6 -6z"/>
<path d="M21178 11813 c7 -3 16 -2 19 1 4 3 -2 6 -13 5 -11 0 -14 -3 -6 -6z"/>
<path d="M23458 11813 c12 -2 32 -2 45 0 12 2 2 4 -23 4 -25 0 -35 -2 -22 -4z"/>
<path d="M23681 11815 c7 -7 310 -8 316 -1 4 3 -67 6 -157 6 -90 0 -161 -2
-159 -5z"/>
<path d="M24053 11813 c26 -2 68 -2 95 0 26 2 4 3 -48 3 -52 0 -74 -1 -47 -3z"/>
<path d="M24208 11813 c6 -2 18 -2 25 0 6 3 1 5 -13 5 -14 0 -19 -2 -12 -5z"/>
<path d="M25886 11795 c-3 -8 -1 -15 4 -15 6 0 10 7 10 15 0 8 -2 15 -4 15 -2
0 -6 -7 -10 -15z"/>
<path d="M12350 11770 c6 -11 13 -20 16 -20 2 0 0 9 -6 20 -6 11 -13 20 -16
20 -2 0 0 -9 6 -20z"/>
<path d="M12915 11779 c-4 -6 -4 -13 -1 -16 3 -4 6 -1 6 6 0 7 5 9 12 5 7 -4
8 -3 4 4 -9 15 -13 15 -21 1z"/>
<path d="M17801 11774 c0 -11 3 -14 6 -6 3 7 2 16 -1 19 -3 4 -6 -2 -5 -13z"/>
<path d="M17932 11760 c0 -19 2 -27 5 -17 2 9 2 25 0 35 -3 9 -5 1 -5 -18z"/>
<path d="M14237 11773 c-4 -3 -7 -16 -8 -27 0 -21 0 -21 -8 -1 -8 18 -16 20
-90 17 -60 -3 -81 -7 -81 -17 0 -8 -5 -17 -12 -21 -8 -5 -9 0 -6 14 4 15 2 22
-8 22 -7 0 -11 -6 -8 -14 3 -7 -2 -16 -11 -20 -9 -3 -14 -2 -11 3 3 4 -97 8
-222 8 -125 -1 -195 -3 -157 -6 l70 -5 -80 -6 c-78 -6 -78 -6 38 -8 78 -1 124
2 137 10 15 10 22 10 32 0 6 -6 21 -12 32 -12 18 0 19 -2 6 -11 -12 -9 -12
-10 3 -5 10 3 50 9 88 12 52 5 69 4 69 -6 0 -9 4 -9 13 -2 6 5 38 10 70 11 33
0 63 3 68 7 5 3 9 0 9 -6 0 -7 7 -9 17 -6 9 4 64 8 122 8 58 1 85 4 59 6 -41
3 -49 7 -54 28 -4 17 -11 23 -21 20 -8 -3 -17 -6 -19 -6 -2 0 -4 -7 -4 -15 0
-8 -7 -15 -15 -15 -8 0 -15 5 -15 11 0 5 5 7 10 4 6 -3 10 -1 10 4 0 6 -5 11
-11 11 -5 0 -7 5 -4 10 7 11 2 13 -8 3z m-48 -40 c0 -10 -3 -13 -6 -5 -6 15
-103 17 -103 2 0 -5 -4 -10 -10 -10 -5 0 -10 6 -10 13 0 10 18 14 65 16 57 2
65 0 64 -16z"/>
<path d="M15603 11766 c0 -15 22 -15 34 0 4 5 4 6 -1 2 -5 -4 -14 -3 -21 2 -8
7 -12 5 -12 -4z"/>
<path d="M17633 11773 c-29 -2 -53 -8 -53 -13 0 -8 49 -4 125 10 44 9 23 9
-72 3z"/>
<path d="M17860 11776 c0 -2 8 -10 17 -17 9 -8 14 -9 10 -2 -4 7 0 13 10 16
11 3 8 5 -9 6 -16 0 -28 -1 -28 -3z"/>
<path d="M17960 11769 c0 -5 9 -9 20 -9 11 0 20 2 20 4 0 2 -9 6 -20 9 -11 3
-20 1 -20 -4z"/>
<path d="M18710 11765 c-6 -8 -10 -20 -8 -27 2 -12 7 -12 28 0 23 13 23 13 3
9 -25 -6 -29 3 -11 21 7 7 9 12 6 12 -3 0 -11 -7 -18 -15z"/>
<path d="M13038 11739 c3 -19 10 -29 19 -27 8 2 13 8 11 13 -2 6 -6 9 -10 8
-5 -2 -8 3 -8 11 0 8 -4 17 -8 20 -5 3 -6 -9 -4 -25z"/>
<path d="M13873 11762 c-18 -2 -33 -8 -33 -14 0 -5 7 -7 16 -4 9 3 45 6 81 6
37 0 64 2 62 5 -7 6 -88 11 -126 7z"/>
<path d="M15844 11758 c-5 -8 3 -9 29 -5 21 3 37 2 37 -4 0 -5 -69 -9 -166 -9
-154 0 -164 -1 -149 -17 13 -13 19 -13 25 -3 5 9 9 9 11 1 3 -8 47 -12 144
-11 77 0 184 1 238 1 57 0 95 4 92 10 -4 5 -1 9 4 9 6 0 11 -4 11 -10 0 -5 9
-10 20 -10 11 0 20 4 20 9 0 6 15 12 33 14 17 2 -1 5 -40 5 -43 1 -73 -2 -73
-8 0 -16 -70 -12 -87 6 -10 10 -26 13 -47 10 -22 -4 -25 -4 -11 3 11 4 51 6
89 3 50 -4 67 -2 62 7 -10 15 -232 15 -242 -1z m-57 -34 c-3 -3 -12 -4 -19 -1
-8 3 -5 6 6 6 11 1 17 -2 13 -5z m196 -1 c-7 -2 -21 -2 -30 0 -10 3 -4 5 12 5
17 0 24 -2 18 -5z"/>
<path d="M16520 11759 c-38 -6 -35 -6 22 -5 37 0 65 3 62 5 -7 7 -34 7 -84 0z"/>
<path d="M16644 11761 c7 -10 61 -9 72 2 4 4 -12 7 -35 7 -23 0 -40 -4 -37 -9z"/>
<path d="M16880 11761 c0 -4 33 -6 73 -4 102 6 106 11 10 12 -46 1 -83 -3 -83
-8z"/>
<path d="M17286 11761 c-3 -4 60 -7 140 -8 79 0 144 3 144 8 0 11 -278 11
-284 0z"/>
<path d="M18135 11759 c-25 -7 -23 -7 13 -3 24 2 66 2 93 -2 42 -6 49 -9 44
-25 -4 -12 1 -22 15 -29 17 -9 20 -8 20 9 0 18 8 20 87 23 53 2 96 -2 109 -9
18 -9 22 -8 18 2 -8 20 -66 38 -75 24 -5 -8 -8 -7 -12 2 -5 12 -6 12 -6 0 -1
-11 -4 -11 -17 0 -13 10 -17 10 -24 0 -6 -11 -9 -11 -13 0 -4 12 -7 11 -16 -1
-10 -13 -12 -13 -22 0 -8 12 -12 12 -16 2 -3 -9 -9 -10 -18 -2 -17 14 -142 20
-180 9z"/>
<path d="M18627 11755 c-16 -15 -72 -22 -63 -7 3 5 -1 9 -9 9 -8 0 -15 -6 -15
-14 0 -9 14 -13 43 -14 23 -1 34 -3 25 -6 -28 -7 -21 -21 7 -15 14 2 22 8 20
12 -3 5 -1 11 5 15 6 4 8 11 5 16 -4 5 -2 9 4 9 5 0 12 -7 14 -15 4 -12 5 -11
3 1 -2 24 -21 28 -39 9z"/>
<path d="M18970 11760 c0 -5 5 -10 11 -10 5 0 7 5 4 10 -3 6 -8 10 -11 10 -2
0 -4 -4 -4 -10z"/>
<path d="M19116 11761 c-3 -4 6 -6 19 -3 14 2 25 6 25 8 0 8 -39 4 -44 -5z"/>
<path d="M20324 11759 c-2 -4 27 -7 66 -7 38 0 70 3 70 7 0 9 -130 9 -136 0z"/>
<path d="M21373 11763 c9 -2 23 -2 30 0 6 3 -1 5 -18 5 -16 0 -22 -2 -12 -5z"/>
<path d="M21613 11763 c9 -2 25 -2 35 0 9 3 1 5 -18 5 -19 0 -27 -2 -17 -5z"/>
<path d="M22528 11763 c6 -2 18 -2 25 0 6 3 1 5 -13 5 -14 0 -19 -2 -12 -5z"/>
<path d="M22578 11763 c7 -3 16 -2 19 1 4 3 -2 6 -13 5 -11 0 -14 -3 -6 -6z"/>
<path d="M23773 11756 c9 -7 17 -18 17 -23 0 -10 460 -27 469 -17 3 3 -1 9 -9
14 -12 8 -11 10 5 10 11 0 27 5 35 11 11 8 8 9 -15 4 -46 -11 -60 -11 -58 0 1
7 -42 11 -118 12 -65 1 -119 -3 -119 -7 0 -5 19 -11 43 -13 33 -3 29 -4 -18
-4 -33 -1 -54 1 -47 4 6 2 12 9 12 14 0 10 -28 7 -48 -5 -22 -14 -91 -15 -86
-1 4 9 -8 13 -38 13 -37 1 -41 -1 -25 -12z m159 -18 c-7 -7 -12 -8 -12 -2 0
14 12 26 19 19 2 -3 -1 -11 -7 -17z m-112 2 c0 -5 -4 -10 -10 -10 -5 0 -10 5
-10 10 0 6 5 10 10 10 6 0 10 -4 10 -10z m330 0 c0 -5 -7 -10 -15 -10 -8 0
-15 5 -15 10 0 6 7 10 15 10 8 0 15 -4 15 -10z m40 0 c-19 -13 -30 -13 -30 0
0 6 10 10 23 10 18 0 19 -2 7 -10z"/>
<path d="M14358 11753 c23 -2 42 -8 42 -14 0 -5 8 -9 18 -9 14 0 15 2 2 10
-12 8 -10 10 8 10 13 0 20 -4 17 -10 -3 -5 -1 -10 4 -10 6 0 11 7 11 15 0 12
-14 15 -72 13 -48 -1 -59 -3 -30 -5z"/>
<path d="M14495 11750 c17 -4 24 -8 17 -9 -10 -1 -10 -4 0 -15 7 -8 15 -11 18
-7 6 9 38 23 64 28 44 8 25 13 -50 12 -58 -1 -71 -3 -49 -9z m62 -6 c-3 -3
-12 -4 -19 -1 -8 3 -5 6 6 6 11 1 17 -2 13 -5z"/>
<path d="M18681 11744 c0 -11 3 -14 6 -6 3 7 2 16 -1 19 -3 4 -6 -2 -5 -13z"/>
<path d="M20001 11744 c0 -11 3 -14 6 -6 3 7 2 16 -1 19 -3 4 -6 -2 -5 -13z"/>
<path d="M20020 11751 c0 -5 3 -17 6 -26 5 -12 9 -13 14 -5 4 7 19 13 33 13
20 0 23 2 14 12 -7 7 -14 10 -17 6 -6 -9 -22 -8 -37 2 -7 5 -13 4 -13 -2z"/>
<path d="M25911 11744 c0 -11 3 -14 6 -6 3 7 2 16 -1 19 -3 4 -6 -2 -5 -13z"/>
<path d="M12985 11740 c4 -6 10 -8 15 -5 5 3 13 -3 19 -12 9 -16 10 -16 11 5
0 17 -6 22 -26 22 -14 0 -23 -4 -19 -10z"/>
<path d="M20127 11742 c-9 -2 -15 -8 -12 -13 4 -5 -3 -9 -14 -9 -12 0 -21 -4
-21 -9 0 -12 52 -5 60 9 5 8 9 6 14 -5 5 -14 9 -15 20 -6 10 8 16 9 21 1 3 -6
11 -7 17 -3 7 3 37 5 68 4 46 -2 57 1 57 14 0 9 -6 14 -14 11 -7 -3 -13 -1
-13 4 0 15 -37 12 -43 -2 -4 -10 -6 -10 -6 0 -1 6 -6 12 -12 12 -5 0 -8 -4 -4
-9 3 -5 1 -12 -5 -16 -5 -3 -10 0 -10 7 0 13 -58 19 -103 10z m91 -11 c2 -1 0
-6 -3 -11 -5 -8 -11 -8 -19 -1 -7 6 -15 8 -18 5 -3 -3 -9 -1 -12 4 -4 7 33 9
52 3z"/>
<path d="M21963 11744 c-17 -8 -4 -34 17 -34 15 0 30 18 30 36 0 5 -32 4 -47
-2z m27 -14 c0 -5 -4 -10 -10 -10 -5 0 -10 5 -10 10 0 6 5 10 10 10 6 0 10 -4
10 -10z"/>
<path d="M22020 11738 c0 -5 12 -9 28 -8 73 5 196 -2 177 -10 -15 -6 -4 -9 40
-11 105 -4 447 1 456 7 5 3 13 3 17 0 4 -2 8 4 8 15 0 23 -1 23 -21 3 -10 -11
-19 -13 -28 -6 -12 10 -214 8 -224 -2 -4 -3 -12 -1 -19 5 -20 16 -134 22 -134
6 0 -8 -3 -8 -8 -2 -9 13 -52 17 -52 5 0 -5 8 -11 18 -13 13 -4 12 -5 -5 -6
-12 0 -23 4 -25 10 -5 15 -228 21 -228 7z"/>
<path d="M13358 11729 c-10 -6 -9 -9 2 -13 27 -9 131 -12 136 -4 3 5 10 6 15
3 5 -4 9 0 9 7 0 10 -19 14 -75 14 -41 0 -80 -3 -87 -7z"/>
<path d="M14473 11725 c0 -8 4 -15 9 -15 4 0 8 7 8 15 0 8 -4 15 -8 15 -5 0
-9 -7 -9 -15z"/>
<path d="M14765 11730 c-3 -5 -1 -10 4 -10 6 0 11 5 11 10 0 6 -2 10 -4 10 -3
0 -8 -4 -11 -10z"/>
<path d="M14809 11729 c-12 -7 -12 -9 1 -9 13 0 13 -1 0 -10 -13 -9 -13 -10 0
-9 8 0 23 4 32 7 17 7 17 8 0 19 -12 7 -24 8 -33 2z"/>
<path d="M15381 11724 c-12 -14 -12 -17 0 -25 19 -12 25 -11 43 7 13 13 16 13
16 1 0 -10 8 -13 28 -10 15 2 32 5 39 5 14 2 25 38 12 38 -5 0 -9 -5 -9 -11 0
-8 -4 -9 -13 0 -8 6 -16 8 -19 5 -11 -10 -68 -13 -68 -4 0 15 -13 11 -29 -6z"/>
<path d="M16268 11733 c6 -2 18 -2 25 0 6 3 1 5 -13 5 -14 0 -19 -2 -12 -5z"/>
<path d="M17870 11730 c0 -5 5 -10 10 -10 6 0 10 5 10 10 0 6 -4 10 -10 10 -5
0 -10 -4 -10 -10z"/>
<path d="M17901 11718 c-1 -16 4 -28 9 -28 12 0 12 8 0 35 -8 18 -9 17 -9 -7z"/>
<path d="M18800 11729 c0 -8 150 -22 190 -19 14 1 39 1 55 0 26 -1 27 -3 10
-10 -19 -8 -19 -9 3 -9 12 -1 22 3 22 7 0 13 113 7 118 -6 2 -7 13 -12 25 -11
12 0 16 3 10 6 -7 2 -13 12 -13 21 1 14 5 12 21 -7 11 -13 21 -22 23 -20 2 2
8 13 15 24 12 19 12 19 6 -2 -4 -14 -2 -21 7 -19 20 2 20 19 1 41 -17 19 -18
19 -21 1 -3 -12 -7 -15 -11 -7 -7 11 -127 22 -137 12 -10 -10 -56 -12 -50 -2
4 6 -45 9 -134 8 -77 -1 -140 -5 -140 -8z"/>
<path d="M19310 11726 c0 -9 5 -16 10 -16 6 0 20 -10 32 -22 15 -15 20 -17 15
-5 -4 9 -10 25 -13 35 -5 16 -5 16 6 0 13 -21 30 -23 30 -4 0 16 -37 28 -46
15 -3 -6 -11 -5 -20 2 -11 9 -14 8 -14 -5z"/>
<path d="M19630 11730 c0 -5 5 -10 10 -10 6 0 10 5 10 10 0 6 -4 10 -10 10 -5
0 -10 -4 -10 -10z"/>
<path d="M19958 11733 c7 -3 16 -2 19 1 4 3 -2 6 -13 5 -11 0 -14 -3 -6 -6z"/>
<path d="M21165 11730 c28 -12 45 -12 45 0 0 6 -15 10 -32 9 -28 0 -30 -2 -13
-9z"/>
<path d="M21358 11734 c-11 -16 16 -41 50 -46 26 -4 35 0 43 15 8 14 7 22 -1
31 -9 8 -14 8 -17 -1 -6 -16 -60 -17 -65 -1 -3 7 -7 8 -10 2z m75 -31 c-7 -2
-21 -2 -30 0 -10 3 -4 5 12 5 17 0 24 -2 18 -5z"/>
<path d="M22765 11731 c-2 -5 23 -9 56 -10 34 -1 58 3 55 8 -7 11 -104 13
-111 2z"/>
<path d="M25626 11725 c-3 -8 -1 -15 4 -15 6 0 10 7 10 15 0 8 -2 15 -4 15 -2
0 -6 -7 -10 -15z"/>
<path d="M17230 11720 c0 -5 5 -10 10 -10 6 0 10 5 10 10 0 6 -4 10 -10 10 -5
0 -10 -4 -10 -10z"/>
<path d="M17812 11710 c0 -14 2 -19 5 -12 2 6 2 18 0 25 -3 6 -5 1 -5 -13z"/>
<path d="M18240 11720 c0 -5 7 -10 15 -10 8 0 15 5 15 10 0 6 -7 10 -15 10 -8
0 -15 -4 -15 -10z"/>
<path d="M14428 11713 c6 -2 18 -2 25 0 6 3 1 5 -13 5 -14 0 -19 -2 -12 -5z"/>
<path d="M14658 11713 c12 -2 32 -2 45 0 12 2 2 4 -23 4 -25 0 -35 -2 -22 -4z"/>
<path d="M22018 11713 c7 -3 16 -2 19 1 4 3 -2 6 -13 5 -11 0 -14 -3 -6 -6z"/>
<path d="M22103 11713 c9 -2 23 -2 30 0 6 3 -1 5 -18 5 -16 0 -22 -2 -12 -5z"/>
<path d="M22158 11713 c6 -2 18 -2 25 0 6 3 1 5 -13 5 -14 0 -19 -2 -12 -5z"/>
<path d="M12110 11706 c0 -2 7 -7 16 -10 8 -3 12 -2 9 4 -6 10 -25 14 -25 6z"/>
<path d="M21310 11699 c0 -5 11 -9 25 -9 14 0 25 2 25 4 0 2 -11 6 -25 8 -14
3 -25 1 -25 -3z"/>
<path d="M14488 11693 c7 -3 16 -2 19 1 4 3 -2 6 -13 5 -11 0 -14 -3 -6 -6z"/>
<path d="M25603 11693 c9 -2 23 -2 30 0 6 3 -1 5 -18 5 -16 0 -22 -2 -12 -5z"/>
<path d="M12076 11613 c-6 -14 -5 -15 5 -6 7 7 10 15 7 18 -3 3 -9 -2 -12 -12z"/>
<path d="M25957 11616 c-3 -8 -2 -18 4 -22 16 -9 22 2 11 21 -8 15 -10 16 -15
1z"/>
<path d="M12170 11583 c-18 -18 -36 -33 -40 -33 -5 0 -6 -9 -3 -20 5 -21 27
-27 37 -11 4 5 25 13 49 17 41 8 41 8 12 14 -16 4 -36 2 -42 -3 -9 -6 -13 -6
-13 2 0 6 5 11 10 11 6 0 10 9 10 19 0 27 15 34 34 15 9 -8 16 -11 16 -5 0 37
-31 35 -70 -6z"/>
<path d="M12120 11606 c0 -2 8 -10 18 -17 15 -13 16 -12 3 4 -13 16 -21 21
-21 13z"/>
<path d="M12085 11580 c-4 -6 -11 -8 -16 -5 -5 4 -9 2 -9 -4 0 -19 16 -19 28
0 7 10 10 19 8 19 -3 0 -8 -5 -11 -10z"/>
<path d="M12205 11570 c3 -5 14 -10 23 -10 15 0 15 2 2 10 -20 13 -33 13 -25
0z"/>
<path d="M25846 11565 c4 -8 8 -15 10 -15 2 0 4 7 4 15 0 8 -4 15 -10 15 -5 0
-7 -7 -4 -15z"/>
<path d="M25965 11570 c-3 -5 1 -10 10 -10 11 0 15 -5 11 -16 -3 -8 -2 -12 4
-9 13 8 13 -7 0 -39 -11 -29 1 -34 20 -11 10 13 10 23 -5 55 -18 40 -29 48
-40 30z"/>
<path d="M12046 11494 c-5 -13 -4 -14 7 -6 8 7 18 8 22 4 5 -4 5 -1 1 6 -10
17 -23 15 -30 -4z"/>
<path d="M25890 11507 c0 -2 6 -10 14 -16 11 -9 16 -9 22 1 4 7 4 10 -1 6 -4
-4 -14 -3 -22 3 -7 6 -13 9 -13 6z"/>
<path d="M26025 11461 c5 -16 4 -21 -4 -17 -6 4 -11 3 -11 -3 0 -5 9 -9 19 -8
16 1 18 5 9 22 -16 30 -21 33 -13 6z"/>
<path d="M12098 11453 c7 -3 16 -2 19 1 4 3 -2 6 -13 5 -11 0 -14 -3 -6 -6z"/>
<path d="M25954 11408 c1 -34 2 -34 17 -7 6 13 7 19 1 15 -6 -3 -12 0 -15 6
-2 7 -4 1 -3 -14z"/>
<path d="M26036 11405 c-3 -8 -1 -15 4 -15 13 0 22 18 11 24 -5 3 -11 -1 -15
-9z"/>
<path d="M26057 11336 c-4 -10 -5 -21 -2 -24 9 -9 17 6 13 25 -3 17 -4 17 -11
-1z"/>
<path d="M26075 11300 c-3 -5 -1 -10 4 -10 6 0 11 5 11 10 0 6 -2 10 -4 10 -3
0 -8 -4 -11 -10z"/>
<path d="M26050 11230 c0 -5 5 -10 10 -10 6 0 10 5 10 10 0 6 -4 10 -10 10 -5
0 -10 -4 -10 -10z"/>
<path d="M26083 11197 c0 -8 6 -14 14 -14 9 0 10 4 2 14 -6 7 -12 13 -14 13
-1 0 -2 -6 -2 -13z"/>
<path d="M26120 11190 c0 -8 -10 -20 -22 -25 -12 -6 -23 -17 -25 -25 -3 -11 0
-10 10 3 8 10 17 14 18 9 2 -5 12 -2 21 7 12 12 14 21 8 31 -9 13 -10 13 -10
0z"/>
<path d="M7957 15113 c-9 -2 -15 -9 -12 -14 4 -5 -8 -9 -26 -9 -27 0 -30 -2
-19 -15 11 -14 9 -14 -16 0 -33 17 -64 20 -64 5 0 -5 -6 -10 -13 -10 -24 0
-47 -35 -47 -72 0 -46 32 -86 74 -94 42 -7 60 2 130 69 46 43 56 59 56 86 0
19 -4 30 -10 26 -12 -7 -42 20 -33 29 4 3 4 5 2 5 -2 -1 -12 -3 -22 -6z"/>
<path d="M3323 15020 c-70 -31 -114 -130 -76 -173 10 -11 12 -17 6 -13 -15 8
-16 5 -7 -19 6 -13 9 -14 16 -3 6 9 7 6 3 -8 -4 -16 2 -28 26 -48 17 -14 35
-24 40 -20 5 3 9 0 9 -5 0 -6 22 -11 51 -11 30 0 48 4 44 10 -3 5 0 7 8 4 18
-6 73 39 92 77 23 43 19 109 -9 149 -26 39 -90 83 -80 56 3 -9 9 -14 13 -11 4
2 8 -3 8 -11 0 -11 -5 -10 -22 6 -12 11 -27 20 -34 20 -7 0 -9 5 -6 10 10 16
-37 11 -82 -10z"/>
<path d="M1322 13865 c-7 -8 -9 -15 -5 -16 4 0 -2 -4 -14 -9 -13 -5 -23 -17
-23 -25 0 -9 4 -14 9 -11 12 8 34 -21 28 -36 -8 -21 50 -15 70 7 10 11 19 33
20 48 2 23 -3 29 -28 34 -16 3 -29 9 -29 14 0 13 -13 10 -28 -6z m61 -46 c-8
-8 -13 -7 -18 2 -6 8 -4 10 5 4 10 -6 12 -4 6 11 -6 15 -5 17 5 7 9 -10 10
-16 2 -24z"/>
<path d="M33760 13689 c0 -5 -4 -7 -10 -4 -11 7 -12 0 -4 -32 8 -29 54 -33 54
-5 0 10 6 24 13 31 10 11 10 13 0 7 -7 -4 -13 -2 -13 3 0 6 -9 11 -20 11 -11
0 -20 -5 -20 -11z"/>
<path d="M530 13030 c-13 -8 -12 -11 5 -24 25 -18 33 -12 14 10 -12 14 -11 16
6 13 11 -3 21 -10 21 -17 3 -25 5 -27 14 -12 18 29 -26 52 -60 30z"/>
<path d="M37844 13029 c-14 -16 -15 -23 -6 -26 6 -3 12 -11 12 -19 0 -18 14
-18 30 1 10 13 9 15 -9 15 -24 0 -28 15 -7 23 8 3 17 1 19 -6 2 -7 8 -9 12 -5
8 8 -12 38 -25 38 -4 0 -15 -10 -26 -21z"/>
<path d="M37226 11992 c-3 -5 1 -13 10 -16 8 -3 13 -9 10 -14 -2 -4 -1 -14 4
-22 7 -12 10 -11 16 4 8 20 -29 65 -40 48z"/>
<path d="M6602 11835 c11 -20 11 -20 -10 -1 -29 25 -57 5 -46 -33 3 -14 7 -31
7 -38 0 -6 6 -9 14 -6 7 3 13 0 13 -6 0 -16 45 -14 59 3 7 8 14 30 18 49 6 37
-6 51 -44 52 -19 1 -20 -2 -11 -20z m35 0 c0 -8 -4 -12 -9 -9 -4 3 -8 9 -8 15
0 5 4 9 8 9 5 0 9 -7 9 -15z m-26 -38 c-6 -8 -8 -16 -5 -19 3 -3 1 -8 -4 -12
-13 -8 -11 28 2 36 17 12 20 9 7 -5z"/>
<path d="M31810 11855 c-7 -8 -16 -12 -21 -9 -5 3 -9 -2 -9 -11 0 -9 -4 -14
-8 -11 -5 3 -9 -1 -9 -9 0 -8 4 -12 8 -10 4 3 9 -2 13 -10 3 -8 1 -15 -4 -15
-5 0 -7 -6 -4 -14 3 -8 12 -12 20 -9 8 3 14 0 14 -6 0 -18 49 -12 70 9 22 22
26 63 8 77 -7 5 -25 14 -40 20 -21 10 -29 9 -38 -2z"/>
<path d="M29947 11635 c-18 -13 -18 -14 2 -34 25 -25 34 -26 51 -6 10 13 10
19 -5 35 -21 23 -24 24 -48 5z m23 -20 c-7 -9 -15 -13 -17 -11 -7 7 7 26 19
26 6 0 6 -6 -2 -15z"/>
<path d="M25765 11530 c-19 -8 -19 -9 3 -9 12 -1 22 4 22 9 0 6 -1 10 -2 9 -2
0 -12 -4 -23 -9z"/>
<path d="M4379 10735 c-1 -3 -2 -19 -3 -35 -1 -28 1 -31 29 -28 22 2 31 9 33
24 4 26 -24 39 -46 22 -13 -11 -15 -10 -9 5 3 9 4 17 2 17 -3 0 -6 -2 -6 -5z"/>
<path d="M34026 10731 c-4 -6 -2 -11 5 -11 8 0 6 -7 -4 -23 -13 -20 -13 -24
-1 -24 7 0 16 8 19 18 8 23 -9 57 -19 40z"/>
<path d="M6822 10468 c-18 -18 -14 -27 10 -20 l21 5 -21 -21 c-33 -33 -24 -59
20 -67 19 -4 30 1 42 20 17 26 22 65 7 65 -10 0 -25 -30 -22 -43 1 -5 -3 -6
-9 -2 -6 4 -8 21 -4 41 5 29 3 34 -13 34 -10 0 -24 -5 -31 -12z"/>
<path d="M6780 10426 c0 -2 7 -6 15 -10 8 -3 15 -1 15 4 0 6 -7 10 -15 10 -8
0 -15 -2 -15 -4z"/>
<path d="M31543 10441 c1 -11 8 -21 15 -21 12 0 12 3 1 18 -7 9 -14 19 -16 21
-1 2 -1 -6 0 -18z"/>
<path d="M31563 10415 c-14 -7 -19 -16 -14 -24 10 -16 18 -15 38 4 21 21 4 35
-24 20z"/>
<path d="M10250 10180 c0 -5 7 -7 15 -4 8 4 15 8 15 10 0 2 -7 4 -15 4 -8 0
-15 -4 -15 -10z"/>
<path d="M28166 10135 c-19 -29 -7 -33 18 -6 10 11 13 22 8 25 -6 3 -17 -5
-26 -19z"/>
<path d="M3895 10050 c-3 -5 -1 -10 4 -10 6 0 11 5 11 10 0 6 -2 10 -4 10 -3
0 -8 -4 -11 -10z"/>
<path d="M34487 10073 c-12 -12 -7 -22 8 -17 8 4 15 10 15 15 0 11 -14 12 -23
2z"/>
<path d="M34470 10030 c0 -13 28 -25 38 -16 3 4 0 11 -8 16 -20 13 -30 12 -30
0z"/>
<path d="M10475 10009 c-4 -6 -4 -13 -1 -16 3 -4 6 -1 6 6 0 7 5 9 10 6 6 -3
10 -1 10 4 0 14 -17 14 -25 0z"/>
<path d="M11390 9917 c0 -10 -4 -16 -9 -13 -4 3 -7 -8 -5 -25 4 -29 2 -30 -14
-18 -16 13 -16 13 -2 -5 14 -18 13 -19 -5 -12 -15 5 -17 4 -9 -4 9 -9 19 -7
40 7 26 17 28 17 21 0 -9 -23 -5 -22 34 14 19 18 27 27 18 20 -23 -16 -47 12
-29 34 8 9 8 15 2 15 -6 0 -13 -6 -15 -12 -4 -10 -8 -9 -16 2 -9 13 -11 12
-11 -3z m28 -29 c16 -16 15 -33 -1 -19 -8 6 -17 8 -20 4 -4 -3 -7 1 -7 10 0
20 11 22 28 5z"/>
<path d="M11295 9851 c-3 -5 -1 -12 5 -16 5 -3 10 1 10 9 0 18 -6 21 -15 7z"/>
<path d="M37405 9370 c-3 -6 1 -7 9 -4 18 7 21 14 7 14 -6 0 -13 -4 -16 -10z"/>
<path d="M26581 8984 c0 -11 3 -14 6 -6 3 7 2 16 -1 19 -3 4 -6 -2 -5 -13z"/>
<path d="M11297 9093 c-13 -12 -7 -22 10 -16 12 5 14 3 8 -8 -6 -11 -5 -11 5
-2 7 6 9 16 6 22 -8 12 -20 14 -29 4z"/>
<path d="M11370 9090 c0 -5 5 -10 10 -10 6 0 10 5 10 10 0 6 -4 10 -10 10 -5
0 -10 -4 -10 -10z"/>
<path d="M11415 9090 c-3 -5 -2 -10 4 -10 5 0 13 5 16 10 3 6 2 10 -4 10 -5 0
-13 -4 -16 -10z"/>
<path d="M11413 8984 c0 -6 11 -11 23 -11 13 0 28 5 33 11 8 9 1 12 -23 12
-18 0 -33 -5 -33 -12z"/>
<path d="M11410 8956 c0 -2 7 -6 15 -10 8 -3 15 -1 15 4 0 6 -7 10 -15 10 -8
0 -15 -2 -15 -4z"/>
<path d="M11290 8879 c0 -5 5 -7 10 -4 6 3 10 8 10 11 0 2 -4 4 -10 4 -5 0
-10 -5 -10 -11z"/>
<path d="M31217 8783 c-9 -9 -9 -43 1 -44 4 0 19 -2 34 -4 15 -2 30 1 33 6 4
5 1 9 -6 9 -6 0 -18 8 -26 18 -13 15 -14 15 -9 0 3 -12 1 -15 -10 -11 -8 3
-13 12 -10 19 6 15 3 18 -7 7z"/>
<path d="M11461 7954 c0 -11 3 -14 6 -6 3 7 2 16 -1 19 -3 4 -6 -2 -5 -13z"/>
<path d="M11400 7840 c0 -5 5 -10 11 -10 5 0 7 5 4 10 -3 6 -8 10 -11 10 -2 0
-4 -4 -4 -10z"/>
<path d="M11505 7779 c10 -15 -7 -38 -23 -32 -11 3 -13 2 -6 -4 6 -4 14 -17
18 -28 5 -17 12 -20 42 -17 22 3 31 7 24 12 -9 6 -9 9 1 13 9 3 3 9 -15 16
-20 8 -27 17 -23 30 2 10 -1 18 -9 18 -7 0 -11 -4 -9 -8z m30 -59 c-3 -5 -12
-10 -18 -10 -7 0 -6 4 3 10 19 12 23 12 15 0z"/>
<path d="M11540 7681 c0 -7 -4 -9 -10 -6 -5 3 -10 -2 -10 -12 0 -16 1 -16 17
0 9 9 14 20 10 23 -4 4 -7 2 -7 -5z"/>
<path d="M26517 8031 c-4 -17 -3 -21 5 -13 5 5 8 16 6 23 -3 8 -7 3 -11 -10z"/>
<path d="M8425 5443 c-33 -47 -65 -91 -71 -97 -6 -7 -19 -27 -29 -46 -17 -33
-37 -66 -131 -211 -23 -36 -51 -84 -63 -107 l-21 -42 1572 2 1572 3 77 170
c136 298 174 396 158 406 -8 5 -650 9 -1509 8 l-1495 0 -60 -86z"/>
<path d="M11546 5508 c-23 -37 -230 -476 -257 -545 l-9 -23 1569 0 c1243 0
1571 3 1579 13 6 6 35 109 66 227 31 118 63 236 71 261 20 63 19 76 -7 83 -13
3 -692 6 -1510 6 l-1487 0 -15 -22z"/>
<path d="M14628 5513 c-8 -10 -23 -45 -32 -78 -9 -33 -44 -153 -77 -267 -32
-114 -59 -212 -59 -218 0 -7 497 -10 1574 -10 l1575 0 5 53 c11 99 25 282 32
403 l6 121 -1043 6 c-1808 11 -1963 10 -1981 -10z"/>
<path d="M17723 5522 c-13 -2 -23 -4 -24 -5 -6 -18 -32 -234 -44 -372 -8 -99
-17 -186 -20 -192 -3 -10 316 -13 1575 -13 869 0 1580 3 1580 8 0 19 -31 321
-45 437 -8 71 -15 131 -15 133 0 1 -15 2 -32 1 -18 0 -690 1 -1493 3 -803 1
-1470 2 -1482 0z"/>
<path d="M20773 5514 c-7 -20 0 -145 23 -386 l18 -188 1574 0 1574 0 -5 33
c-9 55 -74 289 -100 358 -14 36 -31 91 -38 123 -7 31 -16 59 -21 62 -13 8
-2915 5 -2945 -3 -18 -4 -24 -2 -19 6 5 7 -3 11 -24 11 -19 0 -33 -6 -37 -16z"/>
<path d="M23854 5515 c-8 -19 102 -460 135 -548 l11 -27 1575 0 c1352 0 1575
2 1575 14 0 8 -3 16 -7 18 -12 5 -59 99 -108 212 -57 133 -153 318 -173 334
-12 9 -330 12 -1509 12 -1328 0 -1494 -2 -1499 -15z"/>
<path d="M26952 5523 c-35 -5 -36 -14 -7 -73 7 -14 25 -56 40 -95 33 -81 134
-300 169 -365 l25 -45 1570 -3 c864 -1 1571 0 1571 2 0 3 -13 25 -30 49 -16
25 -30 48 -30 51 0 3 -18 33 -40 65 -22 32 -40 61 -40 65 0 3 -7 14 -16 24 -9
9 -39 53 -67 97 -28 44 -54 82 -58 85 -3 3 -23 30 -42 61 -20 31 -43 64 -52
73 -15 15 -141 16 -1488 14 -810 -1 -1487 -3 -1505 -5z"/>
<path d="M30028 5523 c-16 -2 -28 -8 -28 -12 0 -4 27 -51 60 -104 33 -54 60
-102 60 -107 0 -5 6 -13 14 -17 7 -4 26 -33 41 -63 15 -30 32 -58 38 -62 6 -3
18 -19 26 -35 28 -52 55 -94 89 -139 l33 -44 1571 0 1572 0 -25 28 c-14 15
-37 43 -51 62 -14 19 -39 50 -57 69 -17 18 -31 36 -31 40 0 3 -18 26 -40 51
-22 25 -35 46 -30 48 12 4 61 -44 53 -52 -4 -3 -1 -6 4 -6 6 0 35 -30 64 -67
29 -38 60 -75 68 -84 9 -9 31 -32 49 -52 l32 -37 1573 -1 c864 -1 1583 -5
1597 -9 14 -4 -689 -8 -1562 -9 -874 -1 -1588 -3 -1588 -6 0 -7 99 -132 146
-184 22 -26 67 -80 100 -121 32 -41 67 -83 78 -92 10 -10 15 -18 10 -18 -16 0
-58 32 -94 73 -34 39 -52 61 -209 255 l-74 92 -1574 0 c-865 0 -1573 -2 -1573
-5 0 -3 15 -27 34 -53 18 -27 42 -64 51 -83 10 -19 21 -36 25 -39 5 -3 40 -56
80 -119 47 -74 69 -116 62 -123 -6 -6 -18 4 -33 31 -12 23 -26 41 -30 41 -3 0
-12 14 -19 30 -7 17 -16 30 -20 30 -4 0 -11 10 -17 23 -6 12 -44 73 -84 136
-41 63 -73 118 -71 123 1 4 -709 8 -1579 8 l-1580 0 7 -22 c4 -13 24 -60 45
-105 22 -45 39 -84 39 -86 0 -3 20 -47 43 -99 24 -51 59 -127 77 -168 19 -41
41 -85 50 -97 l15 -22 1578 -1 c964 0 1577 -4 1577 -9 0 -6 -594 -8 -1537 -5
-846 2 -1554 2 -1574 -1 -31 -5 -37 -10 -35 -30 0 -13 4 -21 7 -19 4 2 12 -11
19 -29 7 -17 23 -54 36 -82 54 -116 174 -385 181 -407 3 -9 19 -19 36 -22 56
-9 3281 -11 3296 -2 10 6 12 6 7 -2 -4 -7 -1 -12 9 -12 10 0 13 5 9 13 -5 8
-2 8 9 -2 9 -7 17 -10 17 -7 0 11 -48 92 -119 202 -36 55 -86 133 -111 173
-25 40 -64 102 -87 137 -24 35 -43 67 -43 72 0 6 -7 12 -15 16 -8 3 -12 12 -9
21 3 8 1 15 -4 15 -6 0 -14 9 -17 20 -3 11 -12 26 -18 32 -27 28 -58 91 -49
100 6 6 27 -20 55 -64 46 -75 77 -110 93 -107 25 4 797 -2 792 -6 -5 -5 -529
-15 -755 -15 l-53 0 29 -42 c16 -24 57 -88 91 -143 35 -55 91 -143 125 -195
34 -52 64 -99 66 -105 2 -5 29 -48 60 -95 101 -151 240 -371 251 -396 6 -13
15 -24 20 -24 4 0 8 -5 8 -11 0 -6 14 -30 30 -54 17 -24 30 -48 30 -52 0 -5
15 -26 34 -46 26 -28 42 -37 67 -38 19 0 354 -1 744 -1 483 0 692 -3 655 -9
-31 -6 -358 -10 -743 -11 l-689 -1 4 -29 5 -29 -22 27 -22 28 -1731 0 c-952 1
-1733 -2 -1736 -5 -6 -6 13 -57 54 -144 10 -22 58 -125 105 -230 48 -104 90
-194 94 -198 4 -4 816 -9 1804 -10 988 -1 1797 -5 1797 -9 0 -4 -15 -10 -32
-13 -18 -3 -826 -4 -1796 -3 -969 2 -1762 2 -1762 0 0 -1 4 -10 10 -20 5 -9
44 -93 86 -187 42 -93 93 -208 114 -255 21 -47 40 -92 42 -100 2 -8 10 -18 18
-22 8 -4 581 -7 1273 -7 836 -1 1256 -4 1252 -11 -4 -7 -433 -10 -1254 -10
-686 0 -1250 -3 -1253 -6 -7 -6 3 -29 137 -319 18 -38 45 -97 60 -130 99 -219
240 -522 248 -532 7 -10 105 -13 426 -13 368 -1 414 -2 397 -15 -17 -13 -320
-15 -2379 -15 -2241 0 -2358 -1 -2353 -17 2 -10 14 -51 26 -92 12 -41 23 -81
26 -90 30 -122 99 -386 120 -455 17 -59 16 -56 4 -56 -17 0 -27 31 -83 250
-47 181 -85 321 -113 414 -5 14 -3 16 7 11 8 -4 3 3 -11 16 l-25 24 -3906 1
-3907 1 -6 -51 c-4 -28 -11 -105 -16 -171 -10 -121 -21 -252 -40 -465 -5 -63
-10 -121 -10 -127 0 -10 288 -13 1409 -13 1389 0 1410 0 1416 19 3 11 15 23
25 26 24 8 60 -11 60 -30 0 -13 76 -15 566 -15 l567 0 -8 118 c-8 139 -14 217
-15 217 -3 0 -8 46 -15 125 -18 237 -25 307 -31 327 -5 18 -2 23 12 23 16 0
19 -9 22 -58 1 -31 12 -158 23 -282 11 -124 19 -239 17 -257 -2 -17 -1 -30 3
-27 4 2 10 -39 14 -91 l7 -95 8569 0 8569 0 0 2765 0 2765 -1130 0 c-621 0
-1130 -3 -1130 -6 0 -3 30 -37 67 -75 56 -58 63 -69 44 -69 -12 0 -19 4 -16
10 3 6 2 10 -4 10 -5 0 -40 29 -78 65 l-68 64 -1495 1 c-822 0 -1501 -4 -1508
-9 -10 -6 -2 -23 35 -69 26 -33 59 -76 73 -94 14 -18 32 -40 40 -48 49 -53 51
-56 30 -56 -10 0 -18 3 -17 6 1 3 -17 24 -41 47 -24 23 -43 44 -42 47 1 8 -82
107 -124 148 l-29 28 -1476 -1 c-812 -1 -1488 -4 -1503 -6z m6268 -168 c14
-13 13 -15 -5 -15 -12 0 -21 6 -21 15 0 8 3 15 6 15 3 0 12 -7 20 -15z m24
-35 c0 -5 -2 -10 -4 -10 -3 0 -8 5 -11 10 -3 6 -1 10 4 10 6 0 11 -4 11 -10z
m60 -52 c0 -6 -6 -5 -15 2 -8 7 -15 14 -15 16 0 2 7 1 15 -2 8 -4 15 -11 15
-16z m40 -44 c0 -3 -6 -1 -13 5 -8 6 -17 8 -21 4 -4 -4 -4 0 -1 10 6 14 9 14
21 2 8 -7 14 -17 14 -21z m30 -47 c-10 -9 -11 -9 -6 1 4 6 2 12 -3 12 -6 0
-11 7 -11 16 0 14 2 14 16 -1 14 -13 14 -19 4 -28z m63 -44 c-7 -2 -19 -2 -25
0 -7 3 -2 5 12 5 14 0 19 -2 13 -5z m28 -50 c13 -16 12 -17 -3 -4 -10 7 -18
15 -18 17 0 8 8 3 21 -13z m84 -82 c-6 -5 -25 10 -25 20 0 5 6 4 14 -3 8 -7
12 -15 11 -17z m80 -59 c-8 -8 -62 37 -62 53 0 11 10 6 34 -16 18 -18 31 -35
28 -37z m87 -9 c-16 -6 -39 -29 -45 -45 -4 -10 -7 -10 -18 -1 -11 11 -9 16 7
28 10 8 15 15 9 16 -5 1 4 4 20 8 30 7 51 2 27 -6z m-2887 -453 c-3 -5 0 -10
7 -10 7 0 39 -33 71 -74 l58 -74 1049 2 c844 1 1046 -1 1038 -12 -9 -10 -221
-12 -1045 -10 -690 2 -1029 0 -1020 -7 7 -5 30 -32 51 -58 29 -36 36 -51 28
-59 -7 -7 -13 -10 -15 -7 -2 2 -25 32 -52 66 l-50 63 -62 0 c-34 0 -65 5 -68
10 -4 6 18 10 59 10 l64 0 -26 28 c-82 85 -119 142 -91 142 5 0 7 -4 4 -10z
m-3205 -170 c0 -6 -16 -10 -35 -8 -19 1 -35 6 -35 10 0 4 16 8 35 8 19 0 35
-5 35 -10z m1033 3 c-29 -2 -77 -2 -105 0 -29 2 -6 3 52 3 58 0 81 -1 53 -3z
m170 0 c-7 -2 -21 -2 -30 0 -10 3 -4 5 12 5 17 0 24 -2 18 -5z m44 1 c-3 -3
-12 -4 -19 -1 -8 3 -5 6 6 6 11 1 17 -2 13 -5z m50 0 c-3 -3 -12 -4 -19 -1 -8
3 -5 6 6 6 11 1 17 -2 13 -5z m255 -1 c-40 -2 -103 -2 -140 0 -37 2 -4 3 73 3
77 0 107 -2 67 -3z m1398 -3 c-25 -7 -1311 -1 -1319 6 -2 2 299 4 670 3 371
-1 663 -4 649 -9z m200 6 c0 -2 -9 -6 -20 -9 -11 -3 -18 -1 -14 4 5 9 34 13
34 5z m453 -315 c100 -127 214 -262 234 -278 12 -9 102 -13 332 -14 563 -3
599 -4 607 -11 4 -5 -201 -8 -455 -8 l-462 0 63 -77 c35 -43 65 -80 68 -83 27
-27 131 -163 127 -167 -11 -11 -48 26 -152 154 -60 74 -118 143 -128 154 -17
19 -50 19 -1697 19 -924 0 -1680 3 -1680 8 0 4 640 8 1423 8 1667 2 1917 4
1917 11 0 3 -51 66 -113 142 -218 262 -248 301 -241 313 8 13 30 -11 157 -171z
m-2689 -1037 c14 -26 26 -53 26 -60 0 -8 4 -14 9 -14 4 0 19 -20 32 -45 13
-25 27 -45 31 -45 4 0 5 -6 2 -14 -3 -7 5 -20 18 -28 13 -9 32 -33 43 -54 11
-21 26 -45 33 -53 7 -9 33 -46 57 -83 37 -57 41 -68 25 -68 -12 0 -26 15 -39
43 -12 23 -35 60 -51 82 -16 22 -42 62 -57 89 -42 74 -48 82 -63 101 -15 18
-35 50 -46 75 -4 8 -16 26 -28 39 -13 15 -15 21 -6 17 13 -7 13 -6 0 6 -12 10
-24 58 -14 58 1 0 14 -21 28 -46z m-2553 -2175 c46 -82 199 -436 194 -447 -8
-22 -17 -9 -70 113 -26 61 -54 121 -61 135 -8 14 -27 57 -44 95 -17 39 -35 78
-40 87 -6 10 -10 23 -10 29 0 14 22 7 31 -12z"/>
<path d="M5125 5220 c-10 -11 -14 -20 -9 -20 5 0 15 9 22 20 7 11 11 20 9 20
-2 0 -12 -9 -22 -20z"/>
<path d="M17630 4909 c0 -9 -12 -141 -26 -294 -14 -152 -22 -280 -19 -284 4
-3 739 -7 1634 -8 l1628 -2 -3 27 c-4 33 -21 235 -35 392 -5 63 -12 130 -15
147 l-6 33 -1579 2 c-1453 3 -1579 2 -1579 -13z"/>
<path d="M4900 4913 c0 -5 -19 -28 -43 -53 -46 -50 -107 -124 -300 -365 l-128
-160 33 -6 c32 -6 32 -6 6 -9 -16 -1 -32 -4 -38 -5 -5 -1 -14 -3 -18 -4 -5 0
-51 -54 -103 -118 -100 -126 -279 -345 -288 -353 -4 -3 -18 -21 -32 -40 -15
-19 -37 -47 -51 -61 l-24 -25 171 -5 c175 -4 2043 -5 2786 -1 l417 3 50 77
c75 116 298 474 310 497 l10 21 -1081 2 c-594 1 -1083 5 -1085 7 -5 5 1457 11
1933 8 l250 -2 49 77 c28 42 64 100 82 127 42 67 162 258 202 321 18 28 32 56
32 62 0 9 -384 12 -1570 12 -863 0 -1570 -3 -1570 -7z m0 -603 c0 -6 -57 -10
-145 -10 -80 0 -145 4 -145 8 0 5 65 9 145 10 89 1 145 -2 145 -8z m228 -4 c3
-3 -39 -6 -94 -5 -54 0 -91 4 -81 7 20 8 166 6 175 -2z m32 4 c0 -5 -4 -10
-10 -10 -5 0 -10 5 -10 10 0 6 5 10 10 10 6 0 10 -4 10 -10z m50 1 c0 -5 -9
-7 -20 -4 -11 3 -20 7 -20 9 0 2 9 4 20 4 11 0 20 -4 20 -9z m30 -1 c0 -5 -4
-10 -10 -10 -5 0 -10 5 -10 10 0 6 5 10 10 10 6 0 10 -4 10 -10z m98 3 c-15
-2 -42 -2 -60 0 -18 2 -6 4 27 4 33 0 48 -2 33 -4z m59 1 c-3 -3 -12 -4 -19
-1 -8 3 -5 6 6 6 11 1 17 -2 13 -5z"/>
<path d="M8079 4903 c-21 -25 -75 -108 -165 -253 -42 -69 -85 -136 -94 -150
-49 -71 -102 -160 -98 -167 1 -4 12 -7 23 -6 19 3 19 2 2 -8 -11 -6 -26 -12
-35 -13 -18 -3 -86 -99 -174 -246 -47 -79 -121 -194 -190 -298 -15 -23 -28
-44 -28 -46 0 -1 759 -2 1687 -2 l1687 1 47 105 c26 58 67 148 90 200 23 52
60 133 81 178 21 46 38 88 38 93 0 9 -505 11 -2080 10 -424 0 -778 3 -795 8
-26 8 670 12 2662 16 141 0 226 4 233 11 5 5 52 104 104 220 51 115 107 236
123 269 16 34 32 68 36 78 6 16 -87 17 -1567 17 -1486 0 -1574 -1 -1587 -17z
m-262 -589 c-3 -3 -12 -4 -19 -1 -8 3 -5 6 6 6 11 1 17 -2 13 -5z m61 -1 c-10
-2 -26 -2 -35 0 -10 3 -2 5 17 5 19 0 27 -2 18 -5z m159 1 c-3 -3 -12 -4 -19
-1 -8 3 -5 6 6 6 11 1 17 -2 13 -5z"/>
<path d="M11225 4823 c-60 -124 -200 -441 -209 -470 -6 -20 -3 -23 21 -25 15
-1 747 -2 1625 -2 1411 -1 1598 1 1604 14 18 45 152 564 148 572 -3 4 -711 8
-1574 8 l-1569 0 -46 -97z"/>
<path d="M14445 4908 c-4 -11 -51 -185 -125 -463 -10 -38 -21 -83 -23 -100 -3
-16 -12 -47 -21 -68 -9 -20 -32 -97 -51 -170 -19 -72 -48 -184 -64 -247 -17
-63 -31 -123 -31 -132 0 -17 87 -18 1679 -18 1257 0 1682 3 1687 12 4 6 10 61
15 122 4 61 14 187 23 280 9 93 15 170 14 172 -2 1 -705 5 -1563 8 -858 3
-1589 5 -1624 6 -35 0 -61 3 -57 7 4 4 734 9 1624 10 1601 3 1617 3 1624 23 4
10 14 104 23 207 9 103 19 224 24 268 4 44 6 83 4 88 -2 4 -713 7 -1579 7
-1251 0 -1576 -3 -1579 -12z"/>
<path d="M20820 4878 c1 -111 48 -541 60 -548 14 -9 3236 -7 3245 1 7 8 -18
111 -64 269 -17 58 -40 141 -52 185 -11 44 -25 92 -31 108 l-10 27 -1574 0
-1574 0 0 -42z"/>
<path d="M24003 4903 c3 -10 24 -83 46 -163 76 -279 110 -401 117 -411 4 -7
513 -10 1532 -9 840 1 1559 0 1597 -1 69 -3 69 -3 -25 -9 -52 -3 -773 -5
-1601 -5 l-1506 1 13 -36 c16 -43 83 -287 120 -436 l28 -112 45 -6 c24 -3 785
-6 1689 -6 1558 0 1644 1 1637 18 -4 9 -12 31 -18 47 -6 17 -19 44 -29 60 -10
17 -18 38 -18 48 0 9 -4 17 -10 17 -5 0 -10 7 -10 16 0 8 -34 86 -76 172 -42
86 -76 168 -76 182 2 20 0 22 -8 10 -8 -13 -10 -13 -10 1 0 11 -13 19 -37 24
l-38 8 33 7 c37 8 54 20 30 20 -9 0 -19 12 -24 28 -4 15 -8 29 -9 32 -1 3 -18
40 -38 83 -102 215 -169 359 -190 410 l-11 27 -1579 0 c-1500 0 -1579 -1
-1574 -17z"/>
<path d="M11010 4302 c-17 -2 -30 -12 -37 -30 -6 -15 -61 -136 -122 -270 -61
-133 -114 -254 -117 -267 l-6 -25 1680 0 c1194 0 1683 3 1688 11 3 6 29 95 56
197 64 243 85 320 97 359 l9 32 -1611 -2 c-887 -1 -1623 -3 -1637 -5z"/>
<path d="M17575 4275 c-2 -16 -9 -84 -15 -150 -6 -66 -15 -161 -21 -212 -5
-50 -9 -116 -9 -147 l0 -56 1683 0 1683 0 -3 67 c-2 38 -8 109 -13 158 -5 50
-15 152 -22 228 l-12 137 -35 0 c-20 0 -755 1 -1633 3 l-1598 3 -5 -31z"/>
<path d="M21686 4302 l-809 -2 7 -108 c4 -59 14 -179 22 -267 8 -88 16 -172
16 -188 l1 -27 1691 2 c1642 3 1691 4 1694 22 3 11 0 16 -7 12 -6 -4 -11 0
-12 11 -1 19 -2 26 -18 83 -5 19 -19 69 -29 110 -11 41 -30 109 -41 150 -12
41 -29 103 -38 137 -16 58 -19 61 -53 67 -33 5 -465 5 -2424 -2z"/>
<path d="M7287 3668 c-8 -13 -32 -51 -53 -85 -21 -34 -61 -98 -89 -142 -27
-45 -87 -138 -132 -207 -46 -70 -83 -128 -83 -130 0 -2 782 -4 1739 -4 1379 0
1741 3 1748 13 6 6 29 55 53 107 23 52 72 160 107 240 36 80 74 164 84 188
l18 42 -1689 0 -1690 0 -13 -22z"/>
<path d="M10707 3683 c-3 -5 -35 -75 -72 -158 -37 -82 -85 -188 -107 -235 -38
-81 -78 -176 -78 -185 0 -8 3464 -5 3475 3 6 4 27 72 48 152 48 186 104 390
112 413 7 16 -77 17 -1683 17 -930 0 -1693 -3 -1695 -7z"/>
<path d="M14037 3403 c-43 -159 -77 -291 -77 -295 0 -5 783 -8 1740 -8 l1740
0 4 23 c3 12 7 54 10 92 3 39 12 151 20 250 9 99 16 190 16 203 l0 22 -1688 0
-1688 0 -77 -287z"/>
<path d="M17515 3613 c-3 -43 -12 -139 -20 -213 -8 -74 -17 -172 -21 -217 l-7
-83 1704 -1 c937 0 1724 -2 1747 -2 24 -1 46 2 50 7 3 5 1 6 -5 3 -10 -6 -12
7 -33 283 -5 69 -14 159 -19 200 -6 41 -10 81 -11 88 0 9 -345 12 -1689 12
l-1689 0 -7 -77z"/>
<path d="M20930 3637 c0 -29 4 -78 9 -108 5 -30 14 -115 21 -189 6 -74 13
-159 16 -187 l5 -53 1744 0 1744 0 -6 28 c-6 34 -9 43 -16 62 -3 8 -8 24 -10
35 -3 11 -28 103 -56 205 -28 101 -51 195 -51 208 0 13 -4 20 -10 17 -5 -3
-10 3 -10 14 l0 21 -1690 0 -1690 0 0 -53z"/>
<path d="M24340 3682 c0 -5 21 -82 46 -173 25 -90 59 -216 75 -279 17 -63 33
-118 37 -122 5 -5 789 -9 1744 -10 l1735 -3 -17 50 c-10 28 -41 100 -69 160
-29 61 -56 119 -60 130 -5 11 -22 49 -38 84 -15 36 -39 88 -54 115 l-25 51
-1687 3 c-928 1 -1687 -2 -1687 -6z"/>
<path d="M27756 3668 c6 -22 69 -162 143 -323 20 -44 53 -115 72 -158 23 -53
40 -79 54 -82 39 -9 152 -9 1802 -7 1664 2 1683 2 1653 32 -6 6 -39 57 -101
155 -24 39 -47 75 -52 80 -4 6 -31 46 -59 90 -114 179 -142 220 -152 227 -6 4
-766 8 -1689 8 l-1678 0 7 -22z"/>
<path d="M6908 3065 c-10 -12 -115 -176 -173 -269 -22 -35 -44 -62 -49 -59 -5
4 -6 1 -3 -4 8 -12 -104 -198 -134 -224 -17 -16 -16 -17 19 -22 20 -3 827 -4
1792 -1 965 2 1760 4 1766 4 7 0 19 17 27 38 9 20 44 98 78 172 55 121 153
337 165 366 7 16 -3476 14 -3488 -1z"/>
<path d="M10425 3056 c-8 -12 -26 -48 -41 -81 -14 -33 -42 -93 -60 -133 -19
-40 -34 -74 -34 -76 0 -2 -24 -55 -54 -117 -81 -172 -82 -159 11 -159 43 0
851 0 1796 -1 945 -1 1720 1 1721 2 1 2 26 92 54 199 29 107 63 235 76 285 14
49 23 92 21 96 -3 3 -786 6 -1741 6 l-1736 0 -13 -21z"/>
<path d="M13945 3070 c-3 -5 -12 -38 -20 -72 -14 -62 -64 -252 -110 -418 -13
-46 -22 -87 -19 -92 6 -10 3566 -10 3581 0 8 5 16 59 23 147 5 77 14 176 20
220 5 44 12 112 16 152 l6 72 -1745 1 c-1148 0 -1748 -3 -1752 -10z"/>
<path d="M17469 3077 c-5 -11 -55 -584 -52 -589 2 -5 811 -8 1797 -8 l1793 0
1 111 c0 61 3 113 5 116 3 2 8 -31 11 -74 4 -43 9 -95 12 -116 l6 -37 1798 0
1798 1 -8 32 c-4 18 -26 100 -49 182 -22 83 -51 186 -62 230 -39 145 -38 144
-83 150 -60 9 -3433 1 -3442 -7 -4 -4 -1 -82 6 -174 8 -106 9 -169 3 -175 -6
-6 -14 38 -22 123 -22 240 -18 225 -54 231 -31 5 -3456 9 -3458 4z"/>
<path d="M24500 3074 c0 -2 4 -12 9 -22 5 -9 19 -57 31 -107 40 -159 88 -338
107 -398 l18 -59 1797 -1 c989 -1 1798 1 1798 6 0 4 -4 15 -9 25 -10 17 -40
81 -101 217 -113 247 -153 331 -163 337 -13 8 -3487 10 -3487 2z"/>
<path d="M15516 2460 l-1740 -5 -17 -65 c-9 -36 -32 -119 -50 -185 -17 -66
-44 -167 -59 -225 l-28 -105 1851 -3 c1018 -1 1852 0 1855 3 4 4 22 200 47
515 l6 75 -63 0 c-35 0 -846 -2 -1802 -5z"/>
<path d="M21041 2410 c19 -149 29 -247 39 -379 6 -80 13 -148 16 -153 3 -4
840 -8 1859 -8 l1855 0 -9 23 c-5 12 -19 60 -31 107 -22 84 -66 243 -96 350
-9 30 -20 67 -26 82 l-10 28 -1802 2 -1802 3 7 -55z"/>
<path d="M10115 2388 c-64 -137 -225 -500 -225 -508 0 -10 3698 -12 3704 -2 2
4 16 52 31 107 55 205 125 470 125 472 0 2 -810 3 -1800 3 l-1801 0 -34 -72z"/>
<path d="M17407 2453 c-3 -5 -8 -55 -11 -113 -4 -58 -14 -167 -22 -244 -8 -76
-14 -158 -14 -182 l0 -44 1863 0 c1024 0 1858 4 1852 8 -5 4 -10 21 -11 37 -1
17 -5 73 -10 125 -4 52 -8 128 -8 167 -1 40 -4 73 -7 73 -3 0 -9 33 -12 74 -4
40 -9 80 -13 90 -6 15 -144 16 -1804 16 -990 0 -1801 -3 -1803 -7z"/>
<path d="M24670 2457 c0 -2 7 -28 16 -58 9 -30 45 -160 79 -289 l62 -235 1857
-2 c1021 -1 1856 1 1856 5 0 4 -37 86 -81 182 -45 96 -99 213 -121 260 -21 47
-45 96 -53 110 l-14 25 -1800 3 c-991 1 -1801 1 -1801 -1z"/>
<path d="M9837 1775 c-21 -41 -37 -77 -37 -80 0 -6 -24 -61 -100 -225 -97
-208 -125 -270 -179 -395 -29 -66 -61 -136 -72 -156 -10 -20 -19 -44 -19 -53
0 -15 162 -16 1944 -16 l1944 0 11 48 c17 70 108 408 151 562 21 74 52 185 69
246 17 62 31 119 31 128 0 15 -157 16 -1853 16 l-1854 0 -36 -75z"/>
<path d="M13611 1832 c-5 -10 -49 -162 -96 -338 -88 -321 -97 -355 -140 -519
-13 -49 -26 -98 -30 -107 -7 -17 90 -18 1943 -18 l1951 0 5 33 c2 17 10 102
16 187 17 219 27 338 40 470 16 155 26 301 21 306 -2 2 -836 4 -1852 4 -1770
0 -1849 -1 -1858 -18z"/>
<path d="M17356 1842 c-5 -8 -20 -155 -37 -362 -5 -63 -14 -155 -19 -205 -12
-120 -32 -417 -27 -421 8 -9 2550 -16 3180 -9 l707 7 -2 88 c-2 49 -6 86 -9
84 -4 -2 -9 42 -13 99 -4 56 -10 150 -14 209 -6 85 -4 104 6 96 6 -6 12 -25
12 -42 0 -17 4 -74 10 -126 5 -52 15 -156 21 -230 6 -74 12 -144 14 -155 2
-20 10 -20 1953 -23 l1952 -2 -10 22 c-5 13 -19 59 -31 103 -11 44 -24 94 -29
110 -5 17 -20 75 -35 130 -14 55 -33 123 -41 150 -9 28 -24 82 -34 120 -15 60
-80 292 -96 348 -5 16 -102 17 -1854 17 -1017 0 -1851 -4 -1854 -8 -3 -5 -1
-51 4 -103 17 -189 21 -289 11 -289 -5 0 -12 8 -15 18 -9 30 -10 187 -1 201 5
9 4 12 -3 8 -11 -8 -20 36 -24 120 l-3 53 -1857 0 c-1021 0 -1859 -4 -1862 -8z"/>
<path d="M24846 1841 c-3 -4 13 -73 35 -152 63 -223 88 -315 118 -434 16 -60
45 -168 65 -238 20 -71 33 -133 30 -139 -4 -6 -3 -8 3 -5 6 4 13 0 17 -8 5
-13 234 -15 1950 -15 l1945 0 -50 100 c-27 56 -49 103 -49 105 0 7 -150 339
-175 385 -13 25 -32 68 -43 95 -11 28 -40 93 -64 145 -25 52 -50 109 -57 127
-7 17 -22 34 -34 37 -35 9 -3685 7 -3691 -3z"/>
</g>
</svg>
